#define arrow_width 15
#define arrow_height 15
static char arrow_bits[] = {
   0xc0, 0x00, 0xe0, 0x01, 0xf0, 0x03, 0xe0, 0x07, 0xc0, 0x0f, 0xff, 0x1f,
   0xff, 0x3f, 0xff, 0x7f, 0xff, 0x3f, 0xff, 0x1f, 0xc0, 0x0f, 0xe0, 0x07,
   0xf0, 0x03, 0xe0, 0x01, 0xc0, 0x00};
