#define break_width 15
#define break_height 15
static char break_bits[] = {
   0xc0, 0x01, 0xf0, 0x07, 0xfc, 0x1f, 0xfc, 0x1f, 0xfe, 0x3f, 0xfe, 0x3f,
   0x03, 0x60, 0x03, 0x60, 0x03, 0x60, 0xfe, 0x3f, 0xfe, 0x3f, 0xfc, 0x1f,
   0xfc, 0x1f, 0xf0, 0x07, 0xc0, 0x01};
