/* XPM */
static char * dddlogo_xpm[] = {
"48 48 6 1",
" 	c none",
".	c #000000000000",
"X	c #D1D1D1D1D1D1",
"o	c #C6C6C6C6C6C6",
"O	c #00000000FFFF",
"+	c #FFFFFFFFFFFF",
"                .            .                  ",
"                .           ..                  ",
"                 .          .                   ",
"                 ..        .                    ",
"   ..             ..      ..                    ",
"     ..            .     .               .      ",
"       .            . . .              ..       ",
"        .            .X.              .         ",
"         .          ..X..           ..          ",
"         ..     ..  .XXX.  ..     ...           ",
"          .     .o...XXX...o.     .             ",
"          ..   ..ooo.XXX.ooo.   ..              ",
"            .....oooo...oooo.   .               ",
"             .. ..ooooooooo.. ..                ",
"                ...ooooooo.....                 ",
"                  .........                     ",
"                  .XXXXXXX.                     ",
"                .....XXX.....                   ",
"               .XXXXXOOOOOOOX.  ...             ",
"        ..    ..XXXOOOOXXXXXOOO.....            ",
"       .........XXOOXXXXXXXXXXXO   ..           ",
"      ..    ..X..OOXX.........XXO   ..          ",
"      .    ..XXXOOXX...........XXO  ..          ",
"     ..    .XXXXOXXXXXXXXXXXXXXXXXO  .          ",
"     ..   .....OOXXXXXXXXXXXXXXXXXXO  ..        ",
"    ..    .XXXOOXXXXXXXXXXXXXXXXXXXO   ..       ",
"   ..    ..XXXOOX.................XO     ..     ",
"   .   .. .XXOOXX.+...............XOO      ..   ",
"  .   ... ...OOXX.++..............XXO           ",
"..    .   .XXOOXXXX++XXXXXXXXXXXXXXXO           ",
"     ..   .XXOOXXXX++XXXXXXXXXXXXXXXO           ",
"     ..    .XOOXXXXX+XXXXXXXXXXXXXXXO.          ",
"     .     ...OOX...++............XO ..         ",
"     .     .XXOOX....+++..........XO ..         ",
"     .     ..XOOXX.....+++.......XXO  .         ",
"     .      ...OOXXXXXXXXXXXXXXXXXOOO .         ",
"     ..      .XOOOXXXXXXXXXXXXXXXOOOOO          ",
"     ..      ..XOOOXXX........XXOOOOOO          ",
"     ..       ....OOOXXX...XXXXOOOOOOOO         ",
"      .        .XX..OOOXXXXXOOOOOOOOOOO         ",
"     .          .....OOOOOOOOOOOOOOOOOOO        ",
"     .            .XXOOOOOOOO  OOOOOOOOOO       ",
"    .              .XXX.         OOOOOOOOO      ",
"  ..                ...            OOOOOOOO     ",
"  .                                  OOOOOOO    ",
"                                      OOOOOOO   ",
"                                       OOOOOOO  ",
"                                        OOOOOOO "};
