#define greybomb_width 14
#define greybomb_height 15
static unsigned char greybomb_bits[] = {
   0x40, 0x00, 0xa0, 0x00, 0x50, 0x01, 0xa0, 0x02, 0x40, 0x04, 0x2a, 0x0a,
   0x15, 0x15, 0x0a, 0x28, 0x55, 0x14, 0x2a, 0x0a, 0x00, 0x05, 0xa0, 0x02,
   0x50, 0x01, 0xa0, 0x00, 0x40, 0x00};
