#define greyarrow_width 14
#define greyarrow_height 15
static char greyarrow_bits[] = {
   0x40, 0x00, 0xa0, 0x00, 0x50, 0x01, 0xa0, 0x02, 0x40, 0x05, 0xaa, 0x0a,
   0x55, 0x15, 0xaa, 0x2a, 0x55, 0x15, 0xaa, 0x0a, 0x40, 0x05, 0xa0, 0x02,
   0x50, 0x01, 0xa0, 0x00, 0x40, 0x00};
