#define grey_cond_width 15
#define grey_cond_height 15
static unsigned char grey_cond_bits[] = {
   0x50, 0x05, 0xe8, 0x0b, 0xf4, 0x17, 0xba, 0x2f, 0x55, 0x57, 0x7e, 0x3f,
   0xa3, 0x6b, 0xae, 0x29, 0xe9, 0x7b, 0xee, 0x2a, 0xd5, 0x55, 0x2a, 0x2a,
   0xd4, 0x15, 0xe8, 0x0a, 0x50, 0x05};
