#define grey_stop_width 15
#define grey_stop_height 15
static char grey_stop_bits[] = {
   0x50, 0x05, 0xa8, 0x0a, 0x54, 0x15, 0xaa, 0x2a, 0x55, 0x55, 0xaa, 0x2a,
   0x55, 0x55, 0xaa, 0x2a, 0x55, 0x55, 0xaa, 0x2a, 0x55, 0x55, 0xaa, 0x2a,
   0x54, 0x15, 0xa8, 0x0a, 0x50, 0x05};
