/* XPM */
static char * mini-ddd_xpm[] = {
"14 14 4 1",
" 	c none",
".	c #000000000000",
"X	c #C6C6C6C6C6C6",
"o	c #00000000FFFF",
"     .  .     ",
"     .  .     ",
" ..   ..   .. ",
"   . .... .   ",
"   ...XX...   ",
"     .oooooo  ",
"   ..ooXXXXoo ",
"  . .oX....Xo ",
"..  .oXXXXXXo.",
"   ..oX....Xo ",
"  . .oXXXXXXo ",
"  .  ooXXXXooo",
"  .   oooooooo",
" .         ooo"};
