#define nobreak_width 15
#define nobreak_height 15
static char nobreak_bits[] = {
   0x40, 0x01, 0xa0, 0x02, 0x54, 0x15, 0xa8, 0x0a, 0x54, 0x15, 0xaa, 0x2a,
   0x01, 0x40, 0x02, 0x20, 0x01, 0x40, 0xaa, 0x2a, 0x54, 0x15, 0xa8, 0x0a,
   0x54, 0x15, 0xa0, 0x02, 0x40, 0x01};
