#define temp_stop_width 15
#define temp_stop_height 15
static char temp_stop_bits[] = {
   0xf0, 0x07, 0x08, 0x08, 0x04, 0x10, 0x02, 0x20, 0x01, 0x40, 0x01, 0x40,
   0x01, 0x40, 0x01, 0x40, 0x01, 0x40, 0x01, 0x40, 0x01, 0x40, 0x02, 0x20,
   0x04, 0x10, 0x08, 0x08, 0xf0, 0x07};
