#define temp_cond_width 15
#define temp_cond_height 15
static unsigned char temp_cond_bits[] = {
   0xf0, 0x07, 0xe8, 0x09, 0xf4, 0x13, 0x3a, 0x27, 0x01, 0x46, 0x7f, 0x77,
   0xa3, 0x6b, 0xaf, 0x69, 0xe9, 0x7a, 0xef, 0x4b, 0xc1, 0x40, 0x02, 0x20,
   0xc4, 0x10, 0xc8, 0x08, 0xf0, 0x07};
