#define time16m_width 16
#define time16m_height 16
static unsigned char time16m_bits[] = {
   0xfc, 0x3f, 0xfc, 0x3f, 0xfc, 0x3f, 0xfc, 0x3f, 0xf8, 0x1f, 0xf0, 0x0f,
   0xe0, 0x07, 0xc0, 0x03, 0xc0, 0x03, 0xe0, 0x07, 0xf0, 0x0f, 0xf8, 0x1f,
   0xfc, 0x3f, 0xfc, 0x3f, 0xfc, 0x3f, 0xfc, 0x3f};
