/* XPM */
static char * ddd_toolbar_1_xpm@[] = {
/* width height num_colors chars_per_pixel */
"605 28 6 1",
/* colors */
" 	c #bfbfbf",
".	c white",
"X	c #c0c0c0",
"o	c #737373",
"O	c #000000",
"+	c #6a6a6a",
/* pixels */
" .   XXXXXXXXXXXXXXXXXXXXXXXXXXXXXXXXXXXXXXXXXXXXXXXXXXXXXXXXXXXXXXXXXXXXXXXXXXXXXXXXXXXXXXXXXXXXXXXXXXXXXXXXXXXXXXXXXXXXXXXXXXXXXXXXXXXXXXXXXXXXXXXXXXXXXXXXXXXXXXXXXXXXXXXXXXXXXXXXXXXXXXXXXXXXXXXXXXXXXXXXXXXXXXXXXXXXXXXXXXXXXXXXXXXXXXXXXXXXXXXXXXXXXXXXXXXXXXXXXXXXXXXXXXXXXXXXXXXXXXXXXXXXXXXXXXXXXXXXXXXXXXXXXXXXXXXXXXXXXXXXXXXXXXXXXXXXXXXXXXXXXXXXXXXXXXXXXXXXXXXXXXXXXXXXXXXXXXXXXXXXXXXXXXXXXXXXXXXXXXXXXXXXXXXXXXXXXXXXXXXXXXXXXXXXXXXXXXXXXXXXXXXXXXXXXXXXXXXXXXXXXXXXXXXXXXXXXXXXXXXXXXXXXXXXXXXXXXXXXXXXXXXXXXXXXXXXXXXXXXXXXXXXXXXXXXXXXXXXXXXXXXXXXXXXXXXXXXXXXXXXXXXXXXXXXXXXXXXXXXXXXXXXXXXXXXXXXXX   oO",
" .   XXXXXXXXXXXXXXXXXXXXXXXXXXXXXXXXXXXXXXXXXXXXXXXXXXXXXXXXXXXXXXXXXXXXXXXXXXXXXXXXXXXXXXXXXXXXXXXXXXXXXXXXXXXXXXXXXXXXXXXXXXXXXXXXXXXXXXXXXXXXXXXXXXXXXXXXXXXXXXXXXXXXXXXXXXXXXXXXXXXXXXXXXXXXXXXXXXXXXXXXXXXXXXXXXXXXXXXXXXXXXXXXXXXXXXXXXXXXXXXXXXXXXXXXXXXXXXXXXXXXXXXXXXXXXXXXXXXXXXXXXXXXXXXXXXXXXXXXXXXXXXXXXXXXXXXXXXXXXXXXXXXXXXXXXXXXXXXXXXXXXXXXXXXXXXXXXXXXXXXXXXXXXXXXXXXXXXXXXXXXXXXXXXXXXXXXXXXXXXXXXXXXXXXXXXXXXXXXXXXXXXXXXXXXXXXXXXXXXXXXXXXXXXXXXXXXXXXXXXXXXXXXXXXXXXXXXXXXXXXXXXXXXXXXXXXXXXXXXXXXXXXXXXXXXXXXXXXXXXXXXXXXXXXXXXXXXXXXXXXXXXXXXXXXXXXXXXXXXXXXXXXXXXXXXXXXXXXXXXXXXXXXXXXXXXXXXXX   oO",
" .   XXXXXXXXXXXXXXXXXXXXXXXXXXXXXXXXXXXXXXXXXXXXXXXXXXXXXXXXXXXXXXXXXXXXXXXXXXXXXXXXXXXXXXXXXXXXXXXXXXXXXXXXXXXXXXXXXXXXXXXXXXXXXXXXXXXXXXXXXXXXXXXXXXXXXXXXXXXXXXXXXXXXXXXXXXXXXXXXX....................................................................XX...........................................................XX.............................................................................XX...............................................................................XX......................................................XX......................................................................X   oO",
" .   XXXXXXXXXXXXXXXXXXXXXXXX++++++++++++++++++++++++++++++++++++++++++++++++++++++++++++++++++++++++++++++++++++++++++++++++++++++++++++++++++++++++++++++++++++++++++++++++++++++++X...................................................................+XX..........................................................+XX............................................................................+XX..............................................................................+XX.....................................................+XX.....................................................................+X   oO",
" .   XXXXXXXXXXXXXXXXXXXXXXXX+++++++++++++++++++++++++++++++++++++++++++++++++++++++++++++++++++++++++++++++++++++++++++++++++++++++++++++++++++++++++++++++++++++++++++++++++++++++.X..XXXXXXXXXXXXXXXXXXXXXXXXXXXXXXXXXXXXXXXXXXXXXXXXXXXXXXXXXXXXXXXX++XX..XXXXXXXXXXXXXXXXXXXXXXXXXXXXXXXXXXXXXXXXXXXXXXXXXXXXXXX++XX..XXXXXXXXXXXXXXXXXXXXXXXXXXXXXXXXXXXXXXXXXXXXXXXXXXXXXXXXXXXXXXXXXXXXXXXXX++XX..XXXXXXXXXXXXXXXXXXXXXXXXXXXXXXXXXXXXXXXXXXXXXXXXXXXXXXXXXXXXXXXXXXXXXXXXXXX++XX..XXXXXXXXXXXXXXXXXXXXXXXXXXXXXXXXXXXXXXXXXXXXXXXXXX++XX..XXXXXXXXXXXXXXXXXXXXXXXXXXXXXXXXXXXXXXXXXXXXXXXXXXXXXXXXXXXXXXXXXX++X   oO",
" .   XXXXXXXXXXXXXXXXXXXXXXXX++...................................................................................................................................XXXXXXXXXXXXXXXXX..X..XXXXXXXXXXXXXXXXXXXXXXXXXXXXXXXXXXXXXXXXXXXXXXXXXXXXXXXXXXXXXXXX++XX..XXXXXXXXXXXXXXXXXXXXXXXXXXXXXXXXXXXXXXXXXXXXXXXXX+++++X++XX..XXXXXXXXXXXXXXXXXXXXXXXXXXXXXXXXXXXXXXXXXXXXXXXXXXXXXXXXXXXXXXXXXXX+++++X++XX..XXXXXXXXXXXXXXXXXXXXXXXXXXXXXXXXXXXXXXXXXXXXXXXXXXXXXXXXXXXXXXXXXXXXX+++++X++XX..XXXXXXXXXXXXXXXXXXXXXXXXXXXXXXXXXXXXXXXXXXXX+++++X++XX..XXXXXXXXXXXXXXXXXXXXXXXXXXXXXXXXXXXXXXXXXXXXXXXXXXXXXXXXXXXX+++++X++X   oO",
" .   XXXXXXXXXXXXXXXXXXXXXXXX++...................................................................................................................................XXXX..........XXX..X..XXXXXXXXXXXXXXXXXXXXXXXXXXXXXXXXXXXXXXXXXXXXXXXXXXXXXXXXXXXXXXXX++XX..XXXXXXXXXXXXXXXXXXXXXXXXXXXXXXXXXXXXXXXXXXXXXXXXXX+++XX++XX..XXXXXXXXXXXXXXXXXXXXXXXXXXXXXXXXXXXXXXXXXXXXXXXXXXXXXXXXXXXXXXXXXXXX+++XX++XX..XXXXXXXXXXXXXXXXXXXXXXXXXXXXXXXXXXXXXXXXXXXXXXXXXXXXXXXXXXXXXXXXXXXXXX+++XX++XX..XXXXXXXXXXXXXXXXXXXXXXXXXXXXXXXXXXXXXXXXXXXXX+++XX++XX..XXXXXXXXXXXXXXXXXXXXXXXXXXXXXXXXXXXXXXXXXXXXXXXXXXXXXXXXXXXXX+++XX++X   oO",
" .   XXXXXXXXXXXXXXXXXXXXXXXX++...O.O.............................................................................................................................XXXX........++XXX..X..XXXXXXXXXXXXXXXXXXXXXXXXXXXXXXXXXXXXXXXXXXXXXXXXXXXXXXXXXXXXXXXX++XX..XXXXXXXXXXXXXXXXXXXXXXXXXXXXXXXXXXXXXXXXXXXXXXXXXXX+XXX++XX..XXXXXXXXXXXXXXXXXXXXXXXXXXXXXXXXXXXXXXXXXXXXXXXXXXXXXXXXXXXXXXXXXXXXX+XXX++XX..XXXXXXXXXXXXXXXXXXXXXXXXXXXXXXXXXXXXXXXXXXXXXXXXXXXXXXXXXXXXXXXXXXXXXXX+XXX++XX..XXXXXXXXXXXXXXXXXXXXXXXXXXXXXXXXXXXXXXXXXXXXXX+XXX++XX..XXXXXXXXXXXXXXXXXXXXXXXXXXXXXXXXXXXXXXXXXXXXXXXXXXXXXXXXXXXXXX+XXX++X   oO",
" .   XXXXXXXXXXXXXXXXXXXXXXXX++....O.................O............................................................................................................XXXXX..XXXX++XXXX..X..XXXXXXXXXXXXXXXXXXXXXXXXXXXXXXXXXXXXXXXXXXXXXXXXXXXXXXXXXXXXXXXX++XX..XXXXXXXXXXXXXXXXXXXXXXXXXXXXXXXXXXXXXXXXXXXXXXXXXXXXXXX++XX..XXXXXXXXXXXXXXXXXXXXXXXXXXXXXXXXXXXXXXXXXXXXXXXXXXXXXXXXXXXXXXXXXXXXXXXXX++XX..XXXXXXXXXXXXXXXXXXXXXXXXXXXXXXXXXXXXXXXXXXXXXXXXXXXXXXXXXXXXXXXXXXXXXXXXXXX++XX..XXXXXXXXXXXXXXXXXXXXXXXXXXXXXXXXXXXXXXXXXXXXXXXXXX++XX..XXXXXXXXXXXXXXXXXXXXXXXXXXXXXXXXXXXXXXXXXXXXXXXXXXXXXXXXXXXXXXXXXX++X   oO",
" .   XXXXXXXOOXXOOXXXXXXXXXXX++......................O............................................................................................................XXXXX..XXXX++XXXX..X..XXXXOOXXXXXXXXXXXXXXXXXXOOXXXXXXXXXXXXXXXXXXXXXXXXXXOOXXOOXXXXXX++XX..XXXX++++++++XXXXXXXXXXXX++XXXXXXXXXXXXXXXXX++XX++XXXXXX++XX..XXXXOOOOOOXXXXXXXXXXXXXXXXXXXXXOOXXXXXXXXXXXXXXXXXOOXXXXXXXXXOOXXOOXXXXXX++XX..XXXXXXXXXXXOOXXOOXXOOXXXXXXXXOOXXXXXXXXXOOXXXXXXXXXXXXOOXXOOXXXXXXXXXXXXXXX++XX..XXXXOOOOOOXXXXXXOOXXXXXXXXXOOXXXXXXXXXOOXXOOXXXXXX++XX..XXXXOOOOOXXXOOXXXXXXXXXXXXXXXOOXXXXXXXXXXXXXXXXXXXXXXXOOXXOOXXXXXX++X   oO",
" .   XXXXXXOOXXXXOOXXXXXXXXXX++....O..............................................................................................................................XXXXXX..XX++XXXXX..X..XXXXOOXXXXXXXXXXXXXXXXXXOOXXXXXXXXXXXXXXXXXXXXXXXXXOOXXXXOOXXXXX++XX..XXXX++.......XXXXXXXXXXX++.XXXXXXXXXXXXXXX++..XX++XXXXX++XX..XXXXOOXXXOOXXXXXXXXXXXXXXXXXXXXOOXXXXXXXXXXXXXXXXXOOXXXXXXXXOOXXXXOOXXXXX++XX..XXXXXXXXXXXOOXXOOXXOOXXXXXXXXOOXXXXXXXXXOOXXXXXXXXXXXOOXXXXOOXXXXXXXXXXXXXX++XX..XXXXOOXXXOOXXXXXXXXXXXXXXXXOOXXXXXXXXOOXXXXOOXXXXX++XX..XXXXOOXXOOXXXXXXXXXXXXXXXXXXXOOXXXXXXXXXXXXXXXXXXXXXXOOXXXXOOXXXXX++X   oO",
" .   XXXXXXOOXXXXOOXXXOOXXXXX++.....O.O..O...OOO...OOO....O.OO....................................................................................................XXXXXX..XX++XXXXX..X..XXXXOOXXXXXOOOOXXXOOOOXXOOXXOOXOOXXOOXOOXOOXXXXXXXXOOXXXXOOXXXXX++XX..XXXX++.XXX++X++X++XXX++X++.XXXXXXXXXXXXXXX++.XXX++.XXXX++XX..XXXXOOXXXOOXOOXOOXOOOOXXXOOOOXXOOXXOOXXXXXXOOOOXXOOOOXXXXXXXOOXXXXOOXXXXX++XX..XXXXXXXXXXXOOXXOOXXOOXOOOOXXOOOOXXOOOOXXOOXOOXXXXXXXXOOXXXXOOXXXXXXXXXXXXXX++XX..XXXXOOXXXOOOOXOOOOXOOXOOXXOOOOXXXXXXXOOXXXXOOXXXXX++XX..XXXXOOXXXOOXOOXXOOOOXXOOXOOXXOOXXOOOOXXOOXXXOOXXXXXXXOOXXXXOOXXXXX++X   oO",
" .   XXXXXOOXXXXXXOOXXOOXXXXX++....OOO.OO.O.O...O....O....OO..O...................................................................................................XXXXXXX..++XXXXXX..X..XXXXOOXXXXOOXXOOXOOXXOOXOOXOOXXOOXXOOXOOOXOOXXXXXXOOXXXXXXOOXXXX++XX..XXXX++.XXX++.+++X++X++.+++.++XXX++XXXXXXX++..XXXX++XXXX++XX..XXXXOOXXXOOXOOOOOOOXXOOXOOXXOOXOOXOOXXXXXXOOXXOOXXOOXXXXXXXOOXXXXXXOOXXXX++XX..XXXXXXXXXXXXOXXOOXXOXOOXXOOXXOOXXOOXXOOXOOOXOOXXXXXXOOXXXXXXOOXXXXXXXXXXXXX++XX..XXXXOOXXXOOOOOOOOOXOOOXOOXXOOXXXXXXXOOXXXXXXOOXXXX++XX..XXXXOOXXXOOXOOXOOXXOOXOOOXOOXOOXOOXXOOXOOXXXOOXXXXXXOOXXXXXXOOXXXX++X   oO",
" .   XXXXXOOXXXXXXOOXXXXXXXXX++.....O..O..O.....O....O....O...O...................................................................................................XXXXXXX..++XXXXXX..X..XXXXOOXXXXOOXXOOXOOXXOOXOOOOXXXOOXXOOXOOXXOOXXXXXXOOXXXXXXOOXXXX++XX..XXXX+++++X++.++..++.++.X++.X++XXX++XXXXXX++.XXXXX++.XXX++XX..XXXXOOOOOOXXOOOXXOOXXOOXXXXXOOXOOOOXXXXXXXXXXXOOXXOOXXXXXXXOOXXXXXXOOXXXX++XX..XXXXXXXXXXXXOOXOOXOOXXXXXOOXXOOXXOOXXXXXOOXXOOXXXXXXOOXXXXXXOOXXXXXXXXXXXXX++XX..XXXXOOOOOOXOOOXXOOXOOXXOOXXOOXXXXXXXOOXXXXXXOOXXXX++XX..XXXXOOXXXOOXOOXOOOXXXXOOXXOOXOOXXXXXOOXXOOXOOXXXXXXXOOXXXXXXOOXXXX++X   oO",
" .   XXXXXOOXXXXXXOOXXXXXXXXX++....OO..O..O..OOOO....O....O...O...................................................................................................XXXXXXXXXXXXXXXXX..X..XXXXOOXXXXOOXXOOXOOXXOOXOOOOXXXOOXXOOXOOXXOOXXXXXXOOXXXXXXOOXXXX++XX..XXXX++....++.++.X++.++.X++.XX++XXX++XXXXX++.XXXXX++.XXX++XX..XXXXOOXXXOOXOOXXXOOOOOOXXOOOOOXOOOOXXXXXXXXOOOOOXXOOXXXXXXXOOXXXXXXOOXXXX++XX..XXXXXXXXXXXXOOXOOXOOXXOOOOOXXOOXXOOXXXXXOOXXOOXXXXXXOOXXXXXXOOXXXXXXXXXXXXX++XX..XXXXOOXXXXXOOXXXOOXOOXXOOXXOOXXXXXXXOOXXXXXXOOXXXX++XX..XXXXOOXXXOOXOOXXXOOOXXOOXXOOXOOXXOOOOOXXOOXOOXXXXXXXOOXXXXXXOOXXXX++X   oO",
" .   XXXXXOOXXXXXXOOXXXXXXXXX++.....O..O..O.O...O....O....O...O...................................................................................................XXXXXXXXXXXXXXXXX..X..XXXXOOXXXXOOXXOOXOOXXOOXOOXOOXXOOXXOOXOOXXOOXXXXXXOOXXXXXXOOXXXX++XX..XXXX++.XXX++.++.X++.++.X++.X++..X++..XXXX++.XXXXX++.XXX++XX..XXXXOOXXXOOXOOXXXOOXXXXXOOXXOOXOOXOOXXXXXXOOXXOOXXOOXXXXXXXOOXXXXXXOOXXXX++XX..XXXXXXXXXXXXXOOXXOOXXOOXXOOXXOOXXOOXXXXXOOXXOOXXXXXXOOXXXXXXOOXXXXXXXXXXXXX++XX..XXXXOOXXXXXOOXXXOOXOOXXOOXXOOXXXXXXXOOXXXXXXOOXXXX++XX..XXXXOOXXXOOXOOXXXXOOOXOOXXOOXOOXOOXXOOXXXOOOXXXXXXXXOOXXXXXXOOXXXX++X   oO",
" .   XXXXXOOXXXXXXOOXXOOXXXXX++....OO..O..O.O...O....O....O...O...................................................................................................XXXXXXXXXXXXXXXXX..X..XXXXOOXXXXOOXXOOXOOXXOOXOOXXOOXOOXOOOXOOOXOOXXXXXXOOXXXXXXOOXXXX++XX..XXXX++.XXX++.++.X++.++.+++.++..X++..XXXXX++.XXXXX++.XXX++XX..XXXXOOXXXOOXOOXXXOOXXOOXOOXXOOXOOXXOOXXXXXOOXXOOXXOOXOXXXXXOOXXXXXXOOXXXX++XX..XXXXXXXXXXXXXOOXXOOXXOOXXOOXXOOXOOOXXOOXOOXXOOXXXXXXOOXXXXXXOOXXXXXXXXXXXXX++XX..XXXXOOXXXXXOOXXXOOXOOXXOOXXOOXOXXXXXOOXXXXXXOOXXXX++XX..XXXXOOXXOOXXOOXOOXXOOXOOOXOOXOOXOOXXOOXXXOOOXXXXXXXXOOXXXXXXOOXXXX++X   oO",
" .   XXXXXOOXXXXXXOOXXOOXXXXX++.....O..O..O..OOO.O...O....O...O...................................................................................................XXX............XX..X..XXXXOOOOOOXOOOOXXXOOOOXXOOXXXOOXOOXOOXOOXOOXXXXXXXOOXXXXXXOOXXXX++XX..XXXX++.XXX++.++.X++.X++X++.X..XXX..XXXXXX++.XXXXX++.XXX++XX..XXXXOOOOOOXXOOXXXXOOOOXXXOOOXOOOOXXXOOXXXXXOOOXOOXXOOXXXXXXOOXXXXXXOOXXXX++XX..XXXXXXXXXXXXXOOXXOOXXXOOOXOOXXOOXXOOOOXXOOXXOOXXXXXXOOXXXXXXOOXXXXXXXXXXXXX++XX..XXXXOOXXXXXOOXXXOOXOOXXOOXXXOOXXXXXXOOXXXXXXOOXXXX++XX..XXXXOOOOOXXXOOXXOOOOXXOOXOOXXOOXXOOOXOOXXXOOXXXXXXXXOOXXXXXXOOXXXX++X   oO",
" .   XXXXXXOOXXXXOOXXXXXXXXXX++....O..............................................................................................................................XXX.XXXXXXXXXX+XX..X..XXXXXXXXXXXXXXXXXXXXXXXXXXXXXXXXXXXXXXOOXXXXXXXXXXXOOXXXXOOXXXXX++XX..XXXXX..XXXX..X..XX..XX..X..XXXXXXXXXXXXXXX++XXXX++..XXX++XX..XXXXXXXXXXXXXXXXXXXXXXXXXXXXXXXXXXXXXXXXXXXXXXXXXXXXXXXXXXXXOOXXXXOOXXXXX++XX..XXXXXXXXXXXXXXXXXXXXXXXXXXXXXXXXXXXXXXXXXXXXXXXXXXXXXOOXXXXOOXXXXXXXXXXXXXX++XX..XXXXXXXXXXXXXXXXXXXXXXXXXXXXXXXXXXXXXOOXXXXOOXXXXX++XX..XXXXXXXXXXXXXXXXXXXXXXOOXXXXXXXXXXXXXXXXXXOXXXXXXXXXXOOXXXXOOXXXXX++X   oO",
" .   XXXXXXOOXXXXOOXXXXXXXXXX++...O.O.............................................................................................................................XXX.+++++++++++XX..X..XXXXXXXXXXXXXXXXXXXXXXXXXXXXXXXXXXXXXXOOXXXXXXXXXXXOOXXXXOOXXXXX++XX..XXXXXXXXXXXXXXXXXXXXXXXXXXXXXXXXXXXXXXXXXX++.XXX++.XXXX++XX..XXXXXXXXXXXXXXXXXXXXXXXXXXXXXXXXXXXXXXXXXXXXXXXXXXXXXXXXXXXXOOXXXXOOXXXXX++XX..XXXXXXXXXXXXXXXXXXXXXXXXXXXXXXXXXXXXXXXXXXXXXXXXXXXXXOOXXXXOOXXXXXXXXXXXXXX++XX..XXXXXXXXXXXXXXXXXXXXXXXXXXXXXXXXXXXXXOOXXXXOOXXXXX++XX..XXXXXXXXXXXXXXXXXXXXXXOOXXXXXXXXXXXXXXXXXOOXXXXXXXXXXOOXXXXOOXXXXX++X   oO",
" .   XXXXXXXOOXXOOXXXXXXXXXXX++...................................................................................................................................XXXXXXXXXXXXXXXXX..X..XXXXXXXXXXXXXXXXXXXXXXXXXXXXXXXXXXXXXXOOXXXXXXXXXXXXOOXXOOXXXXXX++XX..XXXXXXXXXXXXXXXXXXXXXXXXXXXXXXXXXXXXXXXXXXX++XX++..XXXX++XX..XXXXXXXXXXXXXXXXXXXXXXXXXXXXXXXXXXXXXXXXXXXXXXXXXXXXXXXXXXXXXOOXXOOXXXXXX++XX..XXXXXXXXXXXXXXXXXXXXXXXXXXXXXXXXXXXXXXXXXXXXXXXXXXXXXXOOXXOOXXXXXXXXXXXXXXX++XX..XXXXXXXXXXXXXXXXXXXXXXXXXXXXXXXXXXXXXXOOXXOOXXXXXX++XX..XXXXXXXXXXXXXXXXXXXXXXOOXXXXXXXXXXXXXXXXOOXXXXXXXXXXXXOOXXOOXXXXXX++X   oO",
" .   XXXXXXXXXXXXXXXXXXXXXXXX++...................................................................................................................................XXXXXXXXXXXXXXXXX..X..XXXXXXXXXXXXXXXXXXXXXXXXXXXXXXXXXXXXXXXXXXXXXXXXXXXXXXXXXXXXXXXX++XX..XXXXXXXXXXXXXXXXXXXXXXXXXXXXXXXXXXXXXXXXXXXX..XX..XXXXX++XX..XXXXXXXXXXXXXXXXXXXXXXXXXXXXXXXXXXXXXXXXXXXXXXXXXXXXXXXXXXXXXXXXXXXXXXXXX++XX..XXXXXXXXXXXXXXXXXXXXXXXXXXXXXXXXXXXXXXXXXXXXXXXXXXXXXXXXXXXXXXXXXXXXXXXXXXX++XX..XXXXXXXXXXXXXXXXXXXXXXXXXXXXXXXXXXXXXXXXXXXXXXXXXX++XX..XXXXXXXXXXXXXXXXXXXXXXXXXXXXXXXXXXXXXXXXXXXXXXXXXXXXXXXXXXXXXXXXXX++X   oO",
" .   XXXXXXXXXXXXXXXXXXXXXXXX++......................................................................................................................................................X..XXXXXXXXXXXXXXXXXXXXXXXXXXXXXXXXXXXXXXXXXXXXXXXXXXXXXXXXXXXXXXXX++XX..XXXXXXXXXXXXXXXXXXXXXXXXXXXXXXXXXXXXXXXXXXXXXXXXXXXXXXX++XX..XXXXXXXXXXXXXXXXXXXXXXXXXXXXXXXXXXXXXXXXXXXXXXXXXXXXXXXXXXXXXXXXXXXXXXXXX++XX..XXXXXXXXXXXXXXXXXXXXXXXXXXXXXXXXXXXXXXXXXXXXXXXXXXXXXXXXXXXXXXXXXXXXXXXXXXX++XX..XXXXXXXXXXXXXXXXXXXXXXXXXXXXXXXXXXXXXXXXXXXXXXXXXX++XX..XXXXXXXXXXXXXXXXXXXXXXXXXXXXXXXXXXXXXXXXXXXXXXXXXXXXXXXXXXXXXXXXXX++X   oO",
" .   XXXXXXXXXXXXXXXXXXXXXXXX+.......................................................................................................................................................X..XXXXXXXXXXXXXXXXXXXXXXXXXXXXXXXXXXXXXXXXXXXXXXXXXXXXXXXXXXXXXXXX++XX..XXXXXXXXXXXXXXXXXXXXXXXXXXXXXXXXXXXXXXXXXXXXXXXXXXXXXXX++XX..XXXXXXXXXXXXXXXXXXXXXXXXXXXXXXXXXXXXXXXXXXXXXXXXXXXXXXXXXXXXXXXXXXXXXXXXX++XX..XXXXXXXXXXXXXXXXXXXXXXXXXXXXXXXXXXXXXXXXXXXXXXXXXXXXXXXXXXXXXXXXXXXXXXXXXXX++XX..XXXXXXXXXXXXXXXXXXXXXXXXXXXXXXXXXXXXXXXXXXXXXXXXXX++XX..XXXXXXXXXXXXXXXXXXXXXXXXXXXXXXXXXXXXXXXXXXXXXXXXXXXXXXXXXXXXXXXXXX++X   oO",
" .   XXXXXXXXXXXXXXXXXXXXXXXXXXXXXXXXXXXXXXXXXXXXXXXXXXXXXXXXXXXXXXXXXXXXXXXXXXXXXXXXXXXXXXXXXXXXXXXXXXXXXXXXXXXXXXXXXXXXXXXXXXXXXXXXXXXXXXXXXXXXXXXXXXXXXXXXXXXXXXXXXXXXXXXXXXXXXXXXX..++++++++++++++++++++++++++++++++++++++++++++++++++++++++++++++++++XX..+++++++++++++++++++++++++++++++++++++++++++++++++++++++++XX..+++++++++++++++++++++++++++++++++++++++++++++++++++++++++++++++++++++++++++XX..+++++++++++++++++++++++++++++++++++++++++++++++++++++++++++++++++++++++++++++XX..++++++++++++++++++++++++++++++++++++++++++++++++++++XX..++++++++++++++++++++++++++++++++++++++++++++++++++++++++++++++++++++X   oO",
" .   XXXXXXXXXXXXXXXXXXXXXXXXXXXXXXXXXXXXXXXXXXXXXXXXXXXXXXXXXXXXXXXXXXXXXXXXXXXXXXXXXXXXXXXXXXXXXXXXXXXXXXXXXXXXXXXXXXXXXXXXXXXXXXXXXXXXXXXXXXXXXXXXXXXXXXXXXXXXXXXXXXXXXXXXXXXXXXXXX.+++++++++++++++++++++++++++++++++++++++++++++++++++++++++++++++++++XX.++++++++++++++++++++++++++++++++++++++++++++++++++++++++++XX.++++++++++++++++++++++++++++++++++++++++++++++++++++++++++++++++++++++++++++XX.++++++++++++++++++++++++++++++++++++++++++++++++++++++++++++++++++++++++++++++XX.+++++++++++++++++++++++++++++++++++++++++++++++++++++XX.+++++++++++++++++++++++++++++++++++++++++++++++++++++++++++++++++++++X   oO",
" .   XXXXXXXXXXXXXXXXXXXXXXXXXXXXXXXXXXXXXXXXXXXXXXXXXXXXXXXXXXXXXXXXXXXXXXXXXXXXXXXXXXXXXXXXXXXXXXXXXXXXXXXXXXXXXXXXXXXXXXXXXXXXXXXXXXXXXXXXXXXXXXXXXXXXXXXXXXXXXXXXXXXXXXXXXXXXXXXXXXXXXXXXXXXXXXXXXXXXXXXXXXXXXXXXXXXXXXXXXXXXXXXXXXXXXXXXXXXXXXXXXXXXXXXXXXXXXXXXXXXXXXXXXXXXXXXXXXXXXXXXXXXXXXXXXXXXXXXXXXXXXXXXXXXXXXXXXXXXXXXXXXXXXXXXXXXXXXXXXXXXXXXXXXXXXXXXXXXXXXXXXXXXXXXXXXXXXXXXXXXXXXXXXXXXXXXXXXXXXXXXXXXXXXXXXXXXXXXXXXXXXXXXXXXXXXXXXXXXXXXXXXXXXXXXXXXXXXXXXXXXXXXXXXXXXXXXXXXXXXXXXXXXXXXXXXXXXXXXXXXXXXXXXXXXXXXXXXXXXXXXXXXXXXXXXXXXXXXXXXXXXXXXXXXXXXXXXXXXXXXXXXXXXXXXXXXXXXXXXXXXXXXXXXXXXXXXXXX   oO",
" .   XXXXXXXXXXXXXXXXXXXXXXXXXXXXXXXXXXXXXXXXXXXXXXXXXXXXXXXXXXXXXXXXXXXXXXXXXXXXXXXXXXXXXXXXXXXXXXXXXXXXXXXXXXXXXXXXXXXXXXXXXXXXXXXXXXXXXXXXXXXXXXXXXXXXXXXXXXXXXXXXXXXXXXXXXXXXXXXXXXXXXXXXXXXXXXXXXXXXXXXXXXXXXXXXXXXXXXXXXXXXXXXXXXXXXXXXXXXXXXXXXXXXXXXXXXXXXXXXXXXXXXXXXXXXXXXXXXXXXXXXXXXXXXXXXXXXXXXXXXXXXXXXXXXXXXXXXXXXXXXXXXXXXXXXXXXXXXXXXXXXXXXXXXXXXXXXXXXXXXXXXXXXXXXXXXXXXXXXXXXXXXXXXXXXXXXXXXXXXXXXXXXXXXXXXXXXXXXXXXXXXXXXXXXXXXXXXXXXXXXXXXXXXXXXXXXXXXXXXXXXXXXXXXXXXXXXXXXXXXXXXXXXXXXXXXXXXXXXXXXXXXXXXXXXXXXXXXXXXXXXXXXXXXXXXXXXXXXXXXXXXXXXXXXXXXXXXXXXXXXXXXXXXXXXXXXXXXXXXXXXXXXXXXXXXXXXXXX   oO"};
