/* XPM */
static char * ddd_toolbar_4_xpm@[] = {
/* width height num_colors chars_per_pixel */
"605 28 8 1",
/* colors */
" 	c #bfbfbf",
".	c white",
"X	c #c0c0c0",
"o	c #737373",
"O	c #000000",
"+	c #6a6a6a",
"@	c #7f7f7f",
"#	c #404040",
/* pixels */
" .   XXXXXXXXXXXXXXXXXXXXXXXXXXXXXXXXXXXXXXXXXXXXXXXXXXXXXXXXXXXXXXXXXXXXXXXXXXXXXXXXXXXXXXXXXXXXXXXXXXXXXXXXXXXXXXXXXXXXXXXXXXXXXXXXXXXXXXXXXXXXXXXXXXXXXXXXXXXXXXXXXXXXXXXXXXXXXXXXXXXXXXXXXXXXXXXXXXXXXXXXXXXXXXXXXXXXXXXXXXXXXXXXXXXXXXXXXXXXXXXXXXXXXXXXXXXXXXXXXXXXXXXXXXXXXXXXXXXXXXXXXXXXXXXXXXXXXXXXXXXXXXXXXXXXXXXXXXXXXXXXXXXXXXXXXXXXXXXXXXXXXXXXXXXXXXXXXXXXXXXXXXXXXXXXXXXXXXXXXXXXXXXXXXXXXXXXXXXXXXXXXXXXXXXXXXXXXXXXXXXXXXXXXXXXXXXXXXXXXXXXXXXXXXXXXXXXXXXXXXXXXXXXXXXXXXXXXXXXXXXXXXXXXXXXXXXXXXXXXXXXXXXXXXXXXXXXXXXXXXXXXXXXXXXXXXXXXXXXXXXXXXXXXXXXXXXXXXXXXXXXXXXXXXXXXXXXXXXXXXXXXXXXXXXXXXXXXXX   oO",
" .   XXXXXXXXXXXXXXXXXXXXXXXXXXXXXXXXXXXXXXXXXXXXXXXXXXXXXXXXXXXXXXXXXXXXXXXXXXXXXXXXXXXXXXXXXXXXXXXXXXXXXXXXXXXXXXXXXXXXXXXXXXXXXXXXXXXXXXXXXXXXXXXXXXXXXXXXXXXXXXXXXXXXXXXXXXXXXXXXXXXXXXXXXXXXXXXXXXXXXXXXXXXXXXXXXXXXXXXXXXXXXXXXXXXXXXXXXXXXXXXXXXXXXXXXXXXXXXXXXXXXXXXXXXXXXXXXXXXXXXXXXXXXXXXXXXXXXXXXXXXXXXXXXXXXXXXXXXXXXXXXXXXXXXXXXXXXXXXXXXXXXXXXXXXXXXXXXXXXXXXXXXXXXXXXXXXXXXXXXXXXXXXXXXXXXXXXXXXXXXXXXXXXXXXXXXXXXXXXXXXXXXXXXXXXXXXXXXXXXXXXXXXXXXXXXXXXXXXXXXXXXXXXXXXXXXXXXXXXXXXXXXXXXXXXXXXXXXXXXXXXXXXXXXXXXXXXXXXXXXXXXXXXXXXXXXXXXXXXXXXXXXXXXXXXXXXXXXXXXXXXXXXXXXXXXXXXXXXXXXXXXXXXXXXXXXXXXXX   oO",
" .   XXXXXXXXXXXXXXXXXXXXXXXXXXXXXXXXXXXXXXXXXXXXXXXXXXXXXXXXXXXXXXXXXXXXXXXXXXXXXXXXXXXXXXXXXXXXXXXXXXXXXXXXXXXXXXXXXXXXXXXXXXXXXXXXXXXXXXXXXXXXXXXXXXXXXXXXXXXXXXXXXXXXXXXXXXXXXXXXXXXXXXXXXXXXXXXXXXXXXXXXXXXXXXXXXXXXXXXXXXXXXXXXXXXXXXXXXXXXXXXXXXXXXXXXXXXXXXXXXXXXXXXXXXXXXXXXXXXXXXXXXXXXXXXXXXXXXXXXXXXXXXXXXXXXXXXXXXXXXXXXXXXXXXXXXXXXXXXXXXXXXXXXXXXXXXXXXXXXXXXXXXXXXXXXXXXXXXXXXXXXXXXXXXXXXXXXXXXXXXXXXXXXXXXXXXXXXXXXXXXXXXXXXXXXXXXXXXXXXXXXXXXXXXXXXXXXXXXXXXXXXXXXXXXXXXXXXXXXXXXXXXXXXXXXXXXXXXXXXXXXXXXXXXXXXXXXXXXXXXXXXXXXXXXXXXXXXXXXXXXXXXXXXXXXXXXXXXXXXXXXXXXXXXXXXXXXXXXXXXXXXXXXXXXXXXXXXXX   oO",
" .   XXXXXXXXXXXXXXXXXXXXXXXX++++++++++++++++++++++++++++++++++++++++++++++++++++++++++++++++++++++++++++++++++++++++++++++++++++++++++++++++++++++++++++++++++++++++++++++++++++++++++++++++++++++++++++++++++++++++++++++++++++++++++++++++++++++++++++++++++++++++++++++++++++++++++++XXXXXXXXXXXXXXXXXXXXXXXXXXXXXXXXXXXXXXXXXXXXXXXXXXXXXXXXXXXXXXXXXXXXXXXXXXXXXXXXXXXXXXXXXXXXXXXXXXXXXXXXXXXXXXXXXXXXXXXXXXXXXXXXXXXXXXXXXXXXXXXXXXXXXXXXXXXXXXXXXXXXXXXXXXXXXXXXXXXXXXXXXXXXXXXXXXXXXXXXXXXXXXXXXXXXXXXXXXXXXXXXXXXXXXXXXXXXXXXXXXXXXXXXXXXXXXXXXXXXXXXXXXXXXXXXXXXXXXXXXXXXXXXXXXXXXXXXXXXXXXXXXXXXXXXXXXXXXXX   oO",
" .   XXXXXXXXXXXXXXXXXXXXXXXX+++++++++++++++++++++++++++++++++++++++++++++++++++++++++++++++++++++++++++++++++++++++++++++++++++++++++++++++++++++++++++++++++++++++++++++++++++++++++++++++++++++++++++++++++++++++++++++++++++++++++++++++++++++++++++++++++++++++++++++++++++++++++++.XXXXXXXXXXXXXXXXXXXXXXXXXXXXXXXXXXXXXXXXXXXXXXXXXX+++++XXXXXXXXXXXXXXXXXXXXXXXX+++++XXXXXXXXXXXXXXXXXXXXXXXX+++++XXXXXXXXXXXXXXXXXXXXXXXX+++++XXXXXXXXXXXXXXXXXXXXXXXX+++++XXXXXXXXXXXXXXXXXXXXXXXX+++++XXXXXXXXXXXXXXXXXXXXXXXX+++++XXXXXXXXXXXXXXXXXXXXXXXX+++++XXXXXXXXXXXXXXXXXXXXXXXXXXXXXXXXXXXXXXXXXXXXXXXXXXXXX+++++XXX   oO",
" .   XXXXXXXXXXXXXXXXXXXXXXXX++.......................................................................................................................................................................................................................................XXXXXXXXXXXXXXXXX..XXXXXXXXXXXXXXXXXXXXXXXXXXXXXXXXXXXXXXXX@@XXXX@@XXX+++XXXXXXXXXXXXXXXXXXXXXXXXXX+++XXXXXXXXXXXXXXXXXXXXXXXXXX+++XXXXXXXXXXXXXXXXXXXXXXXXXX+++XXXXXXXXXXXXXXXXXXXX...X..+++XXXXXXXXXXXXXXXXXXXXXXXXXX+++XXXXXXXXXXXXX@@@@@@XXXXXXX+++XXXXXXXXXXXXXXXXXXXXXXXXXX+++XXXXXXXXXXXXXOXXXXXXXOOOXXXXXXXXXXXXXXXXXXXXXXXXXXXXXXX+++XXXX   oO",
" .   XXXXXXXXXXXXXXXXXXXXXXXX++.......................................................................................................................................................................................................................................XXXX..........XXX..XXXXXXXXXXXXXXXXXXXXXXXXXXXXXXXXXXXXXXXX@@@XXX@@@XXX+XXXXXXXXXXXXXXXX#######XXXXX+XXXXXXXXXXXXXXXXXXXXXXXXXXXX+XXXXXXXXXXXXXXXXXXX###XXXXXX+XXXXXXXXXXXXXXXXXXX.X.......+.XXXXXXXXXXOXXXXXXXXXXXXXXXX+XXXXXXXXXXXX@@@....@@@XXXXXX+XXXXXXXXXXXXXXXXXXXXXXXXXXXX+XXXXXXXXXXXXXOOOXOXXOOOXOOOXXXXXXXXXXXXXXXXXXXXXXXXXXXXXX+XXXXX   oO",
" .   XXXXXXXXXXXXXXXXXXXXXXXX++...O.O.................................................................................................................................................................................................................................XXXX........++XXX..XXXXXXXXXXXXXXXXXXXXXXXXXXXXXXXXXXXXXXX@@@@.X@@@@.XXXXXXXXXXXXXXXXXX#########XXXXXXXXXXXXXXXXXXXXXXXXXXXXXXXXXXXXXXXXXXXXXXXXXXX######XXXXXXXXXXXXXXXXXXXXXXXX.X.......X..XXXXXXXXXXXXXXXXXXXXXXXXOOXXXXXXXXXXXXX@@...@XXX.@@XXXXXXXXXXXXXXXXXXXXXXXX@@@XXXXXXXXXXXXXXXXXXXXXXOOOOXXO@@O@@OXXXXXXXXXXXXXXX@@XXXXXXXXX@@XXXXXXXX   oO",
" .   XXXXXXXOOXXOOXXXXXXXXXXX++....O.................O................................................................................................................................................................................................................XXXXX..XXXX++XXXX..XXXXXXXXXXOXXXXOO@XXXXXXXXXXXXXXXXXXXXXX...@@X.@@@XXXXXXXXXXXXXXXXX###########XXXXXXXXXXXXXXXXXOOOOXXXOOOOXXXXXXXXXXXXXXXXXXXXX#.######XXXXXXXXXXXXXXXXXXXXXXXX..........XXXXXXXXXXXOXXXXXXXXXXOOXOOXXXXXXXXXXXXX@@.XX@.XXX@@.XXXXXXXXXXXXXXXXXXXXX@@@@@@@XXXXXXXXXXXXXXXXXXXXXOOOXOO@OOO@OOXXXXXXXXXXXXX@@@.XXXXXXXX@@@XXXXXXX   oO",
" .   XXXXXXOOXXXXOOXXXXXXXXXX++......................O................................................................................................................................................................................................................XXXXX..XXXX++XXXX..XXXXXXXXXOOOXOXOOOOXXXXXXXXXXXXXXXXXX@@@@@@@@@@@@@@XXXXXXXXXXXXXXX#############XXXXXXXXXXXXXXXO .. OXO .. OXXXXXXXXXXXXXXXXXXX#.##OO###OXXXXXXXXXXXXXXXXXXXXXX.XXXX.....X.XXXXXXXXXXXXXXXXXXXXXOOXXXXXXXXXXXXXXX@@..XX@.XXXX@@XXXXXXXXXXXXXXXXXXXX@@......@XXXXXXXXXXXXXXXXXXXOOOOXO@@O@@@@OXXXXXXXXXXXXX@@@@X@@@@@X@@@@.XXXXXX   oO",
" .   XXXXXXOOXXXXOOXXXOOXXXXX++....O..................................................................................................................................................................................................................................XXXXXX..XX++XXXXX..XXXXXXXXXXOOOOX..OOOXXXXXXXXXXXXXXXX@X...@.@@@....@@XXXXXXXXXXXXX###############XXXXXXXXXXXXXO .... O .... OXXXXXXXXXXXXXXXXXX###OXX###OXXXXXXXXXXXXXXXXXXXXXX #### .....XXXXXXXXXXXOXXXXXXXOOXXXXXXXXXXXXXXXXXX@@.@@@@@@@XX@@.XXXXXXXXXXXXXXXXXX@@..XXXXXX.XXXXXXXXXXXXXXXXXXXXXXXOO@@O@@OXXXXXXXXXXXXXXX..@@@...@@@....XXXXXX   oO",
" .   XXXXXOOXXXXXXOOXXOOXXXXX++.....O.O..O...OOO...OOO....O.OO........................................................................................................................................................................................................XXXXXX..XX++XXXXX..XXXXXXXXXXXOOOXO@.OO@XXXXXXXXXXXXXXX@.XXX@.X@@.XXX@@.XXXXXXXXXXXX#.........#...#XXXXXXXXXXXXXO......O......O@XXXXXXXXXXXXXXXXXXOOXXX###OXXXXXXXXXXXXXXXXXXXXXX# .##O .....XXXXXXXXXXXXXXXXXXOOXXXXXXXXXXXXXXXXXX@@.X..@....X@@.XXXXXXXXXXXXXXXXX@@@.XXXXXX@XXXXXXXXXXXXXXXXXXOOXXOOOOOO@OOOXXXXXXXXXXXXXXXX@X...XXX..@XXXXXXXXX   oO",
" .   XXXXXOOXXXXXXOOXXXXXXXXX++....OOO.OO.O.O...O....O....OO..O.......................................................................................................................................................................................................XXXXXXX..++XXXXXX..XXXXXXXXXXOOOOX.O@.OOXXXXXXXXXXXXXXX@.XXX@@@@@.XXX@@.XXXXXXXXXXXX#.###.#.#.#.#.#XXXXXXXXXXXXXO......O......O@XXXXXXXXXXXXXXXXXXXXXX###OXXXXXXXXXXXXXXXXXXXXXX# . ##OOX...XXXXXXXXXXXOXXXXXXXXXXXXXXXXXXXXXXXXXXX@@.XXX@.XXX@@@.XXXXXXXXXXXXXXX@@@@@@@XXXX@@@XXXXXXXXXXXXXXXXO OOO   O OOOXXXXXXXXXXXXXXXXXX@.@@@X@@@X@.XXXXXXXX   oO",
" .   XXXXXOOXXXXXXOOXXXXXXXXX++.....O..O..O.....O....O....O...O.......................................................................................................................................................................................................XXXXXXX..++XXXXXX..XXXXXXXXXXXXXXOO.O.OOXXXXXXXXXXXXXXX@.@@@@..@@@@@X@@.XXXXXXXXXXXX#...#.#.#.#.#.#XXXXXXXXXXXXXO...OO.O...OO.O@XXXXXXXXXXXXXXXXXXXXX###OXXXXXXXXXXXXXXXXXXXXOOXO###OO#OX....XXXXXXXXXXXXXXXOOXXXXXXXXXXXXXXXXXXXXXX@@XXX@.XX@@@@.XXXXXXXXXXXXXXXX@@@@@..XX@@@@@XXXXXXXXXXXXXXXXO   OOO   OXXXXXXXXXXXXXXXXXXX@.@@@.@@@.@.XXXXXXXX   oO",
" .   XXXXXOOXXXXXXOOXXXXXXXXX++....OO..O..O..OOOO....O....O...O.......................................................................................................................................................................................................XXXXXXXXXXXXXXXXX..XXXXXXXXXOO.OXOO.O.OOXXXXXXXXXXXXXXX@.X@@@.@@.@@..@@.XXXXXXXXXXXX###.#.#.#.#...#XXXXXXXXXXXXXO ..OO.O ..OO O@XXXXXXXXXXXXXXXXXXXX##OOXXXXXXXXXXXXXXXXXXXXO.##..OOOO#OX..X.XXXXXXXXXXOXXXXOOXXXXXXXXXXXXXXXXXXXXXX@@@XXX.X@@@.@.XXXXXXXXXXXXXXXXX@@@..XX@@@@@@@XXXXXXXXXXXXXXXO  O O.O  OXXXXXXXXXXXXXXXXXXX@@X..@X..@@.XXXXXXXX   oO",
" .   XXXXXOOXXXXXXOOXXOOXXXXX++.....O..O..O.O...O....O....O...O.......................................................................................................................................................................................................XXXXXXXXXXXXXXXXX..XXXXXXXXXOO.@O..O@.OOXXXXXXXXXXXXXXX@.XX@@.@@@@..X@@.XXXXXXXXXXXX#...#.#...#.###XXXXXXXXXXXXXXO ...O@O .. O@@XXXXXXXXXXXXXXXXXXXX####OXXXXXXXXXXXXXXXXXXX## .. OOOOO#X.X.XXXXXXXXXXXXXXXXXXXXXXXXXXXXXXXXXXXXXXXXX.@@@@@@@@@.X@XXXXXXXXXXXXXXXXXX@..XXXX.@@@...XXXXXXXXXXXXOO  O O...O  OOXXXXXXXXXXXXXXXXXX@@XXX.X@@..XXXXXXXX   oO",
" .   XXXXXOOXXXXXXOOXXOOXXXXX++....OO..O..O.O...O....O....O...O.......................................................................................................................................................................................................XXXXXXXXXXXXXXXXX..XXXXXXXXX@OO.@OO@.OO@XXXXXXXXXXXXXXX@.XX@@@@@@@.XX@@.XXXXXXXXXXXX###############XXXXXXXXXXXXXXXOOOO@@XOOOO@@XXXXXXXXXXXXXXXXXXXXX@##@XXXXXXXXXXXXXXXXXXX# .. ##OOOO#@.X.X.XXXXXXXXXXOXOOXXXXXXXXXXXXXXXXXXXXXXXXXXXX...@@@@@@XX@XXXXXXXXXXXXXXXXXX.XXXXXX@@..XXXXXXXXXXXXXXOO  O O...O  OOXXXXXXXXXXXXXXXXXXX@.XXXX@..XXXXXXXXX   oO",
" .   XXXXXXOOXXXXOOXXXXXXXXXX++.....O..O..O..OOO.O...O....O...O.......................................................................................................................................................................................................XXX............XX..XXXXXXXXXXOOO....OOOXXXXXXXXXXXXXXXX@@@@@@....@@@@@@.XXXXXXXXXXXXX#############XXXXXXXXXXXXXXXXX@@@@XXX@@@@XXXXXXXXXXXXXXXXXXXXXXX@OOXXXXXXXXXXXXXXXXX##.. ###OO#@@@XX @  XXXXXXXXXXXXOOXXXXXXXXXXXXXXXXXXXXXXXXXXXXXXXX...@@@XX@XXXXXXXXXXXXXXXX@XXXXXX@@..XXXXXXXXXXXXXXXXXO  O O.O  OXXXXXXXXXXXXXXXXXXX@@@@X@X@@@@XXXXXXXXX   oO",
" .   XXXXXXOOXXXXOOXXXXXXXXXX++....O..................................................................................................................................................................................................................................XXX.XXXXXXXXXX+XX..XXXXXXXXXXXOOOOOOOOXXXXXXXXXXXXXXXXX@..@@@.XXX@..@@@.XXXXXXXXXXXXXX###########XXXXXXXXXXXXXXXXXXXXXXXXXXXXXXXXXXXXXXXXXXXXXXXXXXX@.##XXXXXXXXXXXXXXXX# . ###OO#XXXXX #@@@@XXXXXXXXXXOXXXXXXXXXXXXXXXXXXXXXXXXXXXXXXXXXXXXXXX@@@XX@XXXXXXXXXXXXXXXX@@@@@@@..XXXXXXXXXXXXXXXXXXO   OOO   OXXXXXXXXXXXXXXXX@@@@..@@X@@..@@@@XXXXXX   oO",
" .   XXXXXXXOOXXOOXXXXXXXXXXX++...O.O.................................................................................................................................................................................................................................XXX.+++++++++++XX..XXXXXXXXXXXX@OOOO@XXXXXXXXXXXXXXXXXX@@@@@@.XXX@@@@@@.XXXXXXXXXXXXXXX#########XXXXXXXXXXXXXXXXXXXXXXXXXXXXXXXXXXXXXXXXXXXXXXXXXXXX####@XXXXXXXXXXXXXXXOO###OO#XXXX ######@ XXXXXXXXOXOXOXOXOXOXOXOXOXOXOXXXXXXXXXXXXXXXXXXXXXX@@@XX@XXXXXXXXXXXXXXXX.@@@...XXXXXXXXXXXXXXXXXXO           OXXXXXXXXXXXXXXXX@@..XX..X..XX@@..XXXXX   oO",
" .   XXXXXXXXXXXXXXXXXXXXXXXX++.......................................................................................................................................................................................................................................XXXXXXXXXXXXXXXXX..XXXXXXXXXXXXXXXXXXXXXXXXXXXXXXXXXXXXX@@@@@.XXXX@@@@@.XXXXXXXXXXXXXXXX#######XXXXXXXXXXXXXXXXXXXXXXXXXXXXXXXXXXXXXXXXXXXXXXXXXXXXXX##O@XXXXXXXXXXXXXXX#OO#O#@@X @###@@ XXXXXXXXXXXXXXOXXXXXXXXXXXXXXXXXXXXXXXXXXXXXXXXXXXXXXXXX.@@X@@XXXXXXXXXXXXXXXXX...XXXXXXXXXXXXXXXXXXXXOOOOOO  OOOOOXXXXXXXXXXXXXXXXX@.XXXXXXXXXX@..XXXXXX   oO",
" .   XXXXXXXXXXXXXXXXXXXXXXXX++.......................................................................................................................................................................................................................................XXXXXXXXXXXXXXXXX..XXXXXXXXXXXXXXXXXXXXXXXXXXXXXXXXXXXXXX.....XXXXX.....XXXXXXXXXXXXXXXXXXXXXXXXXXXXXXXXXXXXXXXXXXXXXXXXXXXXXXXXXXXXXXXXXXXXXXXXXXXXXXO@XXXXXXXXXXXXXXXX OOO@@@@@@@ XXXXXXXXXXXXXXXXXXXXXXXXXXXXXXXXXXXXXXXXXXXXXXXXXXXXXXXXXXXXXXX@@@.XXXXXXXXXXXXXXXXXXXXXXXXXXXXXXXXXXXXXXXXXXXXXOOOOXXXXXXXXXXXXXXXXXXXXXX.XXXXXXXXXXX.XXXXXXX   oO",
" .   XXXXXXXXXXXXXXXXXXXXXXXX++..........................................................................................................................................................................................................................................................XXXXXXXXXXXXXXXXXXXXXXXXXXXXXXXXXXXXXXXXXXXXXXXXXXXXXXXXXXXXXXXXXXXXXXXXXXXXXXXXXXXXXXXXXXXXXXXXXXXXXXXXXXXXXXXXXXXXXXXXXXXXXXXXXXXXXXXXXXXXXXXXXXXXXXXXXXXXXXXXXXXXXXXXXXXXXXXXXXXXXXXXXXXXXXXXXXXXXXXXXXXXXXXXXXXXXXXXXXXXXXXXXXXXXXXXXXXXXXXXXXXXXXXXXXXXXXXXXXXXXXXXXXXXXXXXXXXXXXXXXXXXXXXXXXXXXXXXXXXXXXXXXXXXXXXXXXXXXXX   oO",
" .   XXXXXXXXXXXXXXXXXXXXXXXX+...........................................................................................................................................................................................................................................................XXXXXXXXXXXXXXXXXXXXXXXXXXXXXXXXXXXXXXXXXXXXXXXXXXXXXXXXXXXXXXXXXXXXXXXXXXXXXXXXXXXXXXXXXXXXXXXXXXXXXXXXXXXXXXXXXXXXXXXXXXXXXXXXXXXXXXXXXXXXXXXXXXXXXXXXXXXXXXXXXXXXXXXXXXXXXXXXXXXXXXXXXXXXXXXXXXXXXXXXXXXXXXXXXXXXXXXXXXXXXXXXXXXXXXXXXXXXXXXXXXXXXXXXXXXXXXXXXXXXXXXXXXXXXXXXXXXXXXXXXXXXXXXXXXXXXXXXXXXXXXXXXXXXXXXXXXXXXXX   oO",
" .   XXXXXXXXXXXXXXXXXXXXXXXXXXXXXXXXXXXXXXXXXXXXXXXXXXXXXXXXXXXXXXXXXXXXXXXXXXXXXXXXXXXXXXXXXXXXXXXXXXXXXXXXXXXXXXXXXXXXXXXXXXXXXXXXXXXXXXXXXXXXXXXXXXXXXXXXXXXXXXXXXXXXXXXXXXXXXXXXXXXXXXXXXXXXXXXXXXXXXXXXXXXXXXXXXXXXXXXXXXXXXXXXXXXXXXXXXXXXXXXXXXXXXXXXXXXXXXXXXXXXXXXXXXXXXXXXXXXXXXXXXXXXXXXXXXXXXXXXXXXXXXXXXXXXXXXXXXXXXXXXXXXXXXXXXXXXXXXXXXXXXXXXXXXXXXXXXXXXXXXXXXXXXXXXXXXXXXXXXXXXXXXXXXXXXXXXXXXXXXXXXXXXXXXXXXXXXXXXXXXXXXXXXXXXXXXXXXXXXXXXXXXXXXXXXXXXXXXXXXXXXXXXXXXXXXXXXXXXXXXXXXXXXXXXXXXXXXXXXXXXXXXXXXXXXXXXXXXXXXXXXXXXXXXXXXXXXXXXXXXXXXXXXXXXXXXXXXXXXXXXXXXXXXXXXXXXXXXXXXXXXXXXXXXXXXXXXXX   oO",
" .   XXXXXXXXXXXXXXXXXXXXXXXXXXXXXXXXXXXXXXXXXXXXXXXXXXXXXXXXXXXXXXXXXXXXXXXXXXXXXXXXXXXXXXXXXXXXXXXXXXXXXXXXXXXXXXXXXXXXXXXXXXXXXXXXXXXXXXXXXXXXXXXXXXXXXXXXXXXXXXXXXXXXXXXXXXXXXXXXXXXXXXXXXXXXXXXXXXXXXXXXXXXXXXXXXXXXXXXXXXXXXXXXXXXXXXXXXXXXXXXXXXXXXXXXXXXXXXXXXXXXXXXXXXXXXXXXXXXXXXXXXXXXXXXXXXXXXXXXXXXXXXXXXXXXXXXXXXXXXXXXXXXXXXXXXXXXXXXXXXXXXXXXXXXXXXXXXXXXXXXXXXXXXXXXXXXXXXXXXXXXXXXXXXXXXXXXXXXXXXXXXXXXXXXXXXXXXXXXXXXXXXXXXXXXXXXXXXXXXXXXXXXXXXXXXXXXXXXXXXXXXXXXXXXXXXXXXXXXXXXXXXXXXXXXXXXXXXXXXXXXXXXXXXXXXXXXXXXXXXXXXXXXXXXXXXXXXXXXXXXXXXXXXXXXXXXXXXXXXXXXXXXXXXXXXXXXXXXXXXXXXXXXXXXXXXXXXXX   oO",
" .   XXXXXXXXXXXXXXXXXXXXXXXXXXXXXXXXXXXXXXXXXXXXXXXXXXXXXXXXXXXXXXXXXXXXXXXXXXXXXXXXXXXXXXXXXXXXXXXXXXXXXXXXXXXXXXXXXXXXXXXXXXXXXXXXXXXXXXXXXXXXXXXXXXXXXXXXXXXXXXXXXXXXXXXXXXXXXXXXXXXXXXXXXXXXXXXXXXXXXXXXXXXXXXXXXXXXXXXXXXXXXXXXXXXXXXXXXXXXXXXXXXXXXXXXXXXXXXXXXXXXXXXXXXXXXXXXXXXXXXXXXXXXXXXXXXXXXXXXXXXXXXXXXXXXXXXXXXXXXXXXXXXXXXXXXXXXXXXXXXXXXXXXXXXXXXXXXXXXXXXXXXXXXXXXXXXXXXXXXXXXXXXXXXXXXXXXXXXXXXXXXXXXXXXXXXXXXXXXXXXXXXXXXXXXXXXXXXXXXXXXXXXXXXXXXXXXXXXXXXXXXXXXXXXXXXXXXXXXXXXXXXXXXXXXXXXXXXXXXXXXXXXXXXXXXXXXXXXXXXXXXXXXXXXXXXXXXXXXXXXXXXXXXXXXXXXXXXXXXXXXXXXXXXXXXXXXXXXXXXXXXXXXXXXXXXXXXXX   oO",
" .   +++++++++++++++++++++++++++++++++++++++++++++++++++++++++++++++++++++++++++++++++++++++++++++++++++++++++++++++++++++++++++++++++++++++++++++++++++++++++++++++++++++++++++++++++++++++++++++++++++++++++++++++++++++++++++++++++++++++++++++++++++++++++++++++++++++++++++++++++++++++++++++++++++++++++++++++++++++++++++++++++++++++++++++++++++++++++++++++++++++++++++++++++++++++++++++++++++++++++++++++++++++++++++++++++++++++++++++++++++++++++++++++++++++++++++++++++++++++++++++++++++++++++++++++++++++++++++++++++++++++++++++++++++++++++++++++++++++++++++++++++++++++++++++++++++++++++++++++++++   oO"};
