/* XPM */
static char * ddd_tool_xpm@[] = {
/* width height num_colors chars_per_pixel */
"82 225 11 1",
/* colors */
" 	c #bfbfbf",
".	c #000000",
"X	c white",
"o	c #737373",
"O	c #000080",
"+	c #0000ff",
"@	c #c0c0c0",
"#	c #7f7f7f",
"$	c #6a6a6a",
"%	c #006400",
"&	c #8b0000",
/* pixels */
"                                                                                 .",
" XXXXXXXXXXXXXXXXXXXXXXXXXXXXXXXXXXXXXXXXXXXXXXXXXXXXXXXXXXXXXXXXXXXXXXXXXXXXXXXo.",
" X                                                                              o.",
" X                                                                              o.",
" X                                                                              o.",
" X   OOOOOOOOOOOOOOOOOOOOOOOOOOOOOOOOOOOOOOOOOOOOOOOOOOOOOOOOOOOOOOOOOOOOOOOO   o.",
" X   OOOOOOOOOOOOOOOOOOOOOOOOOOOOOOOOOOOOOOOOOOOOOOOOOOOOOOOOOOOOOOOOOOOOOOOO   o.",
" X   OOOOOOO++++++OOOOOOOOOOOOOOOOOOOOOOOOOOOOOOOOOOOOOOOOOXXXXXXXXXXXXXXX.OO   o.",
" X   OOOOO++XXXX..++OOOOOOOOOOOOOOOOOOOOOOOOOOOOOOOOOOOOOOOX@@@@@@@@@@@@@o.OO   o.",
" X   OOOO+XXXX..XXX.+OOOOOOOXXXXXOOOOXXXXXOOOOXXXXXOOOOOOOOX@@@@@@@@@@@@@o.OO   o.",
" X   OOOO+XXX....X.X+OOOOOOOXXOOXXOOOXXOOXXOOOXXOOXXOOOOOOOX@@@..@@@@..@@o.OO   o.",
" X   OOO+XX.######.XX+OOOOOOXXOOOXXOOXXOOOXXOOXXOOOXXOOOOOOX@@@@..@@..@@@o.OO   o.",
" X   OOO+XXXX....XXXX+OOOOOOXXOOOXXOOXXOOOXXOOXXOOOXXOOOOOOX@@@@@....@@@@o.OO   o.",
" X   OOO+XX.######.XX+OOOOOOXXOOOXXOOXXOOOXXOOXXOOOXXOOOOOOX@@@@@@..@@@@@o.OO   o.",
" X   OOO+..X......X..+OOOOOOXXOOOXXOOXXOOOXXOOXXOOOXXOOOOOOX@@@@@....@@@@o.OO   o.",
" X   OOO+XXX.####.XXX+OOOOOOXXOOOXXOOXXOOOXXOOXXOOOXXOOOOOOX@@@@..@@..@@@o.OO   o.",
" X   OOO+XX........XX+OOOOOOXXOOXXOOOXXOOXXOOOXXOOXXOOOOOOOX@@@..@@@@..@@o.OO   o.",
" X   OOOO+.XX.##.XX.++OOOOOOXXXXXOOOOXXXXXOOOOXXXXXOOOOOOOOX@@@@@@@@@@@@@o.OO   o.",
" X   OOOO+.XXX..XXX.++OOOOOOOOOOOOOOOOOOOOOOOOOOOOOOOOOOOOOX@@@@@@@@@@@@@o.OO   o.",
" X   OOOOO++OXXXX+++++OOOOOOOOOOOOOOOOOOOOOOOOOOOOOOOOOOOOOXoooooooooooooo.OO   o.",
" X   OOOOOOO++++++++++OOOOOOOOOOOOOOOOOOOOOOOOOOOOOOOOOOOOO................OO   o.",
" X   OOOOOOOOOOOOOOOOOOOOOOOOOOOOOOOOOOOOOOOOOOOOOOOOOOOOOOOOOOOOOOOOOOOOOOOO   o.",
" X   @@@@@@@@@@@@@@@@@@@@@@@@@@@@@@@@@@@@@@@@@@@@@@@@@@@@@@@@@@@@@@@@@@@@@@@@   o.",
" X   @XXXXXXXXXXXXXXXXXXXXXXXXXXXXXXXXXXXXXXXXXXXXXXXXXXXXXXXXXXXXXXXXXXXXXX@   o.",
" X   @X@@@@@@@@@@@@@@@@@@@@@@@@@@@@@@@@@@@@@@@@@@@@@@@@@@@@@@@@@@@@@@@@@@@@$@   o.",
" X   @X@@@@@@@@@@@@@@@@@@@@@@@@@@@@@@@@@@@@@@@@@@@@@@@@@@@@@@@@@@@@@@@@@@@@$@   o.",
" X   @X@@@@@@@@@@@@@@@@@@@@@@@@@@@@@@@@@@@@@@@@@@@@@@@@@@@@@@@@@@@@@@@@@@@@$@   o.",
" X   @X@@@@@@@@@@@@@@@@@@@@@@@@@@@@@@@@@@@@@@@@@@@@@@@@@@@@@@@@@@@@@@@@@@@@$@   o.",
" X   @X@@@@@@@@@@@@@@@@@@@@@@@%%%%%%@@@@@@@@@@@@@@@@@@@@@@@@@@@@@@@@@@@@@@@$@   o.",
" X   @X@@@@@@@@@@@@@@@@@@@@@@@%%@@@%%@@@@@@@@@@@@@@@@@@@@@@@@@@@@@@@@@@@@@@$@   o.",
" X   @X@@@@@@@@@@@@@@@@@@@@@@@%%@@@%%@%%@@%%@%%@%%@@@@@@@@@@@@@@@@@@@@@@@@@$@   o.",
" X   @X@@@@@@@@@@@@@@@@@@@@@@@%%@@@%%@%%@@%%@%%%@%%@@@@@@@@@@@@@@@@@@@@@@@@$@   o.",
" X   @X@@@@@@@@@@@@@@@@@@@@@@@%%%%%%@@%%@@%%@%%@@%%@@@@@@@@@@@@@@@@@@@@@@@@$@   o.",
" X   @X@@@@@@@@@@@@@@@@@@@@@@@%%@@%%@@%%@@%%@%%@@%%@@@@@@@@@@@@@@@@@@@@@@@@$@   o.",
" X   @X@@@@@@@@@@@@@@@@@@@@@@@%%@@@%%@%%@@%%@%%@@%%@@@@@@@@@@@@@@@@@@@@@@@@$@   o.",
" X   @X@@@@@@@@@@@@@@@@@@@@@@@%%@@@%%@%%@%%%@%%@@%%@@@@@@@@@@@@@@@@@@@@@@@@$@   o.",
" X   @X@@@@@@@@@@@@@@@@@@@@@@@%%@@@%%@@%%@%%@%%@@%%@@@@@@@@@@@@@@@@@@@@@@@@$@   o.",
" X   @X@@@@@@@@@@@@@@@@@@@@@@@@@@@@@@@@@@@@@@@@@@@@@@@@@@@@@@@@@@@@@@@@@@@@$@   o.",
" X   @X@@@@@@@@@@@@@@@@@@@@@@@@@@@@@@@@@@@@@@@@@@@@@@@@@@@@@@@@@@@@@@@@@@@@$@   o.",
" X   @X@@@@@@@@@@@@@@@@@@@@@@@@@@@@@@@@@@@@@@@@@@@@@@@@@@@@@@@@@@@@@@@@@@@@$@   o.",
" X   @X@@@@@@@@@@@@@@@@@@@@@@@@@@@@@@@@@@@@@@@@@@@@@@@@@@@@@@@@@@@@@@@@@@@@$@   o.",
" X   @X@@@@@@@@@@@@@@@@@@@@@@@@@@@@@@@@@@@@@@@@@@@@@@@@@@@@@@@@@@@@@@@@@@@@$@   o.",
" X   @X$$$$$$$$$$$$$$$$$$$$$$$$$$$$$$$$$$$$$$$$$$$$$$$$$$$$$$$$$$$$$$$$$$$$$@   o.",
" X   @@@@@@@@@@@@@@@@@@@@@@@@@@@@@@@@@@@@@@@@@@@@@@@@@@@@@@@@@@@@@@@@@@@@@@@@   o.",
" X   @@@@@@@@@@@@@@@@@@@@@@@@@@@@@@@@@@@@@@@@@@@@@@@@@@@@@@@@@@@@@@@@@@@@@@@@   o.",
" X   @XXXXXXXXXXXXXXXXXXXXXXXXXXXXXXXXXXXXXXXXXXXXXXXXXXXXXXXXXXXXXXXXXXXXXX@   o.",
" X   @X@@@@@@@@@@@@@@@@@@@@@@@@@@@@@@@@@@@@@@@@@@@@@@@@@@@@@@@@@@@@@@@@@@@@$@   o.",
" X   @X@@@@@@@@@@@@@@@@@@@@@@@@@@@@@@@@@@@@@@@@@@@@@@@@@@@@@@@@@@@@@@@@@@@@$@   o.",
" X   @X@@@@@@@@@@@@@@@@@@@@@@@@@@@@@@@@@@@@@@@@@@@@@@@@@@@@@@@@@@@@@@@@@@@@$@   o.",
" X   @X@@@@@@@@@@@@@@@@@@@@@@@@@@@@@@@@@@@@@@@@@@@@@@@@@@@@@@@@@@@@@@@@@@@@$@   o.",
" X   @X@@@@@@@@@&&@@@@@@@@@&&@@@@@@@@@@@@@@@@@@@@@@@@@@@@@@@@@@&&@@@@@@@@@@$@   o.",
" X   @X@@@@@@@@@&&@@@@@@@@@&&@@@@@@@@@@@@@@@@@@@@@@@@@@@@@@@@@@&&@@@@@@@@@@$@   o.",
" X   @X@@@@@@@@@&&@&&@&&@@&&&&@@&&&&@@&&@&&&&@&&&&@@&&@&&@&&@@&&&&@@@@@@@@@$@   o.",
" X   @X@@@@@@@@@&&@&&&@&&@@&&@@&&@@&&@&&&&&&&&&&&&@@&&@&&&@&&@@&&@@@@@@@@@@$@   o.",
" X   @X@@@@@@@@@&&@&&@@&&@@&&@@&&@@&&@&&&@@&&&@@&&@@&&@&&@@&&@@&&@@@@@@@@@@$@   o.",
" X   @X@@@@@@@@@&&@&&@@&&@@&&@@&&&&&&@&&@@@&&@@@&&@@&&@&&@@&&@@&&@@@@@@@@@@$@   o.",
" X   @X@@@@@@@@@&&@&&@@&&@@&&@@&&@@@@@&&@@@&&@@@&&@@&&@&&@@&&@@&&@@@@@@@@@@$@   o.",
" X   @X@@@@@@@@@&&@&&@@&&@@&&@&&&@@&&@&&@@@&&@@@&&@&&&@&&&@&&@@&&@&@@@@@@@@$@   o.",
" X   @X@@@@@@@@@&&@&&@@&&@@@&&@@&&&&@@&&@@@&&@@@@&&@&&@&&@&&@@@@&&@@@@@@@@@$@   o.",
" X   @X@@@@@@@@@@@@@@@@@@@@@@@@@@@@@@@@@@@@@@@@@@@@@@@@&&@@@@@@@@@@@@@@@@@@$@   o.",
" X   @X@@@@@@@@@@@@@@@@@@@@@@@@@@@@@@@@@@@@@@@@@@@@@@@@&&@@@@@@@@@@@@@@@@@@$@   o.",
" X   @X@@@@@@@@@@@@@@@@@@@@@@@@@@@@@@@@@@@@@@@@@@@@@@@@&&@@@@@@@@@@@@@@@@@@$@   o.",
" X   @X@@@@@@@@@@@@@@@@@@@@@@@@@@@@@@@@@@@@@@@@@@@@@@@@@@@@@@@@@@@@@@@@@@@@$@   o.",
" X   @X@@@@@@@@@@@@@@@@@@@@@@@@@@@@@@@@@@@@@@@@@@@@@@@@@@@@@@@@@@@@@@@@@@@@$@   o.",
" X   @X$$$$$$$$$$$$$$$$$$$$$$$$$$$$$$$$$$$$$$$$$$$$$$$$$$$$$$$$$$$$$$$$$$$$$@   o.",
" X   @@@@@@@@@@@@@@@@@@@@@@@@@@@@@@@@@@@@@@@@@@@@@@@@@@@@@@@@@@@@@@@@@@@@@@@@   o.",
" X   @@@@@@@@@@@@@@@@@@@@@@@@@@@@@@@@@@@@@@@@@@@@@@@@@@@@@@@@@@@@@@@@@@@@@@@@   o.",
" X   @XXXXXXXXXXXXXXXXXXXXXXXXXXXXXXXXXX@@XXXXXXXXXXXXXXXXXXXXXXXXXXXXXXXXXX@   o.",
" X   @X@@@@@@@@@@@@@@@@@@@@@@@@@@@@@@@@$@@X@@@@@@@@@@@@@@@@@@@@@@@@@@@@@@@@$@   o.",
" X   @X@@@@@@@@@@@@@@@@@@@@@@@@@@@@@@@@$@@X@@@@@@@@@@@@@@@@@@@@@@@@@@@@@@@@$@   o.",
" X   @X@@@@@@@@@@@@@@@@@@@@@@@@@@@@@@@@$@@X@@@@@@@@@@@@@@@@@@@@@@@@@@@@@@@@$@   o.",
" X   @X@@@@@@@@@@@@@@@@@@@@@@@@@@@@@@@@$@@X@@@@@@@@@@@@@@@@@@@@@@@@@@@@@@@@$@   o.",
" X   @X@@@@@@@@@@@@@@@@@@@@@@@@@@@@@@@@$@@X@@@@@@@@@@@@@@@@@@@@@@@@@@@@@@@@$@   o.",
" X   @X@@@@@@@...@@@.@@@@@@@@@@@@@@@@@@$@@X@@@@@@...@@@.@@@@@@@@@@@@@.@@@@@$@   o.",
" X   @X@@@@@@.@@@.@@.@@@@@@@@@@@@@@@@@@$@@X@@@@@.@@@.@@.@@@@@@@@@@@@@@@@@@@$@   o.",
" X   @X@@@@@@.@@@@@...@@..@@.@..@@@@@@@$@@X@@@@@.@@@@@...@@..@@.@..@@.@@@@@$@   o.",
" X   @X@@@@@@@...@@@.@@.@@.@..@@.@@@@@@$@@X@@@@@@...@@@.@@.@@.@..@@.@.@@@@@$@   o.",
" X   @X@@@@@@@@@@.@@.@@....@.@@@.@@@@@@$@@X@@@@@@@@@.@@.@@....@.@@@.@.@@@@@$@   o.",
" X   @X@@@@@@.@@@.@@.@@.@@@@.@@@.@@@@@@$@@X@@@@@.@@@.@@.@@.@@@@.@@@.@.@@@@@$@   o.",
" X   @X@@@@@@.@@@.@@.@@.@@.@..@@.@@@@@@$@@X@@@@@.@@@.@@.@@.@@.@..@@.@.@@@@@$@   o.",
" X   @X@@@@@@@...@@@..@@..@@.@..@@@@@@@$@@X@@@@@@...@@@..@@..@@.@..@@.@@@@@$@   o.",
" X   @X@@@@@@@@@@@@@@@@@@@@@.@@@@@@@@@@$@@X@@@@@@@@@@@@@@@@@@@@.@@@@@@@@@@@$@   o.",
" X   @X@@@@@@@@@@@@@@@@@@@@@.@@@@@@@@@@$@@X@@@@@@@@@@@@@@@@@@@@.@@@@@@@@@@@$@   o.",
" X   @X@@@@@@@@@@@@@@@@@@@@@@@@@@@@@@@@$@@X@@@@@@@@@@@@@@@@@@@@@@@@@@@@@@@@$@   o.",
" X   @X@@@@@@@@@@@@@@@@@@@@@@@@@@@@@@@@$@@X@@@@@@@@@@@@@@@@@@@@@@@@@@@@@@@@$@   o.",
" X   @X@@@@@@@@@@@@@@@@@@@@@@@@@@@@@@@@$@@X@@@@@@@@@@@@@@@@@@@@@@@@@@@@@@@@$@   o.",
" X   @X$$$$$$$$$$$$$$$$$$$$$$$$$$$$$$$$$@@X$$$$$$$$$$$$$$$$$$$$$$$$$$$$$$$$$@   o.",
" X   @@@@@@@@@@@@@@@@@@@@@@@@@@@@@@@@@@@@@@@@@@@@@@@@@@@@@@@@@@@@@@@@@@@@@@@@   o.",
" X   @@@@@@@@@@@@@@@@@@@@@@@@@@@@@@@@@@@@@@@@@@@@@@@@@@@@@@@@@@@@@@@@@@@@@@@@   o.",
" X   @XXXXXXXXXXXXXXXXXXXXXXXXXXXXXXXXXX@@XXXXXXXXXXXXXXXXXXXXXXXXXXXXXXXXXX@   o.",
" X   @X@@@@@@@@@@@@@@@@@@@@@@@@@@@@@@@@$@@X@@@@@@@@@@@@@@@@@@@@@@@@@@@@@@@@$@   o.",
" X   @X@@@@@@@@@@@@@@@@@@@@@@@@@@@@@@@@$@@X@@@@@@@@@@@@@@@@@@@@@@@@@@@@@@@@$@   o.",
" X   @X@@@@@@@@@@@@@@@@@@@@@@@@@@@@@@@@$@@X@@@@@@@@@@@@@@@@@@@@@@@@@@@@@@@@$@   o.",
" X   @X@@@@@@@@@@@@@@@@@@@@@@@@@@@@@@@@$@@X@@@@@@@@@@@@@@@@@@@@@@@@@@@@@@@@$@   o.",
" X   @X@@@@@@@@@@@@@@@@@@@@@@@@@@@@@@@@$@@X@@@@@@@@@@@@@@@@@@@@@@@@@@@@@@@@$@   o.",
" X   @X@@@@@..@@@.@@@@@@@@@@@@@.@@@@@@@$@@X@@@@..@@@.@@@@@@@@@@@@@.@@.@@@@@$@   o.",
" X   @X@@@@@..@@@.@@@@@@@@@@@@@.@@@@@@@$@@X@@@@..@@@.@@@@@@@@@@@@@.@@@@@@@@$@   o.",
" X   @X@@@@@.@.@@.@@..@@.@@@.@...@@@@@@$@@X@@@@.@.@@.@@..@@.@@@.@...@.@@@@@$@   o.",
" X   @X@@@@@.@.@@.@.@@.@@.@.@@@.@@@@@@@$@@X@@@@.@.@@.@.@@.@@.@.@@@.@@.@@@@@$@   o.",
" X   @X@@@@@.@@.@.@....@@@.@@@@.@@@@@@@$@@X@@@@.@@.@.@....@@@.@@@@.@@.@@@@@$@   o.",
" X   @X@@@@@.@@.@.@.@@@@@.@.@@@.@@@@@@@$@@X@@@@.@@.@.@.@@@@@.@.@@@.@@.@@@@@$@   o.",
" X   @X@@@@@.@@@..@.@@.@.@@@.@@.@@@@@@@$@@X@@@@.@@@..@.@@.@.@@@.@@.@@.@@@@@$@   o.",
" X   @X@@@@@.@@@..@@..@@.@@@.@@..@@@@@@$@@X@@@@.@@@..@@..@@.@@@.@@..@.@@@@@$@   o.",
" X   @X@@@@@@@@@@@@@@@@@@@@@@@@@@@@@@@@$@@X@@@@@@@@@@@@@@@@@@@@@@@@@@@@@@@@$@   o.",
" X   @X@@@@@@@@@@@@@@@@@@@@@@@@@@@@@@@@$@@X@@@@@@@@@@@@@@@@@@@@@@@@@@@@@@@@$@   o.",
" X   @X@@@@@@@@@@@@@@@@@@@@@@@@@@@@@@@@$@@X@@@@@@@@@@@@@@@@@@@@@@@@@@@@@@@@$@   o.",
" X   @X@@@@@@@@@@@@@@@@@@@@@@@@@@@@@@@@$@@X@@@@@@@@@@@@@@@@@@@@@@@@@@@@@@@@$@   o.",
" X   @X@@@@@@@@@@@@@@@@@@@@@@@@@@@@@@@@$@@X@@@@@@@@@@@@@@@@@@@@@@@@@@@@@@@@$@   o.",
" X   @X$$$$$$$$$$$$$$$$$$$$$$$$$$$$$$$$$@@X$$$$$$$$$$$$$$$$$$$$$$$$$$$$$$$$$@   o.",
" X   @@@@@@@@@@@@@@@@@@@@@@@@@@@@@@@@@@@@@@@@@@@@@@@@@@@@@@@@@@@@@@@@@@@@@@@@   o.",
" X   @@@@@@@@@@@@@@@@@@@@@@@@@@@@@@@@@@@@@@@@@@@@@@@@@@@@@@@@@@@@@@@@@@@@@@@@   o.",
" X   @XXXXXXXXXXXXXXXXXXXXXXXXXXXXXXXXXX@@XXXXXXXXXXXXXXXXXXXXXXXXXXXXXXXXXX@   o.",
" X   @X@@@@@@@@@@@@@@@@@@@@@@@@@@@@@@@@$@@X@@@@@@@@@@@@@@@@@@@@@@@@@@@@@@@@$@   o.",
" X   @X@@@@@@@@@@@@@@@@@@@@@@@@@@@@@@@@$@@X@@@@@@@@@@@@@@@@@@@@@@@@@@@@@@@@$@   o.",
" X   @X@@@@@@@@@@@@@@@@@@@@@@@@@@@@@@@@$@@X@@@@@@@@@@@@@@@@@@@@@@@@@@@@@@@@$@   o.",
" X   @X@@@@@@@@@@@@@@@@@@@@@@@@@@@@@@@@$@@X@@@@@@@@@@@@@@@@@@@@@@@@@@@@@@@@$@   o.",
" X   @X@@@@@@@@@@@@@@@@@@@@@@@@@@@@@@@@$@@X@@@@@@@@@@@@@@@@@@@@@@@@@@@@@@@@$@   o.",
" X   @X@@@@@@.@@@@.@@@@@@@@.@@.@.@@@@@@$@@X@@@......@@@@@@@.@@@@@@.@@@@@@@@$@   o.",
" X   @X@@@@@@.@@@@.@@@@@@@@.@@@@.@@@@@@$@@X@@@.@@@@@@@@@@@@@@@@@@@.@@@@@@@@$@   o.",
" X   @X@@@@@@.@@@@.@.@..@@...@.@.@@@@@@$@@X@@@.@@@@.@.@..@@.@@..@@.@..@@@@@$@   o.",
" X   @X@@@@@@.@@@@.@..@@.@@.@@.@.@@@@@@$@@X@@@....@.@..@@.@.@.@@.@..@@.@@@@$@   o.",
" X   @X@@@@@@.@@@@.@.@@@.@@.@@.@.@@@@@@$@@X@@@.@@@@.@.@@@.@.@@..@@.@@@.@@@@$@   o.",
" X   @X@@@@@@.@@@@.@.@@@.@@.@@.@.@@@@@@$@@X@@@.@@@@.@.@@@.@.@@@@.@.@@@.@@@@$@   o.",
" X   @X@@@@@@.@@@@.@.@@@.@@.@@.@.@@@@@@$@@X@@@.@@@@.@.@@@.@.@.@@.@.@@@.@@@@$@   o.",
" X   @X@@@@@@@....@@.@@@.@@..@.@.@@@@@@$@@X@@@.@@@@.@.@@@.@.@@..@@.@@@.@@@@$@   o.",
" X   @X@@@@@@@@@@@@@@@@@@@@@@@@@@@@@@@@$@@X@@@@@@@@@@@@@@@@@@@@@@@@@@@@@@@@$@   o.",
" X   @X@@@@@@@@@@@@@@@@@@@@@@@@@@@@@@@@$@@X@@@@@@@@@@@@@@@@@@@@@@@@@@@@@@@@$@   o.",
" X   @X@@@@@@@@@@@@@@@@@@@@@@@@@@@@@@@@$@@X@@@@@@@@@@@@@@@@@@@@@@@@@@@@@@@@$@   o.",
" X   @X@@@@@@@@@@@@@@@@@@@@@@@@@@@@@@@@$@@X@@@@@@@@@@@@@@@@@@@@@@@@@@@@@@@@$@   o.",
" X   @X@@@@@@@@@@@@@@@@@@@@@@@@@@@@@@@@$@@X@@@@@@@@@@@@@@@@@@@@@@@@@@@@@@@@$@   o.",
" X   @X$$$$$$$$$$$$$$$$$$$$$$$$$$$$$$$$$@@X$$$$$$$$$$$$$$$$$$$$$$$$$$$$$$$$$@   o.",
" X   @@@@@@@@@@@@@@@@@@@@@@@@@@@@@@@@@@@@@@@@@@@@@@@@@@@@@@@@@@@@@@@@@@@@@@@@   o.",
" X   @@@@@@@@@@@@@@@@@@@@@@@@@@@@@@@@@@@@@@@@@@@@@@@@@@@@@@@@@@@@@@@@@@@@@@@@   o.",
" X   @XXXXXXXXXXXXXXXXXXXXXXXXXXXXXXXXXX@@XXXXXXXXXXXXXXXXXXXXXXXXXXXXXXXXXX@   o.",
" X   @X@@@@@@@@@@@@@@@@@@@@@@@@@@@@@@@@$@@X@@@@@@@@@@@@@@@@@@@@@@@@@@@@@@@@$@   o.",
" X   @X@@@@@@@@@@@@@@@@@@@@@@@@@@@@@@@@$@@X@@@@@@@@@@@@@@@@@@@@@@@@@@@@@@@@$@   o.",
" X   @X@@@@@@@@@@@@@@@@@@@@@@@@@@@@@@@@$@@X@@@@@@@@@@@@@@@@@@@@@@@@@@@@@@@@$@   o.",
" X   @X@@@@@@@@@@@@@@@@@@@@@@@@@@@@@@@@$@@X@@@@@@@@@@@@@@@@@@@@@@@@@@@@@@@@$@   o.",
" X   @X@@@@@@@@@@@@@@@@@@@@@@@@@@@@@@@@$@@X@@@@@@@@@@@@@@@@@@@@@@@@@@@@@@@@$@   o.",
" X   @X@@@@@@....@@@@@@@@@@@@@@@.@@@@@@$@@X@@@@@@@@@@.@@@.@.@.@.@@@@@@@@@@@$@   o.",
" X   @X@@@@@.@@@@.@@@@@@@@@@@@@@.@@@@@@$@@X@@@@@@@@@@.@@.@@@@.@.@@@@@@@@@@@$@   o.",
" X   @X@@@@@.@@@@@@@...@@.@..@@...@@@@@$@@X@@@@@@@@@@.@.@@@.@.@.@@@@@@@@@@@$@   o.",
" X   @X@@@@@.@@@@@@.@@@.@..@@.@@.@@@@@@$@@X@@@@@@@@@@...@@@.@.@.@@@@@@@@@@@$@   o.",
" X   @X@@@@@.@@@@@@.@@@.@.@@@.@@.@@@@@@$@@X@@@@@@@@@@.@@.@@.@.@.@@@@@@@@@@@$@   o.",
" X   @X@@@@@.@@@@@@.@@@.@.@@@.@@.@@@@@@$@@X@@@@@@@@@@.@@.@@.@.@.@@@@@@@@@@@$@   o.",
" X   @X@@@@@.@@@@.@.@@@.@.@@@.@@.@@@@@@$@@X@@@@@@@@@@.@@@.@.@.@.@@@@@@@@@@@$@   o.",
" X   @X@@@@@@....@@@...@@.@@@.@@..@@@@@$@@X@@@@@@@@@@.@@@.@.@.@.@@@@@@@@@@@$@   o.",
" X   @X@@@@@@@@@@@@@@@@@@@@@@@@@@@@@@@@$@@X@@@@@@@@@@@@@@@@@@@@@@@@@@@@@@@@$@   o.",
" X   @X@@@@@@@@@@@@@@@@@@@@@@@@@@@@@@@@$@@X@@@@@@@@@@@@@@@@@@@@@@@@@@@@@@@@$@   o.",
" X   @X@@@@@@@@@@@@@@@@@@@@@@@@@@@@@@@@$@@X@@@@@@@@@@@@@@@@@@@@@@@@@@@@@@@@$@   o.",
" X   @X@@@@@@@@@@@@@@@@@@@@@@@@@@@@@@@@$@@X@@@@@@@@@@@@@@@@@@@@@@@@@@@@@@@@$@   o.",
" X   @X@@@@@@@@@@@@@@@@@@@@@@@@@@@@@@@@$@@X@@@@@@@@@@@@@@@@@@@@@@@@@@@@@@@@$@   o.",
" X   @X$$$$$$$$$$$$$$$$$$$$$$$$$$$$$$$$$@@X$$$$$$$$$$$$$$$$$$$$$$$$$$$$$$$$$@   o.",
" X   @@@@@@@@@@@@@@@@@@@@@@@@@@@@@@@@@@@@@@@@@@@@@@@@@@@@@@@@@@@@@@@@@@@@@@@@   o.",
" X   @@@@@@@@@@@@@@@@@@@@@@@@@@@@@@@@@@@@@@@@@@@@@@@@@@@@@@@@@@@@@@@@@@@@@@@@   o.",
" X   @XXXXXXXXXXXXXXXXXXXXXXXXXXXXXXXXXX@@XXXXXXXXXXXXXXXXXXXXXXXXXXXXXXXXXX@   o.",
" X   @X@@@@@@@@@@@@@@@@@@@@@@@@@@@@@@@@$@@X@@@@@@@@@@@@@@@@@@@@@@@@@@@@@@@@$@   o.",
" X   @X@@@@@@@@@@@@@@@@@@@@@@@@@@@@@@@@$@@X@@@@@@@@@@@@@@@@@@@@@@@@@@@@@@@@$@   o.",
" X   @X@@@@@@@@@@@@@@@@@@@@@@@@@@@@@@@@$@@X@@@@@@@@@@@@@@@@@@@@@@@@@@@@@@@@$@   o.",
" X   @X@@@@@@@@@@@@@@@@@@@@@@@@@@@@@@@@$@@X@@@@@@@@@@@@@@@@@@@@@@@@@@@@@@@@$@   o.",
" X   @X@@@@@@@@@@@@@@@@@@@@@@@@@@@@@@@@$@@X@@@@@@@@@@@@@@@@@@@@@@@@@@@@@@@@$@   o.",
" X   @X@@@@@@@@@@.@@@@.@@@@@@@@@@@@@@@@$@@X@@@....@@@@@@@@@@@@@@@@@@@@@@@@@$@   o.",
" X   @X@@@@@@@@@@.@@@@.@@@@@@@@@@@@@@@@$@@X@@@.@@@.@@@@@@@@@@@@@@@@@@@@@@@@$@   o.",
" X   @X@@@@@@@@@@.@@@@.@.@..@@@@@@@@@@@$@@X@@@.@@@@.@@...@@.@@.@@.@.@..@@@@$@   o.",
" X   @X@@@@@@@@@@.@@@@.@..@@.@@@@@@@@@@$@@X@@@.@@@@.@.@@@.@.@@.@@.@..@@.@@@$@   o.",
" X   @X@@@@@@@@@@.@@@@.@.@@@.@@@@@@@@@@$@@X@@@.@@@@.@.@@@.@@.@.@.@@.@@@.@@@$@   o.",
" X   @X@@@@@@@@@@.@@@@.@.@@@.@@@@@@@@@@$@@X@@@.@@@@.@.@@@.@@.@.@.@@.@@@.@@@$@   o.",
" X   @X@@@@@@@@@@.@@@@.@..@@.@@@@@@@@@@$@@X@@@.@@@.@@.@@@.@@@.@.@@@.@@@.@@@$@   o.",
" X   @X@@@@@@@@@@@....@@.@..@@@@@@@@@@@$@@X@@@....@@@@...@@@@.@.@@@.@@@.@@@$@   o.",
" X   @X@@@@@@@@@@@@@@@@@.@@@@@@@@@@@@@@$@@X@@@@@@@@@@@@@@@@@@@@@@@@@@@@@@@@$@   o.",
" X   @X@@@@@@@@@@@@@@@@@.@@@@@@@@@@@@@@$@@X@@@@@@@@@@@@@@@@@@@@@@@@@@@@@@@@$@   o.",
" X   @X@@@@@@@@@@@@@@@@@@@@@@@@@@@@@@@@$@@X@@@@@@@@@@@@@@@@@@@@@@@@@@@@@@@@$@   o.",
" X   @X@@@@@@@@@@@@@@@@@@@@@@@@@@@@@@@@$@@X@@@@@@@@@@@@@@@@@@@@@@@@@@@@@@@@$@   o.",
" X   @X@@@@@@@@@@@@@@@@@@@@@@@@@@@@@@@@$@@X@@@@@@@@@@@@@@@@@@@@@@@@@@@@@@@@$@   o.",
" X   @X$$$$$$$$$$$$$$$$$$$$$$$$$$$$$$$$$@@X$$$$$$$$$$$$$$$$$$$$$$$$$$$$$$$$$@   o.",
" X   @@@@@@@@@@@@@@@@@@@@@@@@@@@@@@@@@@@@@@@@@@@@@@@@@@@@@@@@@@@@@@@@@@@@@@@@   o.",
" X   @@@@@@@@@@@@@@@@@@@@@@@@@@@@@@@@@@@@@@@@@@@@@@@@@@@@@@@@@@@@@@@@@@@@@@@@   o.",
" X   @XXXXXXXXXXXXXXXXXXXXXXXXXXXXXXXXXX@@XXXXXXXXXXXXXXXXXXXXXXXXXXXXXXXXXX@   o.",
" X   @X@@@@@@@@@@@@@@@@@@@@@@@@@@@@@@@@$@@X@@@@@@@@@@@@@@@@@@@@@@@@@@@@@@@@$@   o.",
" X   @X@@@@@@@@@@@@@@@@@@@@@@@@@@@@@@@@$@@X@@@@@@@@@@@@@@@@@@@@@@@@@@@@@@@@$@   o.",
" X   @X@@@@@@@@@@@@@@@@@@@@@@@@@@@@@@@@$@@X@@@@@@@@@@@@@@@@@@@@@@@@@@@@@@@@$@   o.",
" X   @X@@@@@@@@@@@@@@@@@@@@@@@@@@@@@@@@$@@X@@@@@@@@@@@@@@@@@@@@@@@@@@@@@@@@$@   o.",
" X   @X@@@@@@@@@@@@@@@@@@@@@@@@@@@@@@@@$@@X@@@@@@@@@@@@@@@@@@@@@@@@@@@@@@@@$@   o.",
" X   @X@@@@.@@@@.@@@@@@@@@@@.@@@@@@@@@@$@@X@@@@@....@@@@@@@@@@@.@@@@@@@@@@@$@   o.",
" X   @X@@@@.@@@@.@@@@@@@@@@@.@@@@@@@@@@$@@X@@@@@.@@@.@@@@@@@@@@.@@@@@@@@@@@$@   o.",
" X   @X@@@@.@@@@.@.@..@@@..@.@@...@@@@@$@@X@@@@@.@@@.@@..@@@..@.@@...@@@@@@$@   o.",
" X   @X@@@@.@@@@.@..@@.@.@@..@.@@@.@@@@$@@X@@@@@....@@.@@.@.@@..@.@@@.@@@@@$@   o.",
" X   @X@@@@.@@@@.@.@@@.@.@@@.@.@@@.@@@@$@@X@@@@@.@@@.@....@.@@@.@.@@@.@@@@@$@   o.",
" X   @X@@@@.@@@@.@.@@@.@.@@@.@.@@@.@@@@$@@X@@@@@.@@@.@.@@@@.@@@.@.@@@.@@@@@$@   o.",
" X   @X@@@@.@@@@.@.@@@.@.@@..@.@@@.@@@@$@@X@@@@@.@@@.@.@@.@.@@..@.@@@.@@@@@$@   o.",
" X   @X@@@@@....@@.@@@.@@..@.@@...@@@@@$@@X@@@@@.@@@.@@..@@@..@.@@...@@@@@@$@   o.",
" X   @X@@@@@@@@@@@@@@@@@@@@@@@@@@@@@@@@$@@X@@@@@@@@@@@@@@@@@@@@@@@@@@@@@@@@$@   o.",
" X   @X@@@@@@@@@@@@@@@@@@@@@@@@@@@@@@@@$@@X@@@@@@@@@@@@@@@@@@@@@@@@@@@@@@@@$@   o.",
" X   @X@@@@@@@@@@@@@@@@@@@@@@@@@@@@@@@@$@@X@@@@@@@@@@@@@@@@@@@@@@@@@@@@@@@@$@   o.",
" X   @X@@@@@@@@@@@@@@@@@@@@@@@@@@@@@@@@$@@X@@@@@@@@@@@@@@@@@@@@@@@@@@@@@@@@$@   o.",
" X   @X@@@@@@@@@@@@@@@@@@@@@@@@@@@@@@@@$@@X@@@@@@@@@@@@@@@@@@@@@@@@@@@@@@@@$@   o.",
" X   @X$$$$$$$$$$$$$$$$$$$$$$$$$$$$$$$$$@@X$$$$$$$$$$$$$$$$$$$$$$$$$$$$$$$$$@   o.",
" X   @@@@@@@@@@@@@@@@@@@@@@@@@@@@@@@@@@@@@@@@@@@@@@@@@@@@@@@@@@@@@@@@@@@@@@@@   o.",
" X   @@@@@@@@@@@@@@@@@@@@@@@@@@@@@@@@@@@@@@@@@@@@@@@@@@@@@@@@@@@@@@@@@@@@@@@@   o.",
" X   @XXXXXXXXXXXXXXXXXXXXXXXXXXXXXXXXXX@@XXXXXXXXXXXXXXXXXXXXXXXXXXXXXXXXXX@   o.",
" X   @X@@@@@@@@@@@@@@@@@@@@@@@@@@@@@@@@$@@X@@@@@@@@@@@@@@@@@@@@@@@@@@@@@@@@$@   o.",
" X   @X@@@@@@@@@@@@@@@@@@@@@@@@@@@@@@@@$@@X@@@@@@@@@@@@@@@@@@@@@@@@@@@@@@@@$@   o.",
" X   @X@@@@@@@@@@@@@@@@@@@@@@@@@@@@@@@@$@@X@@@@@@@@@@@@@@@@@@@@@@@@@@@@@@@@$@   o.",
" X   @X@@@@@@@@@@@@@@@@@@@@@@@@@@@@@@@@$@@X@@@@@@@@@@@@@@@@@@@@@@@@@@@@@@@@$@   o.",
" X   @X@@@@@@@@@@@@@@@@@@@@@@@@@@@@@@@@$@@X@@@@@@@@@@@@@@@@@@@@@@@@@@@@@@@@$@   o.",
" X   @X@@@@@@@.....@@@@@.@.@@.@@@@@@@@@$@@X@@@@@.@@@@@.@@@@@@.@@@@@@@@@@@@@$@   o.",
" X   @X@@@@@@@.@@@@@@@@@.@@@@.@@@@@@@@@$@@X@@@@@..@@@..@@@@@@.@@@@@@@@@@@@@$@   o.",
" X   @X@@@@@@@.@@@@@@..@.@.@...@@@@@@@@$@@X@@@@@..@@@..@...@@.@@.@@..@@@@@@$@   o.",
" X   @X@@@@@@@.....@.@@..@.@@.@@@@@@@@@$@@X@@@@@.@.@.@.@@@@.@.@.@@.@@.@@@@@$@   o.",
" X   @X@@@@@@@.@@@@@.@@@.@.@@.@@@@@@@@@$@@X@@@@@.@.@.@.@@...@..@@@....@@@@@$@   o.",
" X   @X@@@@@@@.@@@@@.@@@.@.@@.@@@@@@@@@$@@X@@@@@.@@.@@.@.@@.@.@.@@.@@@@@@@@$@   o.",
" X   @X@@@@@@@.@@@@@.@@..@.@@.@@@@@@@@@$@@X@@@@@.@@.@@.@.@@.@.@@.@.@@.@@@@@$@   o.",
" X   @X@@@@@@@.....@@..@.@.@@..@@@@@@@@$@@X@@@@@.@@.@@.@@..@..@@.@@..@@@@@@$@   o.",
" X   @X@@@@@@@@@@@@@@@@@@@@@@@@@@@@@@@@$@@X@@@@@@@@@@@@@@@@@@@@@@@@@@@@@@@@$@   o.",
" X   @X@@@@@@@@@@@@@@@@@@@@@@@@@@@@@@@@$@@X@@@@@@@@@@@@@@@@@@@@@@@@@@@@@@@@$@   o.",
" X   @X@@@@@@@@@@@@@@@@@@@@@@@@@@@@@@@@$@@X@@@@@@@@@@@@@@@@@@@@@@@@@@@@@@@@$@   o.",
" X   @X@@@@@@@@@@@@@@@@@@@@@@@@@@@@@@@@$@@X@@@@@@@@@@@@@@@@@@@@@@@@@@@@@@@@$@   o.",
" X   @X@@@@@@@@@@@@@@@@@@@@@@@@@@@@@@@@$@@X@@@@@@@@@@@@@@@@@@@@@@@@@@@@@@@@$@   o.",
" X   @X$$$$$$$$$$$$$$$$$$$$$$$$$$$$$$$$$@@X$$$$$$$$$$$$$$$$$$$$$$$$$$$$$$$$$@   o.",
" X   @@@@@@@@@@@@@@@@@@@@@@@@@@@@@@@@@@@@@@@@@@@@@@@@@@@@@@@@@@@@@@@@@@@@@@@@   o.",
" X                                                                              o.",
" X                                                                              o.",
" X                                                                              o.",
" oooooooooooooooooooooooooooooooooooooooooooooooooooooooooooooooooooooooooooooooo.",
".................................................................................."};
