#define cross_width 15
#define cross_height 15
static unsigned char cross_bits[] = {
   0x06, 0x30, 0x07, 0x70, 0xef, 0x7b, 0x38, 0x0e, 0x04, 0x10, 0x74, 0x17,
   0x74, 0x17, 0x8c, 0x18, 0x18, 0x0c, 0x10, 0x04, 0xbc, 0x1e, 0x6f, 0x7b,
   0x06, 0x30, 0x04, 0x10, 0x00, 0x00};
