#define ddd_width 48
#define ddd_height 48
static unsigned char ddd_bits[] = {
 0x00,0x00,0x01,0x20,0x00,0x00,0x00,0x00,0x01,0x30,0x00,0x00,0x00,0x00,0x02,
 0x10,0x00,0x00,0x00,0x00,0x06,0x08,0x00,0x00,0x18,0x00,0x0c,0x0c,0x00,0x00,
 0x60,0x00,0x08,0x02,0x00,0x02,0x80,0x00,0x50,0x01,0x80,0x01,0x00,0x01,0xa0,
 0x00,0x40,0x00,0x00,0x02,0xb0,0x01,0x30,0x00,0x00,0x06,0x13,0x19,0x1c,0x00,
 0x00,0x04,0x1d,0x17,0x04,0x00,0x00,0x8c,0x11,0x11,0x03,0x00,0x00,0xf0,0xe1,
 0x10,0x01,0x00,0x00,0x60,0x03,0xd8,0x00,0x00,0x00,0x00,0x07,0x7c,0x00,0x00,
 0x00,0x00,0xfc,0x07,0x00,0x00,0x00,0x00,0x04,0x04,0x00,0x00,0x00,0x00,0x1f,
 0x1f,0x00,0x00,0x00,0x80,0xe0,0x2f,0x07,0x00,0x00,0xc3,0x78,0xf0,0x0f,0x00,
 0x80,0xff,0x0c,0x86,0x18,0x00,0xc0,0xb0,0xe7,0x3f,0x31,0x00,0x40,0x18,0x33,
 0x7f,0x32,0x00,0x60,0x08,0x01,0x00,0x24,0x00,0x60,0xfc,0x01,0x00,0xc8,0x00,
 0x30,0xc4,0x00,0x00,0x88,0x01,0x18,0xc6,0xc6,0xff,0x0b,0x06,0x88,0x65,0xe6,
 0xff,0x1b,0x18,0xc4,0x7d,0xfe,0xff,0x17,0x00,0x43,0x64,0x00,0x00,0x10,0x00,
 0x60,0x64,0x00,0x00,0x10,0x00,0x60,0x68,0x00,0x00,0x30,0x00,0x20,0xf8,0xfe,
 0xff,0x6b,0x00,0x20,0xc8,0xfe,0xff,0x6b,0x00,0x20,0xd8,0xfe,0xff,0xcb,0x00,
 0x20,0xf0,0x01,0x00,0x9c,0x00,0x60,0xa0,0x03,0x00,0xbe,0x00,0x60,0x60,0xc7,
 0x1f,0xbf,0x00,0x60,0xc0,0x1f,0x87,0x7f,0x00,0x40,0x80,0x7c,0xf0,0x7f,0x00,
 0x20,0x00,0xff,0xff,0xff,0x00,0x20,0x00,0xe4,0x9f,0xff,0x01,0x10,0x00,0x88,
 0x00,0xfe,0x03,0x0c,0x00,0x70,0x00,0xf8,0x07,0x04,0x00,0x00,0x00,0xf0,0x0f,
 0x00,0x00,0x00,0x00,0xe0,0x1f,0x00,0x00,0x00,0x00,0xc0,0x3f,0x00,0x00,0x00,
 0x00,0x80,0x7f};
