#define dddsplash_width 410
#define dddsplash_height 140
static unsigned char dddsplash_bits[] = {
 0x00,0x00,0x00,0x00,0x00,0x00,0x00,0x00,0x00,0x00,0x00,0x00,0x00,0x00,0x00,
 0x00,0x00,0x00,0x00,0x00,0x00,0x00,0x00,0x00,0x00,0x00,0x00,0x00,0x00,0x00,
 0x00,0x00,0x00,0x00,0x00,0x00,0x00,0x00,0x00,0x00,0x00,0x00,0x00,0x00,0x00,
 0x00,0x00,0x00,0x00,0x00,0x00,0x02,0x00,0x00,0x00,0x00,0x00,0x00,0x00,0x00,
 0x00,0x00,0x00,0x00,0x00,0x00,0x00,0x00,0x00,0x00,0x00,0x00,0x00,0x00,0x00,
 0x00,0x00,0x00,0x00,0x00,0x00,0x00,0x00,0x00,0x00,0x00,0x00,0x00,0x00,0x00,
 0x00,0x00,0x00,0x00,0x00,0x00,0x00,0x00,0x00,0x00,0x00,0x00,0x00,0x03,0x00,
 0x00,0x00,0x00,0x00,0x00,0x00,0x00,0x00,0x00,0x00,0x00,0x00,0x00,0x00,0x00,
 0x00,0x00,0x00,0x00,0x00,0x00,0x00,0x00,0x00,0x00,0x00,0x00,0x00,0x00,0x00,
 0x00,0x00,0x00,0x00,0x00,0x00,0x00,0x00,0x00,0x00,0x00,0x00,0x00,0x00,0x00,
 0x00,0x00,0x00,0x00,0x00,0x03,0x00,0x00,0x00,0x00,0x00,0x00,0x00,0x00,0x00,
 0x00,0x00,0x00,0x00,0x00,0x00,0x00,0x00,0x00,0x00,0x00,0x00,0x00,0x00,0x00,
 0x00,0x00,0x00,0x00,0x00,0x00,0x00,0x00,0x00,0x00,0x00,0x00,0x00,0x00,0x00,
 0x00,0x00,0x00,0x00,0x00,0x00,0x00,0x00,0x00,0x00,0x00,0x00,0x03,0x00,0x00,
 0x00,0x00,0x00,0x00,0x00,0x00,0x00,0x00,0xfa,0xff,0x2f,0x00,0x00,0x00,0x00,
 0x00,0x00,0x00,0x00,0x00,0x00,0x00,0x00,0x00,0x00,0x00,0x00,0x00,0x00,0x00,
 0x00,0x00,0x00,0x00,0x00,0x00,0x00,0x00,0x00,0x00,0x00,0x00,0x00,0x00,0x00,
 0x00,0x00,0x00,0x00,0x03,0x00,0x00,0x00,0x00,0x00,0x00,0x00,0x00,0x00,0xc0,
 0xff,0xff,0xff,0x01,0x00,0x00,0x00,0x00,0x00,0x00,0x00,0x00,0x00,0x00,0x00,
 0x00,0x00,0x00,0x00,0x00,0x00,0x00,0x00,0x00,0x00,0x00,0x00,0x00,0x00,0x00,
 0x00,0x00,0x00,0x00,0x00,0x00,0x00,0x00,0x00,0x00,0x00,0x03,0x00,0x00,0x00,
 0x00,0x00,0x00,0x00,0x00,0x00,0xf8,0xff,0xff,0xff,0x8f,0x00,0x00,0x00,0x00,
 0x00,0x00,0x00,0x00,0x00,0x00,0x00,0x00,0x00,0x00,0x00,0x00,0x00,0x00,0x00,
 0x00,0x00,0x00,0x00,0x00,0x00,0x00,0x00,0x00,0x00,0x00,0x00,0x00,0x00,0x00,
 0x00,0x00,0x00,0x03,0x00,0x00,0x00,0x00,0x00,0x00,0x00,0x00,0x00,0xff,0xef,
 0xb6,0xed,0x7f,0x10,0x00,0x00,0x00,0x00,0x00,0x00,0x00,0x00,0x00,0x00,0x00,
 0x00,0x00,0x00,0x00,0x00,0x00,0x00,0x00,0x00,0x00,0x00,0x00,0x00,0x00,0x00,
 0x00,0x00,0x00,0x00,0x00,0x00,0x00,0x00,0x00,0x00,0x03,0x00,0x00,0x00,0x00,
 0x00,0x00,0x00,0x00,0xc0,0xbf,0xbd,0xff,0xbf,0xff,0x41,0x00,0x00,0x00,0x00,
 0x00,0x00,0x00,0x00,0x00,0x00,0x00,0x00,0x00,0x00,0x00,0x00,0x00,0x00,0x00,
 0x00,0x00,0x00,0x00,0x00,0x00,0x00,0x00,0x00,0x00,0x00,0x00,0x00,0x00,0x00,
 0x00,0x00,0x03,0x00,0x00,0x00,0x00,0x00,0x00,0x00,0x00,0xf0,0xff,0xff,0x77,
 0xfb,0xf5,0x07,0x02,0x00,0x00,0x00,0x00,0x00,0x00,0x00,0x00,0x00,0x00,0x00,
 0x00,0x00,0x00,0x00,0x00,0x00,0x00,0x00,0x00,0x00,0x00,0x00,0x00,0x00,0x00,
 0x00,0x00,0x00,0x00,0x00,0x00,0x00,0x00,0x00,0x03,0x00,0x00,0x00,0x00,0x00,
 0x00,0x00,0x00,0xfc,0xed,0xee,0xde,0xef,0xde,0x1f,0x08,0x00,0x00,0x00,0x00,
 0x00,0x00,0x00,0x00,0x00,0x00,0x00,0x00,0x00,0x00,0x00,0x00,0x00,0x00,0x00,
 0x00,0x00,0x00,0x00,0x00,0x00,0x00,0x00,0x00,0x00,0x00,0x00,0x00,0x00,0x00,
 0x00,0x03,0x00,0x00,0x00,0x00,0x00,0x00,0x00,0x00,0x7f,0xbf,0xff,0xff,0xbf,
 0xff,0x7e,0x22,0x00,0x00,0x00,0x00,0x00,0x00,0x00,0x00,0x00,0x00,0x00,0x00,
 0x00,0x00,0x00,0x00,0x00,0x00,0x00,0x00,0x00,0x00,0x00,0x00,0x00,0x00,0x00,
 0x00,0x00,0x00,0x00,0x00,0x00,0x00,0x00,0x03,0x00,0x00,0x00,0x00,0x18,0x08,
 0x00,0xe0,0xff,0xe3,0x61,0xe7,0xee,0xf5,0xff,0x00,0x01,0x00,0x00,0x00,0x00,
 0x00,0x00,0x00,0x00,0x00,0x00,0x00,0x00,0x00,0x00,0x00,0x00,0x00,0x00,0x00,
 0x00,0x00,0x00,0x00,0x00,0x00,0x00,0x00,0x00,0x00,0x00,0x00,0x00,0x00,0x00,
 0x03,0x00,0x80,0x00,0x30,0x0c,0x68,0x00,0xf0,0x6f,0xbf,0x61,0xf5,0xfd,0xbf,
 0xd6,0x23,0x00,0x00,0x00,0x00,0x00,0x00,0x00,0x00,0x00,0x00,0x00,0x00,0x00,
 0x00,0x00,0x00,0x00,0x00,0x00,0x00,0x00,0x00,0x00,0x00,0x00,0x00,0x00,0x00,
 0x00,0x00,0x00,0x00,0x00,0x00,0x00,0x03,0x00,0xfc,0xdf,0xbf,0xd7,0x6b,0xfe,
 0xff,0x3d,0xb3,0x69,0xd5,0x7a,0xef,0xbf,0x8e,0x0a,0x00,0x00,0x00,0x00,0x00,
 0x00,0x00,0x00,0x00,0x00,0x00,0x00,0x00,0x00,0x00,0x00,0x00,0x00,0x00,0x00,
 0x00,0x00,0x00,0x00,0x00,0x00,0x00,0x00,0x00,0x00,0x00,0x00,0x00,0x00,0x03,
 0x00,0x4c,0xca,0x88,0xf5,0x2e,0xbb,0x7f,0x5f,0xb3,0xa4,0x5d,0xc5,0xfb,0xd5,
 0x17,0x00,0x00,0x00,0x00,0x00,0x00,0x00,0x00,0x00,0x00,0x00,0x00,0x00,0x00,
 0x00,0x00,0x00,0x00,0x00,0x00,0x00,0x00,0x00,0x00,0x00,0x00,0x00,0x00,0x00,
 0x00,0x00,0x00,0x00,0x00,0x00,0x03,0x00,0x74,0xeb,0x8a,0xb4,0x3a,0xfb,0xef,
 0x93,0xf1,0xb0,0x6d,0xd6,0x5e,0xbf,0x14,0x51,0x00,0x00,0x00,0x00,0x00,0x00,
 0x00,0x00,0x00,0x00,0x00,0x00,0x00,0x00,0x00,0x00,0x00,0x00,0x00,0x00,0x00,
 0x00,0x00,0x00,0x00,0x00,0x00,0x00,0x00,0x00,0x00,0x00,0x00,0x00,0x03,0x00,
 0x5c,0xbb,0x9b,0xae,0x36,0xed,0xfb,0xad,0xf5,0xbf,0x6d,0xdb,0xfa,0x65,0xfb,
 0x08,0x00,0x00,0x00,0x00,0x00,0x00,0x00,0x00,0x00,0x00,0x00,0x00,0x00,0x00,
 0x00,0x00,0x00,0x00,0x00,0x00,0x00,0x00,0x00,0x00,0x00,0x00,0x00,0x00,0x00,
 0x00,0x00,0x00,0x00,0x00,0x03,0x00,0x00,0x00,0x00,0x00,0x00,0x60,0xbd,0x52,
 0x0a,0x10,0xa5,0xaa,0xf7,0x5d,0x89,0x40,0x00,0x00,0x00,0x00,0x00,0x00,0x00,
 0x00,0x00,0x00,0x00,0x00,0x00,0x00,0x00,0x00,0x00,0x00,0x00,0x00,0x00,0x00,
 0x00,0x00,0x00,0x00,0x00,0x00,0x00,0x00,0x00,0x00,0x00,0x00,0x03,0x00,0x08,
 0x00,0x00,0x00,0x00,0xf8,0x7e,0x29,0xa9,0x8d,0x54,0xb5,0xaa,0xab,0x76,0x95,
 0x02,0x00,0x00,0x00,0x00,0x00,0x00,0x00,0x00,0x00,0x00,0x00,0x00,0x00,0x00,
 0x00,0x00,0x00,0x00,0x00,0x00,0x00,0x00,0x00,0x00,0x00,0x00,0x00,0x00,0x00,
 0x00,0x00,0x00,0x00,0x03,0x00,0x08,0x02,0x00,0x00,0x00,0x5c,0xef,0xa3,0xaa,
 0x62,0x55,0xca,0x5b,0xaf,0x94,0x02,0x0a,0x00,0x00,0x00,0x00,0x00,0x00,0x00,
 0x00,0x00,0x00,0x00,0x00,0x00,0x00,0x00,0x00,0x00,0x00,0x00,0x00,0x00,0x00,
 0x00,0x00,0x00,0x00,0x00,0x00,0x00,0x00,0x00,0x00,0x00,0x03,0x00,0xfc,0x77,
 0x7f,0x00,0x00,0xce,0xef,0x8f,0x02,0x68,0x00,0xe0,0xd5,0x5f,0xa7,0x2e,0x00,
 0x00,0x00,0x00,0x00,0x00,0x00,0x00,0x00,0x00,0x00,0x00,0x00,0x00,0x00,0x00,
 0x00,0x00,0x00,0x00,0x00,0x00,0x00,0x00,0x00,0x00,0x00,0x00,0x00,0x00,0x00,
 0x00,0x00,0x00,0x03,0x00,0x94,0xf1,0x09,0x00,0x00,0xeb,0x17,0x5f,0xbd,0x77,
 0xdb,0x7d,0x32,0xbb,0x58,0x49,0x15,0x00,0x00,0x00,0x00,0x00,0x00,0x00,0x00,
 0x00,0x00,0x00,0x00,0x00,0x00,0x00,0x00,0x00,0x00,0x00,0x00,0x00,0x00,0x00,
 0x00,0x00,0x00,0x00,0x00,0x00,0x00,0x00,0x00,0x00,0x03,0x00,0x54,0x51,0x2d,
 0x00,0x80,0xf3,0xaf,0x38,0xdd,0xb6,0xed,0x37,0x40,0xff,0x4a,0x2a,0x20,0x00,
 0x00,0x00,0x6a,0xff,0xff,0xff,0xff,0xff,0xff,0xff,0xff,0xff,0xff,0xff,0xff,
 0xff,0xff,0xff,0xff,0xff,0xff,0xff,0xff,0xff,0xff,0xff,0xff,0xff,0xff,0xff,
 0x7f,0x02,0x03,0x00,0x54,0x73,0x25,0x00,0xc0,0xfc,0x2a,0x73,0xec,0xb7,0x6d,
 0xb6,0x3e,0xe9,0x4a,0x55,0x41,0x00,0x00,0x00,0x00,0x00,0x00,0x00,0x00,0x00,
 0x00,0x00,0x00,0x00,0x00,0x00,0x00,0x00,0x00,0x00,0x00,0x00,0x00,0x00,0x00,
 0x00,0x00,0x00,0x00,0x00,0x00,0x00,0x40,0x01,0x03,0x00,0x00,0x00,0x20,0x00,
 0xe0,0xfe,0xab,0xea,0x64,0x93,0x6c,0x36,0xbe,0xcd,0x55,0xae,0x8a,0x00,0x01,
 0x00,0x00,0x00,0x00,0x00,0x00,0x00,0x00,0x00,0x00,0x00,0x00,0x00,0x00,0x00,
 0x00,0x00,0x00,0x00,0x00,0x00,0x00,0x00,0x00,0x00,0x00,0x00,0x00,0x00,0x40,
 0x0b,0x03,0x00,0x00,0x00,0x00,0x00,0x70,0x7e,0xa5,0xca,0x66,0x9b,0x2f,0x33,
 0x80,0xe1,0xa9,0x41,0x20,0x00,0x40,0x00,0x00,0x00,0x00,0x00,0x00,0x00,0x00,
 0x00,0x00,0x00,0x00,0x00,0x00,0x00,0x00,0x00,0x00,0x00,0x00,0x00,0x00,0x00,
 0x00,0x00,0x00,0x00,0x00,0x00,0xc0,0x05,0x03,0x00,0x00,0x00,0x00,0x00,0xb0,
 0xff,0xea,0xaa,0xc6,0x31,0x37,0xbb,0xa2,0xff,0x67,0xc2,0x0b,0x01,0x00,0x08,
 0x00,0x00,0x00,0x00,0x00,0x00,0x00,0x00,0x00,0x00,0x00,0x00,0x00,0x00,0x00,
 0x00,0x00,0x00,0x00,0x00,0x00,0x00,0x00,0x00,0x00,0x00,0x00,0x00,0xc0,0x17,
 0x03,0x00,0x00,0x00,0x00,0x00,0x98,0x5f,0x19,0xab,0x09,0x00,0x00,0x18,0x00,
 0x00,0x97,0x88,0x92,0x04,0x00,0x00,0x00,0x00,0x00,0x00,0x00,0x00,0x00,0x00,
 0x00,0x00,0x00,0x00,0x00,0x00,0x00,0x00,0x00,0x00,0x00,0x00,0x00,0x00,0x00,
 0x00,0x00,0x00,0x00,0x00,0xc0,0x07,0x03,0x00,0x00,0x00,0x00,0x00,0x9c,0x7f,
 0x6b,0x55,0x13,0x00,0x00,0x18,0x00,0x20,0x2e,0x90,0x09,0x02,0x00,0x00,0x00,
 0x00,0x00,0x00,0x00,0x00,0x00,0x00,0xff,0xff,0xff,0xff,0x07,0x00,0xc0,0xff,
 0xff,0xff,0xff,0x01,0x41,0xf0,0xff,0xff,0xff,0xbf,0x10,0x04,0xc1,0x0f,0x03,
 0x00,0x00,0x00,0x00,0x00,0xce,0x9f,0x2a,0x09,0x46,0x3d,0xf6,0xfd,0xfe,0xe7,
 0x1e,0x05,0x2b,0x08,0x00,0x00,0x00,0x00,0x00,0x00,0x00,0x00,0x00,0x00,0xff,
 0xff,0xff,0xff,0x3f,0x08,0xc2,0xff,0xff,0xff,0xff,0x0f,0x00,0xe0,0xff,0xff,
 0xff,0xff,0x07,0x00,0xc0,0x07,0x03,0x00,0x00,0x00,0x00,0x00,0xe6,0x57,0x49,
 0x01,0x0e,0x36,0x12,0xdc,0x1a,0x66,0x1c,0x20,0x56,0x02,0x00,0x00,0x00,0x00,
 0x00,0x00,0x00,0x00,0x00,0x00,0xff,0xff,0xff,0xff,0xff,0x00,0xc0,0xff,0xff,
 0xff,0xff,0x3f,0x00,0xe0,0xff,0xff,0xff,0xff,0x1f,0x00,0xc0,0x0b,0x03,0x00,
 0x00,0x00,0x00,0x00,0xf7,0xd7,0xf6,0xde,0x7d,0x32,0x1b,0xdc,0x1b,0x34,0x3d,
 0x09,0xaa,0x08,0x00,0x00,0x00,0x00,0x00,0x00,0x00,0x00,0x00,0x10,0xff,0xff,
 0xff,0xff,0xfe,0x01,0xc0,0xff,0xff,0xff,0x7f,0xff,0x00,0xf0,0xff,0xff,0xff,
 0xff,0x3f,0x00,0xc0,0x07,0x03,0x00,0x68,0x08,0x00,0x00,0xf3,0xbf,0xda,0x6e,
 0x5f,0x33,0xf9,0x7c,0xfb,0x1c,0x78,0x42,0x2e,0x22,0x00,0x00,0x00,0x00,0x00,
 0x00,0x00,0x00,0x00,0x00,0xb7,0x6d,0xdb,0xb6,0xeb,0x07,0xc0,0x6d,0xdb,0x6e,
 0xdb,0xfd,0x01,0xe0,0xb6,0x6d,0xdb,0xb6,0x75,0x00,0xc0,0x0f,0x03,0x00,0x68,
 0x06,0x00,0x80,0xfd,0x5b,0xf5,0xf6,0x7b,0xb1,0x19,0x5e,0x0b,0x8c,0x70,0x08,
 0x54,0x21,0x00,0x00,0x00,0x00,0x00,0x00,0x00,0x00,0x00,0x00,0xff,0xff,0xff,
 0xff,0xff,0x0f,0xc0,0xff,0xff,0xfb,0xff,0xf7,0x03,0xe0,0xff,0xff,0xff,0xff,
 0xff,0x01,0xc0,0x07,0x03,0x00,0x7c,0xfa,0xff,0xfa,0xf9,0xaf,0xda,0xb2,0xfd,
 0xa1,0x08,0x7e,0x4d,0xed,0xe3,0x90,0xac,0x88,0x00,0x00,0x00,0x00,0x00,0x00,
 0x00,0x00,0x00,0x00,0xdb,0xb6,0x6d,0xad,0x5d,0x1f,0xc0,0xb7,0xed,0x7e,0xdb,
 0xfe,0x07,0x60,0xdb,0xb6,0xd6,0xb6,0xee,0x01,0xc0,0x0f,0x03,0x00,0x14,0x4b,
 0xa3,0xeb,0xfc,0x57,0x6d,0xb3,0x35,0xe5,0x8c,0xff,0x0d,0xfc,0xf7,0x20,0x59,
 0x22,0x04,0x00,0x00,0x00,0x00,0x00,0x00,0x00,0x00,0x00,0xff,0xff,0xff,0xff,
 0xf7,0x3f,0xc0,0xfd,0xbf,0xd7,0xff,0x57,0x0f,0xe0,0xff,0xff,0xff,0xff,0xfb,
 0x03,0xc0,0x07,0x03,0x00,0x14,0xe9,0xbd,0xed,0xfc,0x56,0x7f,0xe3,0xfc,0x69,
 0xfc,0xab,0x2d,0xf5,0xff,0x49,0x7a,0x81,0x00,0x00,0x00,0x00,0x00,0x00,0x00,
 0x00,0x00,0x00,0x6f,0x55,0x55,0xb7,0xfd,0x3a,0xc0,0x5f,0xeb,0x7d,0x6b,0xfd,
 0x1f,0xe0,0x56,0xab,0xed,0xda,0xbe,0x07,0xc0,0x0b,0x03,0x00,0x14,0xcb,0x6e,
 0x6f,0xfe,0x77,0x09,0x00,0x6e,0x03,0xf0,0x1d,0x80,0xa0,0x8f,0x11,0xc9,0x26,
 0x00,0x00,0x00,0x00,0x00,0x00,0x00,0x00,0x00,0x00,0xf7,0xff,0xff,0xfd,0xb7,
 0x7f,0xc0,0xfd,0xbf,0xff,0xff,0xdf,0x1d,0xf0,0xff,0xff,0xbf,0xef,0xef,0x0e,
 0xc0,0x07,0x03,0x00,0x00,0x02,0x00,0x60,0xfe,0xd5,0xa6,0x10,0xff,0x00,0xff,
 0x7f,0x00,0x80,0xcf,0xa5,0xb0,0x08,0x02,0x00,0x00,0x00,0x00,0x00,0x00,0x00,
 0x20,0x00,0x7d,0xff,0xff,0xdf,0xfe,0xf7,0xc0,0xef,0xf6,0xab,0x6d,0x77,0x3f,
 0xa0,0xf5,0xf6,0xed,0x7f,0xfb,0x0f,0xc0,0x17,0x03,0x00,0x00,0x00,0x00,0x30,
 0x7f,0x6b,0x55,0x42,0xf1,0xe1,0xff,0xfe,0x49,0xd2,0x87,0x03,0x73,0x43,0x00,
 0x00,0x00,0x00,0x00,0x00,0x00,0x00,0x00,0x00,0xef,0x55,0x55,0xf7,0xdb,0xde,
 0xc0,0xb6,0xdf,0xff,0xff,0xfd,0x7b,0xe0,0xdf,0x5f,0xbf,0xfa,0xaf,0x1f,0xc0,
 0x07,0x03,0x00,0x00,0x00,0x00,0x30,0xff,0x5a,0x2b,0x08,0xf8,0xff,0xff,0xff,
 0x27,0xe4,0x47,0xab,0x54,0x09,0x01,0x00,0x00,0x00,0x00,0x00,0x00,0x00,0x00,
 0x00,0xbf,0xff,0xff,0xfd,0xfe,0xf7,0xc1,0xff,0xfb,0xf6,0xb6,0x77,0x7f,0xe0,
 0xbd,0xfb,0xf7,0xaf,0xfd,0x1d,0xc0,0x0f,0x03,0x00,0x00,0x00,0x00,0x30,0x7f,
 0xd7,0x84,0x24,0xfc,0xff,0xff,0xfe,0x07,0xc1,0xa7,0x63,0xf5,0x16,0x04,0x00,
 0x00,0x00,0x00,0x00,0x00,0x20,0x00,0x00,0xfb,0xee,0xfe,0xaf,0xb7,0xfd,0xc1,
 0xdd,0x6e,0xff,0xff,0xde,0x6d,0x70,0xf7,0xee,0xff,0xff,0x77,0x3f,0xc0,0x07,
 0x03,0x00,0x00,0x00,0x00,0x98,0x7f,0x79,0x17,0x01,0xfe,0xff,0x7f,0xff,0xaf,
 0xd0,0x01,0x96,0xa0,0x4a,0x01,0x40,0x00,0x00,0x00,0x00,0x00,0x00,0x00,0x00,
 0xbf,0xbb,0x07,0xfc,0xfd,0xbf,0xc3,0xf7,0xff,0x03,0xaf,0xfb,0xff,0xe0,0xdf,
 0xff,0x80,0xb7,0xdd,0x3f,0xc0,0x0b,0x03,0x00,0x00,0x00,0x00,0x98,0xbf,0xa7,
 0x90,0x00,0xbe,0xff,0xff,0xfe,0x9f,0xc4,0x31,0x27,0xf5,0x0a,0x04,0x00,0x00,
 0x00,0x00,0x00,0x00,0x00,0x00,0x00,0xfb,0xff,0x05,0xf0,0xd7,0xf6,0xc3,0xdf,
 0xb6,0x01,0xfc,0x5f,0xf7,0x60,0x7b,0xdb,0x00,0xff,0xff,0x7a,0xc0,0x17,0x03,
 0x00,0x00,0x00,0x00,0x98,0xff,0x7a,0x15,0x14,0x7e,0xff,0xff,0xff,0x5f,0xc2,
 0x80,0x0d,0xa9,0x35,0x01,0x00,0x00,0x00,0x00,0x00,0x00,0x00,0x00,0x00,0xdf,
 0xb6,0x07,0xe0,0xfe,0x6f,0xc3,0xfb,0xff,0x01,0x78,0xf7,0xdd,0xe1,0xff,0xf7,
 0x00,0xde,0xb6,0x77,0xc0,0x0f,0x03,0x00,0x00,0x00,0x00,0xd8,0x5f,0xcb,0x42,
 0x00,0xfe,0xff,0xff,0xff,0xbf,0xc4,0x24,0x6d,0x62,0x05,0x04,0x00,0x00,0x00,
 0x00,0x00,0x00,0x00,0x00,0x00,0xfb,0xff,0x06,0x60,0xdb,0xfd,0xc3,0x6e,0xdb,
 0x01,0xf0,0xfd,0xff,0x61,0xd7,0xfd,0x00,0x7c,0xff,0x7f,0xc0,0x07,0x03,0x00,
 0x00,0x00,0x00,0xcc,0xff,0x3d,0x85,0x82,0xff,0xff,0xff,0xff,0x7f,0xca,0x50,
 0x95,0xfa,0xae,0x00,0x00,0x00,0x00,0x00,0x00,0x00,0x00,0x00,0x00,0xdf,0xda,
 0x07,0xc0,0x7f,0x77,0xc7,0xff,0xfe,0x01,0xb0,0xdf,0xb6,0xe1,0x7d,0xdf,0x00,
 0xe8,0xad,0x6d,0xc0,0x0b,0x03,0x00,0x00,0x00,0x00,0xcc,0x5f,0x65,0x14,0xc0,
 0xff,0xff,0xff,0xff,0xbf,0xc2,0x00,0x53,0xc5,0xf6,0x01,0x00,0x00,0x00,0x00,
 0x00,0x00,0x00,0x00,0x00,0xf7,0x7f,0x07,0xc0,0xdd,0xdf,0xc7,0xb5,0xb7,0x01,
 0xe0,0x76,0xff,0xe1,0xf7,0xfb,0x00,0xf8,0xff,0xfe,0xc0,0x07,0x03,0x00,0xfc,
 0xef,0xec,0xcd,0xdf,0x5e,0x21,0xe1,0xff,0xff,0xff,0xff,0xbf,0xe9,0x68,0x8c,
 0xf4,0xdf,0x06,0x00,0x00,0x00,0x00,0x00,0x80,0x00,0x00,0x00,0xdd,0xd6,0x07,
 0x80,0xf7,0xfb,0xc6,0xff,0xfd,0x01,0xe0,0xff,0xdb,0xe1,0xde,0xfe,0x00,0x78,
 0xdb,0xf7,0xc0,0x0f,0x03,0x00,0x7c,0xe2,0x7c,0xef,0x7f,0xf5,0x05,0xf0,0xff,
 0xff,0xff,0xff,0xbf,0xe6,0x88,0xaa,0x92,0x0b,0x06,0x00,0x00,0x00,0x00,0x00,
 0x00,0x00,0x00,0x00,0xff,0xff,0x06,0x80,0xdf,0xde,0xc7,0xf6,0xb7,0x01,0x60,
 0xeb,0x7f,0xe3,0xf7,0xeb,0x00,0xb0,0x7f,0xdf,0xc0,0x07,0x03,0x00,0x54,0xe3,
 0x58,0xcf,0xdf,0xf6,0x91,0xf8,0xff,0xff,0xff,0xff,0x7f,0xc5,0x40,0xb4,0xde,
 0x2b,0x0a,0x02,0x00,0x00,0x00,0x00,0x00,0x00,0x00,0x00,0x6f,0xbb,0x07,0x80,
 0xf5,0x77,0xc7,0xbf,0xfe,0x03,0xe0,0x7f,0xed,0xb3,0x7d,0xff,0x00,0xf0,0xee,
 0xfb,0xc0,0x0b,0x03,0x00,0x5c,0x03,0xc8,0xef,0xbf,0xb9,0x85,0xf8,0xff,0xff,
 0xff,0xff,0x3f,0xf7,0x93,0xaa,0x72,0x8b,0x02,0x00,0x00,0x00,0x00,0x00,0x00,
 0x00,0x04,0x00,0xff,0xff,0x07,0x80,0xbf,0xfd,0xc5,0xfd,0xeb,0x01,0xc0,0xee,
 0xbf,0xe3,0xef,0xdd,0x00,0xf0,0xbb,0xef,0xc0,0x17,0x03,0x00,0x00,0x00,0x00,
 0xc4,0x6f,0xbf,0x21,0xfc,0xff,0xff,0x7f,0xf2,0xff,0xff,0x2b,0xd9,0xca,0x7d,
 0x10,0x00,0x08,0x00,0x00,0x00,0x00,0x00,0x80,0x00,0xb5,0xd6,0x06,0x80,0xfd,
 0xdf,0xc7,0xaf,0xbf,0x01,0xc0,0x7b,0xf7,0x63,0xbb,0xf7,0x00,0xd0,0xfe,0xfd,
 0xc0,0x07,0x03,0x00,0x68,0x00,0x10,0xe6,0x7f,0x7d,0x90,0xfc,0xbf,0xff,0x03,
 0xf0,0xfe,0xf9,0x40,0x4a,0x55,0x93,0x04,0x00,0x00,0x00,0x00,0x00,0x00,0x00,
 0x00,0x00,0xff,0xfb,0x07,0x80,0x57,0x7b,0xcf,0xfd,0xfe,0x01,0xc0,0xdf,0xdd,
 0xe3,0xff,0xfe,0x00,0xf0,0xb7,0xb7,0xc0,0x0f,0x03,0x00,0x68,0x06,0x20,0xee,
 0xdf,0xfb,0x03,0xfc,0xff,0x2f,0x00,0xf0,0xbf,0xdb,0x08,0xac,0xda,0x56,0x10,
 0x00,0x00,0x00,0x00,0x00,0x00,0x00,0x00,0x00,0xb7,0xbf,0x06,0x80,0xff,0xdf,
 0xcf,0xdf,0xd7,0x01,0xc0,0xf6,0x77,0xe3,0xdd,0xef,0x00,0xb0,0xfd,0xfd,0xc0,
 0x07,0x03,0x00,0x7c,0xba,0x6f,0xe4,0x5f,0xf5,0xab,0xfc,0xff,0x13,0x44,0xf0,
 0xff,0xed,0xa1,0x64,0xeb,0x5d,0x01,0x00,0x00,0x00,0x00,0x00,0x00,0x00,0x00,
 0x00,0xff,0xee,0x07,0x80,0x77,0x7b,0xc7,0x76,0x7b,0x01,0xc0,0xdf,0xfe,0x63,
 0x77,0xfb,0x00,0xf0,0xb7,0xef,0xc0,0x17,0x03,0x00,0x14,0xeb,0x26,0xe6,0xff,
 0xed,0x03,0xfc,0xff,0x00,0x00,0xf0,0xdf,0xfe,0x15,0x54,0xd5,0x56,0x14,0x00,
 0x00,0x00,0x00,0x00,0x00,0x10,0x00,0x00,0xdb,0xfb,0x07,0x80,0xdd,0xef,0xc7,
 0xff,0xff,0x03,0xe0,0xf6,0xdf,0xe3,0xff,0xef,0x00,0xf0,0xfd,0xfb,0xc0,0x07,
 0x03,0x00,0x14,0xe9,0x22,0xee,0xaf,0xe6,0x28,0xfc,0x2f,0x00,0x00,0xf1,0x7f,
 0xfb,0x41,0x65,0x4d,0xab,0x00,0x00,0x00,0x00,0x00,0x00,0x01,0x00,0x00,0x00,
 0x7f,0xbf,0x05,0x80,0xff,0xbe,0xc5,0xad,0xed,0x01,0xe0,0xbf,0x7b,0xe3,0xda,
 0xfe,0x00,0xb0,0x6f,0xdf,0xc0,0x07,0x03,0x00,0x14,0xfb,0x32,0xe6,0xff,0xd5,
 0x09,0xfc,0x1f,0x00,0x00,0xf0,0xdf,0xfd,0x21,0xb6,0xda,0x5b,0x15,0x00,0x00,
 0x00,0x00,0x00,0x00,0x00,0x00,0x00,0xdb,0x6f,0x07,0x80,0xb7,0xf7,0xc7,0xff,
 0xbf,0x01,0xe0,0xeb,0xde,0xe3,0xff,0xef,0x00,0xf8,0xdb,0xf7,0xc0,0x0f,0x03,
 0x00,0x00,0x02,0x18,0xe6,0x5f,0xd7,0x51,0xfc,0x3f,0x08,0x00,0xf0,0x7f,0xff,
 0x46,0x56,0xd7,0x16,0x01,0x00,0x00,0x02,0x00,0x00,0x00,0x00,0x00,0x00,0x7f,
 0xfd,0x07,0xc0,0xfd,0xde,0xc6,0xda,0xf6,0x01,0x60,0xff,0xfb,0x71,0xdb,0xfe,
 0x00,0xb8,0x7e,0xfd,0xc0,0x07,0x03,0x00,0x00,0x00,0x00,0xe6,0xbf,0x8b,0x03,
 0xfc,0x5f,0x80,0x20,0xf0,0xbf,0xff,0x04,0xd6,0xaa,0xab,0x10,0x00,0x00,0x00,
 0x00,0x00,0x00,0x00,0x00,0x00,0xef,0x6f,0x07,0xc0,0xb7,0xf7,0xc7,0xff,0xff,
 0x01,0xf0,0xdd,0xbe,0xe1,0xff,0xdb,0x00,0xe8,0xf7,0x7f,0xc0,0x0f,0x03,0x00,
 0x00,0x00,0x00,0xf6,0xbf,0xff,0xef,0xff,0x7f,0x00,0x00,0xf0,0x6f,0xff,0xfe,
 0x57,0xf5,0x3e,0x05,0x00,0x00,0x00,0x00,0x00,0x00,0x00,0x00,0x00,0xbb,0xfb,
 0x05,0x60,0xff,0xbd,0xc7,0xad,0x6d,0x03,0xb0,0xf7,0xfb,0x61,0x6b,0xff,0x00,
 0x7c,0xdf,0x6d,0xc0,0x03,0x03,0x00,0x00,0x00,0x00,0xcc,0xef,0xbb,0x6f,0xfb,
 0xff,0xb7,0x8a,0xf8,0xff,0x5f,0xdb,0xb2,0x6d,0x85,0x10,0x00,0x01,0x00,0x01,
 0x04,0x00,0x00,0x00,0x00,0xff,0xbe,0x07,0xe0,0x6f,0xff,0xc3,0xff,0xfb,0x01,
 0xf8,0xfe,0xde,0xe1,0xff,0xed,0x00,0xfc,0xbb,0x7f,0xc0,0x1f,0x03,0x00,0x00,
 0x00,0x00,0xec,0x3f,0xdb,0xaf,0xfd,0xff,0xff,0xff,0xff,0xdf,0x4f,0xdb,0x6a,
 0xdb,0x7b,0x01,0x00,0x00,0x00,0x00,0x00,0x00,0x00,0x00,0x00,0xef,0xef,0x07,
 0x70,0xfd,0xd7,0xc2,0x6d,0xdf,0x01,0xfc,0xdb,0xfb,0x60,0xdb,0xff,0x00,0xee,
 0xfe,0x76,0xc0,0x07,0x03,0x00,0x00,0x00,0x00,0xcc,0xff,0xcb,0xbe,0xf5,0xff,
 0xff,0xff,0xff,0xff,0x6f,0x6b,0x73,0x6d,0x5d,0x10,0x00,0x00,0x00,0x00,0x00,
 0x40,0x00,0x00,0x00,0x7b,0xfb,0x06,0xfc,0xbb,0xfd,0xc3,0xff,0xf7,0x01,0xae,
 0x7e,0xdf,0xe0,0xff,0xd6,0x80,0xbf,0xb7,0x3f,0xc0,0x0b,0x03,0x00,0x00,0x00,
 0x00,0xfc,0xbe,0xdd,0xb6,0xf6,0xfd,0xff,0xff,0xff,0xff,0x67,0x6d,0xc3,0xdb,
 0x45,0x05,0x00,0x00,0x00,0x00,0x00,0x00,0x00,0x00,0x00,0xef,0xef,0xff,0xdf,
 0xef,0xee,0xc1,0xed,0xde,0xff,0xff,0xf7,0xfd,0xe0,0xf6,0xff,0xff,0xf7,0xfd,
 0x36,0xc0,0x07,0x03,0x00,0x00,0x00,0x00,0xcc,0xff,0x8f,0xbf,0xe6,0xff,0xff,
 0xff,0xff,0xff,0xff,0x6d,0x73,0x2d,0x7b,0x10,0x00,0x00,0x00,0x00,0x00,0x00,
 0x00,0x00,0x00,0xfd,0xba,0xfd,0x7b,0xfb,0xdf,0x41,0xbf,0x7f,0xff,0xff,0x6e,
 0x6f,0xa0,0x5f,0x6d,0xff,0xbd,0xdf,0x3f,0xc0,0x0f,0x03,0x00,0x00,0x00,0x00,
 0xdc,0xbf,0xb5,0x0c,0x80,0xff,0xff,0xff,0xff,0xfe,0x45,0x00,0x53,0xfb,0x26,
 0x01,0x00,0x00,0x00,0x00,0x00,0x00,0x00,0x08,0x00,0xb7,0xff,0xf7,0xdf,0xdf,
 0xf6,0xc0,0xfb,0xf5,0xfd,0xea,0xff,0x7b,0xf0,0xf6,0xff,0xdd,0xef,0xf6,0x1e,
 0xc0,0x07,0x03,0x00,0x00,0x00,0x00,0xc8,0xff,0x5a,0x7c,0x00,0xff,0xff,0xff,
 0xff,0xff,0xbd,0x9a,0xd9,0xe6,0x55,0x12,0x00,0x00,0x00,0x00,0x00,0x00,0x00,
 0x00,0x00,0xff,0x6f,0xbd,0xf6,0xb7,0xff,0xc0,0x6f,0xdf,0xaf,0x7f,0xdb,0x3e,
 0xe0,0xff,0x6d,0x77,0xfb,0xbf,0x0f,0xc0,0x0b,0x03,0x00,0x7c,0xf7,0xfe,0xdd,
 0xff,0xab,0xfc,0x1b,0xfe,0xff,0xff,0xff,0xff,0x4b,0x83,0xf1,0xbb,0xdf,0x06,
 0x00,0x00,0x00,0x00,0x00,0x00,0x20,0x00,0x00,0xdb,0xfa,0xef,0xbf,0xfe,0x7d,
 0xc0,0xfd,0x7d,0xff,0xdb,0xff,0x1b,0x60,0xdb,0xff,0xff,0xdf,0xed,0x0d,0xc0,
 0x07,0x03,0x00,0xfc,0xed,0xb3,0x9d,0xfd,0x0a,0xfc,0x1f,0xff,0xff,0xff,0xff,
 0xff,0x7b,0xeb,0xa9,0xfe,0xd7,0x16,0x00,0x40,0x00,0x10,0x00,0x00,0x00,0x00,
 0x00,0xff,0x7f,0xfb,0xed,0x77,0x37,0xc0,0x6f,0xdf,0xeb,0xfe,0xd6,0x1e,0xe0,
 0xbf,0x6d,0xdb,0x76,0xbf,0x07,0xc0,0x17,0x03,0x00,0xd4,0xaf,0xd9,0xb6,0xff,
 0xff,0xf8,0xff,0xff,0xff,0xff,0xff,0xff,0x77,0xf3,0x79,0xf5,0xdd,0x06,0x00,
 0x00,0x00,0x00,0x00,0x00,0x00,0x00,0x00,0xd7,0xd6,0x6f,0x7f,0xdf,0x3f,0xc0,
 0xbe,0xfb,0xbe,0xf7,0xff,0x0f,0x60,0xfd,0xff,0xff,0xff,0xfd,0x03,0xc0,0x07,
 0x03,0x00,0x54,0xab,0x76,0xb2,0xff,0xfe,0xf2,0xff,0xff,0xff,0xff,0xff,0xff,
 0xaf,0xf9,0xdc,0x77,0x5f,0x02,0x00,0x00,0x00,0x00,0x00,0x01,0x00,0x00,0x00,
 0xfd,0xff,0xfd,0xdb,0xf5,0x1d,0xc0,0xf7,0xbe,0xff,0x7d,0x6d,0x07,0xe0,0xd7,
 0x6a,0x6d,0xad,0xdb,0x01,0xc0,0x0f,0x03,0x00,0x00,0x00,0x18,0xbb,0xff,0xdb,
 0x10,0xff,0xff,0xff,0xff,0xf7,0xfd,0xbf,0xfd,0xb4,0xad,0xb2,0x01,0x00,0x00,
 0x00,0x00,0x00,0x00,0x00,0x00,0x00,0x6f,0x7b,0xb7,0xff,0xbf,0x07,0xc0,0xfd,
 0xf7,0xb6,0xd7,0xff,0x03,0xe0,0xff,0xff,0xf7,0xff,0xfe,0x00,0xc0,0x07,0x03,
 0x00,0x48,0x00,0x00,0x60,0xfb,0xdb,0x98,0xfd,0xff,0xff,0xff,0xff,0xff,0xff,
 0xbd,0xdc,0xeb,0x0d,0x08,0x40,0x00,0x00,0x00,0x00,0x00,0x00,0x00,0x00,0xff,
 0xdf,0xff,0xd6,0xee,0x03,0xc0,0xb7,0xdd,0xfd,0xfe,0xed,0x01,0xa0,0x75,0x77,
 0xbf,0xdb,0x7f,0x00,0xc0,0x0f,0x03,0x00,0x68,0x06,0x00,0x30,0xff,0x5f,0x9b,
 0xf5,0xff,0xef,0x7d,0xff,0xff,0xff,0x1f,0x76,0x15,0x53,0x00,0x00,0x00,0x10,
 0x00,0x00,0x00,0x00,0x00,0x00,0xbb,0xf6,0xb6,0xff,0xff,0x01,0xc0,0xff,0x7f,
 0xef,0xbb,0x7f,0x00,0xf0,0xdf,0xdd,0xfd,0x7e,0x1f,0x00,0xc0,0x03,0x03,0x00,
 0x7c,0xfa,0xff,0xf8,0xee,0x7f,0x9b,0xb6,0xff,0xff,0xff,0xff,0xff,0xfd,0x5f,
 0xbe,0xff,0x0e,0x0b,0x00,0x00,0x00,0x00,0x04,0x00,0x00,0x00,0x01,0xef,0xbf,
 0xff,0x77,0x3f,0x00,0xc0,0x6d,0xed,0xbb,0xef,0x1f,0x00,0xe0,0xfd,0xff,0xd7,
 0xf7,0x07,0x00,0xc0,0x1f,0x03,0x00,0x14,0xeb,0x7e,0xfe,0xfe,0x7f,0x22,0x80,
 0xff,0xff,0xff,0xff,0xff,0xfe,0x87,0xee,0xfd,0xd6,0x04,0x00,0x00,0x00,0x00,
 0x00,0x00,0x00,0x00,0x00,0xff,0xff,0xff,0xff,0x07,0x00,0xc0,0xff,0xff,0xff,
 0xff,0x01,0x00,0xf0,0xff,0xff,0xff,0xff,0x00,0x00,0xc0,0x07,0x03,0x00,0x14,
 0xe9,0x6a,0x7f,0xfd,0xbf,0x49,0x92,0xff,0xff,0xff,0xff,0xff,0x93,0x37,0xdb,
 0xff,0x8e,0x01,0x00,0x00,0x00,0x00,0x00,0x00,0x01,0x00,0x00,0x00,0x00,0x00,
 0x00,0x00,0x00,0x00,0x00,0x00,0x00,0x00,0x00,0x00,0x00,0x00,0x00,0x00,0x00,
 0x00,0x00,0xc0,0x07,0x03,0x00,0x14,0xab,0xab,0xff,0xda,0xdf,0x22,0x84,0xff,
 0xff,0xff,0xdf,0xfd,0xff,0x27,0xbf,0xee,0x2f,0x04,0x00,0x00,0x00,0x00,0x00,
 0x00,0x00,0x00,0x00,0x00,0x00,0x00,0x00,0x00,0x00,0x00,0x00,0x00,0x00,0x00,
 0x00,0x00,0x00,0x00,0x00,0x00,0x00,0x00,0x00,0xc0,0x17,0x03,0x00,0x00,0x02,
 0xe0,0xff,0xfb,0x7f,0x8a,0x82,0xff,0xff,0xff,0xff,0xff,0xdb,0x8e,0x77,0x53,
 0x81,0x00,0x00,0x00,0x00,0x00,0x00,0x00,0x00,0x00,0x00,0x00,0x00,0x00,0x00,
 0x00,0x00,0x00,0x00,0x00,0x00,0x00,0x00,0x00,0x00,0x00,0x00,0x00,0x00,0x00,
 0x00,0xc0,0x07,0x03,0x00,0x00,0x00,0xf8,0xff,0xbd,0xff,0x0b,0xf0,0xff,0xff,
 0xfb,0xff,0xff,0xd7,0xae,0xdd,0x6e,0x15,0x04,0x00,0x00,0x00,0x00,0x00,0x00,
 0x00,0x00,0x00,0x00,0x00,0x00,0x00,0x00,0x00,0x00,0x00,0x00,0x00,0x00,0x00,
 0x00,0x00,0x00,0x00,0x00,0x00,0x00,0x00,0xc0,0x07,0x03,0x00,0x00,0x00,0xfc,
 0xff,0xf3,0xff,0x7f,0xfe,0xff,0xbf,0xff,0xfd,0xff,0xff,0xca,0x9b,0xba,0x12,
 0x01,0x00,0x00,0x00,0x00,0x00,0x00,0x00,0x00,0x00,0x00,0x00,0x00,0x00,0x00,
 0x00,0x00,0x00,0x00,0x00,0x00,0x00,0x00,0x00,0x00,0x00,0x00,0x00,0x00,0x00,
 0xc0,0x0f,0x03,0x00,0x00,0x00,0xff,0xff,0xf7,0xfe,0xff,0xff,0xff,0xff,0xbf,
 0xff,0xff,0xd7,0x62,0xdf,0xd5,0x4a,0x00,0x00,0x08,0x00,0x00,0x00,0x00,0x80,
 0x00,0x00,0x00,0x00,0x00,0x00,0x00,0x00,0x00,0x00,0x00,0x00,0x00,0x00,0x00,
 0x00,0x00,0x00,0x00,0x00,0x00,0x00,0xc0,0x07,0x03,0x00,0x00,0x80,0xff,0xff,
 0xcf,0xff,0xfe,0xff,0xfc,0xff,0xff,0xff,0xff,0xff,0xf3,0x6e,0xbb,0x82,0x00,
 0x00,0x00,0x00,0x08,0x00,0x00,0x00,0x00,0x00,0x00,0x00,0x00,0x00,0x00,0x00,
 0x00,0x00,0x00,0x00,0x00,0x00,0x00,0x00,0x00,0x00,0x00,0x00,0x00,0x00,0xc0,
 0x0b,0x03,0x00,0x00,0xe0,0xff,0xff,0xdf,0xff,0xf3,0x3f,0xfe,0xff,0xff,0xbf,
 0xfe,0xff,0xf3,0xa7,0x4d,0x05,0x02,0x00,0x00,0x00,0x00,0x00,0x00,0x00,0x00,
 0x00,0x00,0x00,0x00,0x00,0x00,0x00,0x00,0x00,0x00,0x00,0x00,0x00,0x00,0x00,
 0x00,0x00,0x00,0x00,0x00,0x00,0xc0,0x07,0x03,0x00,0x00,0xf0,0xff,0xff,0xdb,
 0xfd,0x97,0x0f,0xfe,0xff,0xff,0x57,0xfd,0xff,0xb9,0xd3,0x76,0x51,0x00,0x00,
 0xd4,0xde,0xaa,0x55,0xf7,0xff,0xfe,0xff,0xff,0xff,0xff,0xff,0xff,0xff,0xff,
 0xff,0xff,0xff,0xff,0xff,0xff,0xff,0xff,0xff,0xff,0xff,0xff,0xff,0xff,0x17,
 0x03,0x00,0x00,0xfc,0xff,0xff,0xb2,0xff,0x2f,0x41,0xfc,0xff,0x7f,0xd5,0xfe,
 0xff,0xf8,0x6d,0xab,0x04,0x00,0xa0,0x02,0x00,0x00,0x54,0x09,0x40,0x29,0x29,
 0x51,0x49,0x55,0x5b,0xd7,0xfb,0x6f,0xff,0x7f,0xff,0xee,0xff,0xff,0xff,0xff,
 0xff,0xff,0xff,0xff,0xff,0xff,0x07,0x03,0x00,0x40,0xfe,0xff,0xff,0xf2,0xee,
 0x7f,0x95,0xfc,0xff,0x8b,0x6a,0xdd,0x5f,0xdd,0xda,0x16,0x21,0x00,0x08,0x48,
 0x22,0xa5,0x00,0x50,0x15,0x92,0xaa,0x4c,0xb5,0xd4,0xaa,0x74,0xad,0xda,0xaa,
 0xd5,0xb5,0xff,0xdb,0xf6,0xdd,0x56,0x6d,0x4f,0xde,0xf6,0xf4,0xbf,0x0f,0x03,
 0x00,0xc0,0xff,0xff,0x5f,0xb8,0xff,0xef,0xa9,0xfe,0xbf,0xf4,0x5d,0xfd,0x3f,
 0x7e,0xb5,0x5a,0x04,0x04,0x20,0x41,0x48,0x10,0x5a,0x89,0xa8,0x44,0xa5,0x92,
 0x54,0x2b,0xed,0x5b,0xbb,0xfd,0xdf,0x7e,0xdf,0x5b,0xff,0xdf,0xf7,0xff,0xf7,
 0x01,0xf0,0x1f,0x00,0xfb,0x0b,0x03,0x00,0xdc,0xff,0xff,0x37,0x7c,0xbd,0x5f,
 0x05,0xfc,0x9f,0xae,0x26,0xff,0xbf,0x5f,0xad,0x2b,0x51,0x00,0x00,0x94,0x82,
 0x84,0x00,0x25,0x45,0x2a,0x51,0x55,0xcf,0xda,0x33,0xd6,0xd6,0xaa,0x74,0xeb,
 0xeb,0xee,0xb7,0xbd,0xfd,0xda,0xbd,0x01,0xe0,0x1d,0x00,0xde,0x07,0x03,0x00,
 0xf4,0xff,0xff,0x17,0x7f,0xf5,0xff,0xfd,0xff,0x6f,0xb5,0xf8,0xff,0x9f,0xbb,
 0x5a,0x96,0x00,0x00,0x94,0x00,0x24,0x10,0x2a,0x90,0xa8,0xaa,0x96,0x55,0x54,
 0x2b,0xce,0xad,0x6d,0xef,0xaf,0xdf,0xbe,0xbb,0xfd,0xf7,0xaf,0xff,0xff,0x01,
 0x60,0x1f,0x00,0xf6,0x0f,0x03,0x00,0xfc,0xff,0xff,0x8b,0xff,0xef,0xff,0xdd,
 0xff,0xbf,0x8b,0xff,0xef,0xa7,0x57,0x55,0x53,0x0c,0x00,0x00,0x24,0x11,0x85,
 0x80,0x4a,0x0a,0x10,0x51,0xaa,0xb2,0xd4,0xb5,0xf6,0xd6,0x5a,0xf5,0xba,0xf7,
 0xfe,0xaf,0xbd,0xfb,0xc9,0x85,0x7d,0xe0,0xdb,0x07,0xbe,0x07,0x03,0x00,0xfc,
 0xff,0x7f,0xe1,0xff,0xf7,0xff,0xe7,0xff,0x0f,0xfe,0x7f,0xc9,0xd3,0xef,0xf7,
 0x04,0x01,0x00,0x80,0x20,0x4a,0x10,0x8a,0xa4,0xe4,0xd6,0x56,0xd5,0xaa,0x5b,
 0xdb,0x95,0xbd,0xdd,0xde,0xf7,0xde,0xdb,0xfe,0xf7,0xde,0xc0,0xc1,0x7f,0xe0,
 0xfe,0x07,0xee,0x17,0x03,0x00,0xff,0xff,0x5f,0xf1,0xaf,0xaf,0xfd,0xff,0xff,
 0xff,0xff,0x4e,0xdb,0xf9,0xa9,0x4c,0x55,0x00,0x00,0x28,0x8a,0x00,0x44,0x10,
 0x01,0x12,0x49,0x54,0x55,0x55,0xac,0xaa,0xea,0xaa,0xb7,0xb7,0x5e,0xeb,0xfe,
 0xef,0xbe,0xff,0xc1,0xc1,0x03,0xf0,0x3f,0x00,0xfb,0x07,0x03,0x80,0xff,0xff,
 0xbf,0xfc,0xfb,0x7a,0xff,0xff,0xff,0xff,0x57,0xb5,0xf6,0x7c,0xdf,0x5b,0x09,
 0x09,0x01,0x00,0x40,0xaa,0x80,0x44,0xac,0x64,0x4a,0x49,0x52,0xed,0x55,0xad,
 0xb6,0xed,0xbc,0xed,0xf5,0xbf,0x55,0xbd,0xf7,0xf5,0xc1,0xc0,0x03,0xb8,0x35,
 0x80,0xdf,0x07,0x03,0xe0,0xff,0xff,0x17,0xfe,0xdd,0xee,0xfe,0xff,0xff,0x7f,
 0xe9,0xd6,0x39,0xdf,0x77,0x2a,0x00,0x08,0x07,0x20,0x94,0x00,0x29,0x08,0x41,
 0x89,0x24,0x55,0x55,0x12,0xaa,0x75,0x5d,0x5b,0xd7,0x7b,0x5f,0xd5,0xff,0xef,
 0x7d,0xbf,0x83,0x60,0x03,0xfc,0x3f,0xc0,0xbf,0x0b,0x03,0xf0,0xff,0xff,0x8b,
 0xbf,0xfe,0xdf,0xf5,0xff,0xff,0x4f,0x5f,0x1b,0xaf,0xbf,0xff,0xcb,0xbf,0x9a,
 0x02,0x08,0x01,0x2a,0x84,0x30,0x15,0x92,0xa8,0xaa,0x55,0xed,0xed,0xd6,0x6b,
 0x6d,0xbb,0xae,0xf5,0x7f,0xed,0x7e,0xf7,0xed,0x83,0xe0,0x03,0x60,0x37,0x00,
 0xf6,0x17,0x03,0xfc,0xff,0xff,0xc5,0xff,0xfb,0x6e,0xf7,0xff,0xff,0xdf,0xaa,
 0xe5,0xd7,0xf7,0xbf,0x6b,0xb5,0x99,0x02,0x40,0xa8,0x08,0x81,0x84,0x48,0x29,
 0x55,0x49,0xaa,0x2a,0x2a,0x35,0x59,0xb7,0x6d,0x77,0xbb,0xed,0xbf,0xef,0xbf,
 0x7f,0x87,0xe0,0x7f,0xe0,0xff,0x07,0xde,0x07,0x03,0xfc,0xff,0x7f,0xf0,0xaf,
 0xff,0xef,0xaf,0xff,0xff,0xbf,0x55,0xfc,0xf5,0xff,0xfb,0xe7,0xaf,0x99,0x02,
 0x00,0x82,0x44,0x14,0x88,0x90,0x52,0x44,0xaa,0xb4,0xed,0xd5,0xb5,0xd7,0xba,
 0xed,0xed,0xef,0xbe,0xfb,0x7a,0xed,0xf6,0x07,0xf0,0x7e,0x20,0xf8,0x07,0xbe,
 0x0f,0x03,0xfc,0xff,0x7f,0xf9,0xfd,0xeb,0x7f,0xff,0xfa,0xff,0xbf,0xea,0x7f,
 0xfa,0xdb,0x7f,0xe1,0x7a,0x8b,0x02,0x20,0x10,0x20,0x81,0x52,0x54,0x88,0x2a,
 0xa9,0x46,0x2a,0x36,0xd5,0xfa,0xd6,0x56,0xbb,0x7a,0xf7,0xdd,0xdf,0xff,0xdf,
 0x06,0xf0,0x11,0x20,0x18,0x02,0xf6,0x07,0x03,0xfc,0xff,0x0f,0xfe,0xf7,0x1e,
 0x51,0xe9,0xed,0xfb,0xff,0xff,0x8f,0xff,0xff,0x49,0x1f,0x00,0xc4,0x01,0x80,
 0x52,0x09,0x24,0x00,0x45,0x25,0x91,0x95,0xd4,0xea,0xd5,0x56,0x55,0xdb,0xdd,
 0xee,0xd7,0xdd,0x76,0x7f,0x5b,0xfb,0x0f,0xf8,0x01,0x20,0x18,0x00,0xde,0x07,
 0x03,0xfc,0xff,0x17,0xbf,0xbd,0x6f,0x4d,0xd4,0x6f,0xff,0xff,0xff,0xf2,0xff,
 0xf7,0xb7,0x20,0x14,0x00,0x00,0x08,0x00,0x44,0x81,0xa4,0x10,0xa9,0x6a,0x52,
 0x53,0x29,0x5a,0xb5,0xad,0xed,0xf6,0x77,0x7d,0xb7,0xdf,0xd5,0xff,0xef,0x0e,
 0xb8,0x01,0x30,0x18,0x00,0xff,0x0f,0x03,0xfc,0xff,0x85,0xff,0x76,0x94,0x30,
 0x16,0xbe,0xd6,0xff,0xaf,0xfd,0xff,0xef,0x0a,0x01,0x14,0x00,0x00,0x40,0x54,
 0x11,0x94,0x10,0xa5,0x24,0x95,0x54,0x2a,0xd5,0xd5,0xaa,0x75,0x9b,0x5b,0xad,
 0xeb,0xfb,0xfa,0xff,0x76,0xbf,0x0b,0xf8,0x01,0x3c,0x18,0x80,0xab,0x07,0x03,
 0xfc,0xff,0xe2,0xdf,0xdf,0xff,0x87,0xff,0xfb,0x5d,0x45,0xa9,0xff,0xff,0xff,
 0x7f,0x9c,0xf7,0xc3,0x07,0x00,0x00,0x04,0x01,0x46,0x48,0x92,0xa0,0x56,0xd5,
 0x2e,0x55,0xb7,0x96,0x6d,0x6d,0xfb,0xbe,0xae,0x77,0xbb,0xdf,0xed,0xff,0x6f,
 0xff,0xff,0xff,0xff,0xff,0x0b,0x03,0xfc,0xbf,0xf0,0x5b,0xdd,0x7e,0xd7,0xaa,
 0xdb,0xff,0xfd,0xfe,0xff,0xff,0x7f,0xf5,0xb3,0xac,0x42,0x05,0x14,0x55,0x51,
 0x24,0x40,0x85,0x24,0x8d,0x48,0x2b,0x69,0xab,0x5c,0x7d,0xdb,0xba,0x57,0xeb,
 0xfd,0xfd,0xff,0xfe,0xbf,0xfe,0xbf,0xff,0xf7,0xf7,0xff,0xbd,0x07,0x03,0xfc,
 0x5f,0xfc,0xfb,0xfd,0xd7,0xc3,0xfa,0xdf,0xff,0xff,0xff,0xff,0xff,0xff,0xbf,
 0xbb,0xae,0x43,0x07,0x00,0x00,0x00,0x00,0x00,0x00,0x00,0x00,0x00,0x40,0x00,
 0x20,0x41,0x82,0x24,0x4b,0xa9,0x55,0x55,0x4f,0x55,0xab,0xea,0xab,0xea,0x5a,
 0xdd,0xba,0xaa,0xd6,0x1b,0x03,0xfc,0x2f,0x7e,0xef,0x5b,0xdf,0xc1,0xda,0x5d,
 0xab,0xff,0xff,0xff,0xff,0x7f,0x2f,0xc0,0xea,0xc1,0xf3,0xff,0xff,0xff,0xff,
 0xff,0xff,0xff,0xff,0xff,0xff,0xff,0xff,0xff,0xff,0xff,0xff,0xff,0xff,0xff,
 0xff,0xff,0xff,0xff,0xff,0xff,0xff,0xff,0xff,0xff,0xff,0x07,0x03,0xfc,0x87,
 0xbf,0x5f,0x37,0x01,0x3c,0x00,0xd0,0xf6,0xff,0xff,0xff,0xff,0xbf,0x20,0x04,
 0x00,0x3e,0xe0,0xff,0xff,0xff,0xff,0xff,0xff,0xff,0xff,0xff,0xff,0xff,0xff,
 0xff,0xff,0xff,0xff,0xff,0xff,0xff,0xff,0xff,0xff,0xff,0xff,0xff,0xff,0xff,
 0xff,0xff,0xff,0x07,0x03,0xfc,0xc2,0xef,0xfa,0xed,0x52,0x20,0x91,0x4a,0x9b,
 0xff,0xff,0xff,0xff,0x1f,0x0a,0x01,0x00,0x00,0xc8,0xff,0xff,0xff,0xff,0xff,
 0xff,0xff,0xff,0xff,0xff,0xff,0xff,0xff,0xff,0xff,0xff,0xff,0xff,0xff,0xff,
 0xff,0xff,0xff,0xff,0xff,0xff,0xff,0xff,0xff,0xff,0x13,0x03,0xfc,0xf1,0xdf,
 0xb7,0x03,0x00,0x58,0x02,0xb1,0xe4,0xff,0xff,0xff,0xff,0x5f,0x81,0x00,0x00,
 0x00,0xa0,0xee,0x7f,0xff,0xff,0xff,0xff,0xff,0xff,0xff,0xff,0xff,0xff,0xff,
 0xff,0xff,0xff,0xff,0xff,0x7f,0xf7,0xff,0xff,0xdf,0xf6,0xff,0xff,0xef,0xff,
 0xff,0x7f,0x07,0x03,0x5c,0xf8,0x7d,0xaf,0xbf,0x7f,0xcf,0x56,0x4a,0xfd,0xfd,
 0xfa,0xff,0xff,0x1f,0x24,0x02,0x00,0x00,0x00,0x12,0x80,0x00,0x10,0x02,0x00,
 0x20,0x20,0x00,0x00,0x44,0x04,0x02,0x00,0x00,0x00,0x00,0x08,0x40,0x09,0x00,
 0x00,0x50,0x09,0x00,0x00,0x10,0x00,0x00,0xa0,0x00,0x03,0x14,0xfe,0xd7,0xfb,
 0xb6,0xd3,0x4d,0x06,0x88,0x9a,0xfe,0xff,0xff,0xff,0x3f,0x04,0x00,0x00,0x00,
 0x80,0x40,0x24,0x92,0x84,0x10,0x00,0x09,0x0a,0x52,0x92,0x00,0x10,0x48,0x55,
 0x12,0x10,0x49,0x02,0x01,0x40,0x49,0x00,0x02,0x10,0x49,0x92,0x04,0x92,0x54,
 0x09,0x00,0x03,0x0c,0xbf,0xfe,0xae,0xdd,0xdc,0x45,0x42,0x41,0x4c,0xff,0xff,
 0xff,0xff,0xbb,0x10,0x00,0x00,0x00,0x00,0x00,0x00,0x00,0x00,0xc0,0x3f,0x00,
 0x00,0x00,0x00,0xfe,0xc3,0x03,0x00,0xc0,0x03,0x00,0x00,0xfc,0x06,0x00,0x3e,
 0x00,0x00,0x00,0x00,0x00,0x00,0x00,0x00,0x00,0x03,0xc4,0xbf,0xdb,0x55,0x77,
 0xf7,0x6c,0x03,0x10,0x7c,0xff,0xff,0xff,0xff,0x3b,0x02,0x00,0x00,0x00,0x00,
 0x00,0x00,0x00,0x00,0xc0,0xff,0x00,0x00,0x07,0x00,0xfe,0xcf,0x03,0x00,0xc0,
 0x03,0x00,0x00,0xfc,0x0f,0x00,0x3e,0x00,0x00,0x00,0x00,0x00,0x00,0x00,0x00,
 0x00,0x03,0xf0,0xef,0x6e,0x5f,0x00,0x00,0xb8,0x81,0x4a,0x81,0xff,0xff,0xff,
 0xff,0x39,0x00,0x00,0x00,0x00,0x00,0x00,0x00,0x00,0x00,0xc0,0xff,0x01,0x80,
 0x07,0x00,0xfe,0xdf,0x0b,0x00,0xc0,0x0b,0x00,0x00,0xfc,0x3f,0x00,0x3e,0x00,
 0x00,0x00,0x00,0x00,0x00,0x00,0x00,0x00,0x03,0xf8,0xb7,0xdf,0xa5,0x92,0x02,
 0x00,0x00,0x80,0xe0,0xe7,0xff,0xff,0xff,0x38,0x01,0x00,0x00,0x00,0x00,0x00,
 0x00,0x00,0x00,0xc0,0xfb,0x83,0x83,0x17,0x1c,0x5e,0x1f,0xc4,0xc1,0xc3,0xcf,
 0xc3,0xe3,0xbc,0x3f,0x38,0xfe,0xe3,0x70,0xf8,0x83,0x3f,0x38,0xdc,0x00,0x00,
 0x03,0xfc,0x69,0x75,0x2b,0x25,0x00,0x00,0x04,0x00,0xf2,0x03,0xff,0xff,0xff,
 0x3c,0x00,0x00,0x00,0x00,0x00,0x00,0x00,0x00,0x00,0xc0,0xd7,0xf7,0xef,0x9f,
 0x7f,0xbe,0xfe,0xf3,0xfb,0xcf,0xf3,0xcf,0xf3,0x7c,0x7d,0xfe,0xfe,0xe7,0x79,
 0xfe,0xe7,0x7f,0xfe,0xfe,0x01,0x00,0x03,0xfc,0xd4,0x5f,0x55,0x01,0x01,0xf8,
 0xde,0x3f,0xf0,0xaa,0xfe,0xff,0x7f,0x38,0x00,0x00,0x00,0x00,0x00,0x00,0x00,
 0x00,0x00,0xc0,0xcb,0xf7,0xff,0xdf,0xff,0x5e,0xfe,0xfb,0xff,0xdf,0xff,0xdf,
 0xf3,0xbc,0x7c,0xff,0xfc,0xef,0x79,0xff,0xf7,0x7f,0xff,0xfc,0x01,0x00,0x03,
 0x3c,0x6a,0xb5,0x8a,0x04,0x00,0xec,0x53,0x25,0xf7,0x6f,0xfe,0xff,0x1f,0x74,
 0x00,0x00,0x00,0x00,0x00,0x00,0x00,0x00,0x00,0xc0,0xcf,0x17,0x9e,0x5f,0xf8,
 0x7e,0xfc,0x7b,0xf8,0xff,0x0b,0xdf,0xf3,0xfd,0xfc,0xe7,0xbf,0xef,0x79,0x9f,
 0xf7,0xfd,0xe7,0xff,0x07,0x00,0x03,0x1c,0xb9,0xdd,0x52,0x28,0x00,0xac,0x6a,
 0x35,0x17,0x31,0xfe,0xff,0x07,0x75,0x00,0x00,0x00,0x00,0x00,0x00,0x00,0x00,
 0x00,0xc0,0xc7,0xcf,0xbf,0x2f,0xff,0x5e,0xfc,0xfb,0x7b,0xfc,0xe7,0xbf,0x77,
 0x7d,0xfc,0xff,0x7d,0xff,0x7b,0xef,0x7f,0xfd,0xff,0x3d,0x01,0x00,0x03,0x84,
 0xca,0x26,0x29,0x01,0x00,0xec,0xfa,0x34,0x70,0xf1,0xfa,0xff,0x00,0xf2,0x00,
 0x00,0x00,0x00,0x00,0x00,0x00,0x00,0x00,0xc0,0xcb,0xf7,0x9f,0xd7,0xff,0x3e,
 0xfe,0xe3,0xfb,0xfd,0xfb,0x9f,0xff,0xbd,0xfc,0xff,0x3f,0xfe,0xf3,0x9f,0xff,
 0xba,0xff,0xff,0x02,0x00,0x03,0x10,0x54,0xb5,0x02,0x04,0x00,0x00,0x00,0x00,
 0x00,0x00,0xfc,0xd6,0xe1,0xf4,0x00,0x00,0x00,0x00,0x00,0x00,0x00,0x00,0x00,
 0xc0,0xe3,0xfb,0xbf,0xc7,0xf7,0x5e,0xfe,0xcf,0x7b,0xfc,0xfb,0x3e,0xbf,0x3c,
 0xbe,0x07,0x7e,0xef,0x79,0x8f,0x7f,0xfd,0x0f,0x7e,0x00,0x00,0x03,0x40,0x69,
 0x55,0x8c,0x00,0x00,0x00,0x38,0x09,0xd2,0xd0,0x6c,0xff,0x79,0xfe,0x00,0x00,
 0x00,0x00,0x00,0x00,0x00,0x00,0x00,0xc0,0xff,0x7f,0xbe,0xff,0xf3,0xfe,0xdf,
 0xdb,0xff,0xff,0x7f,0x5e,0xff,0xfc,0xbf,0xdf,0xfe,0xff,0x7f,0xff,0xf7,0xbf,
 0xdf,0xbe,0x00,0x00,0x03,0x10,0xea,0x06,0x00,0x00,0x00,0x00,0xac,0x28,0xef,
 0xb0,0xde,0xff,0x3f,0xf2,0x00,0x00,0x00,0x00,0x00,0x00,0x00,0x00,0x00,0xc0,
 0xff,0xfb,0xbf,0xdf,0xff,0xfe,0xdf,0xfb,0xfb,0xdf,0xfb,0x3f,0x7f,0xfd,0x7f,
 0xff,0xfe,0xef,0xff,0xfe,0xf7,0x7f,0xff,0x7e,0x00,0x00,0x03,0x40,0x7d,0xfb,
 0xff,0xea,0x3f,0x4a,0xac,0x3c,0x27,0xb0,0xf3,0x05,0x3f,0x02,0x00,0x00,0x00,
 0x00,0x00,0x00,0x00,0x00,0x00,0xc0,0xff,0xfa,0xbf,0xdf,0xf7,0xff,0xd7,0xff,
 0xfb,0xef,0xff,0x3e,0xde,0xfc,0x6f,0xfe,0xfe,0xd7,0xf7,0xbe,0xf7,0xff,0xfe,
 0xbe,0x00,0x00,0x03,0x10,0x34,0x6b,0xa5,0xab,0x68,0xee,0xbc,0xf4,0x35,0xe8,
 0xf1,0x8d,0x3f,0x01,0x00,0x00,0x00,0x00,0x00,0x00,0x00,0x00,0x00,0x00,0x56,
 0x47,0x51,0x2e,0x46,0x61,0x3a,0x44,0x7d,0x35,0xc5,0x28,0x7e,0x60,0x39,0x38,
 0x51,0x3d,0xbb,0xc0,0x07,0xfc,0x38,0x61,0x00,0x00,0x03,0x80,0x14,0xe9,0xbd,
 0xad,0x2e,0xf7,0xa4,0x54,0x35,0x48,0xfb,0x8e,0x30,0x03,0x00,0x00,0x00,0x00,
 0x00,0x00,0x00,0x00,0x00,0x00,0xdb,0xa2,0x75,0x78,0xda,0xb5,0x17,0xaf,0x7b,
 0x1d,0xce,0xf9,0x5f,0xb0,0x2f,0xe8,0xe3,0x06,0xcd,0xfe,0xff,0x7f,0xd0,0xb3,
 0x00,0x00,0x03,0x20,0x14,0xcb,0x6e,0xbf,0x3b,0x00,0xe6,0x57,0x35,0x48,0xee,
 0xfa,0x13,0x01,0x00,0x00,0x00,0x00,0x00,0x00,0x00,0x00,0x00,0x00,0x44,0x00,
 0x01,0x0a,0x08,0x80,0x00,0x80,0xf8,0x40,0x00,0xc1,0x6f,0x40,0x00,0x20,0x00,
 0x12,0x0a,0xfe,0xe7,0xbf,0x41,0x80,0x00,0x00,0x03,0x80,0x40,0x06,0x00,0x00,
 0x00,0x00,0x00,0x00,0x80,0x07,0xe8,0x00,0x08,0x03,0x00,0x00,0x00,0x00,0x00,
 0x00,0x00,0x00,0x00,0x00,0x00,0x00,0x00,0x00,0x00,0x00,0x00,0x00,0x78,0x02,
 0x00,0xc0,0x37,0x00,0x00,0x80,0x00,0x00,0x00,0xfe,0xef,0x7f,0x20,0x00,0x00,
 0x00,0x03,0x00,0x15,0x40,0x00,0x00,0x00,0x00,0x00,0x00,0x00,0x00,0xf0,0x01,
 0x00,0x00,0x00,0x00,0x00,0x00,0x00,0x02,0x00,0x00,0x00,0x00,0x00,0x00,0x00,
 0x00,0x00,0x00,0x00,0x00,0xc0,0x00,0x00,0x00,0x3b,0x00,0x00,0x00,0x00,0x00,
 0x00,0x70,0x0a,0xd7,0x01,0x00,0x00,0x00,0x03,0x10,0x40,0x12,0x00,0x00,0x00,
 0x00,0x00,0x00,0x00,0x00,0x80,0x00,0x00,0x00,0x00,0x00,0x00,0x00,0x10,0x00,
 0x00,0x00,0x00,0x00,0x00,0x00,0x00,0x00,0x00,0x00,0x00,0x00,0xc0,0x01,0x00,
 0x00,0x0d,0x00,0x00,0x00,0x00,0x00,0x00,0xd0,0x0b,0x2d,0x00,0x00,0x00,0x00,
 0x03,0x00,0x92,0x04,0x00,0x00,0x00,0x00,0x00,0x00,0x00,0x00,0x00,0x00,0x00,
 0x00,0x00,0x00,0x00,0x00,0x00,0x00,0x00,0x00,0x00,0x00,0x00,0x00,0x00,0x00,
 0x00,0x00,0x00,0x00,0x00,0x00,0x00,0x00,0x22,0x00,0x00,0x00,0x00,0x00,0x00,
 0x08,0x02,0x50,0x00,0x00,0x00,0x00,0x03,0x00,0x08,0x00,0x00,0x00,0x00,0x00,
 0x00,0x00,0x00,0x00,0x00,0x00,0x00,0x00,0x00,0x00,0x04,0x40,0x00,0x00,0x00,
 0x00,0x00,0x00,0x00,0x00,0x00,0x00,0x00,0x00,0x00,0x00,0x00,0x00,0x00,0x00,
 0x04,0x00,0x00,0x00,0x00,0x00,0x00,0x80,0x00,0x04,0x00,0x00,0x00,0x00,0x03,
 0x00,0x20,0x00,0x00,0x00,0x00,0x00,0x00,0x00,0x00,0x00,0x00,0x00,0x00,0x00,
 0x00,0x00,0x00,0x01,0x00,0x00,0x04,0x00,0x00,0x00,0x00,0x00,0x00,0x00,0x00,
 0x00,0x00,0x00,0x00,0x00,0x00,0x00,0x00,0x00,0x00,0x00,0x00,0x00,0x00,0x00,
 0x00,0x00,0x00,0x00,0x00,0x00,0x03,0x00,0x00,0x00,0x00,0x00,0x00,0x00,0x00,
 0x00,0x00,0x00,0x00,0x00,0x00,0x00,0x00,0x00,0x00,0x00,0x00,0x00,0x00,0x41,
 0x00,0x00,0x00,0x00,0x00,0x00,0x00,0x00,0x00,0x00,0x00,0x00,0x00,0x00,0x00,
 0x00,0x00,0x00,0x00,0x00,0x00,0x00,0x00,0x00,0x00,0x00,0x00,0x00,0x03,0x00,
 0x00,0x00,0x00,0x00,0x00,0x00,0x00,0x00,0x00,0x00,0x00,0x00,0x00,0x00,0x00,
 0x00,0x00,0x00,0x00,0x00,0x00,0x00,0x00,0x00,0x00,0x00,0x00,0x00,0x00,0x00,
 0x00,0x00,0x00,0x00,0x00,0x00,0x00,0x00,0x00,0x00,0x00,0x00,0x00,0x00,0x00,
 0x00,0x00,0x00,0x00,0x00,0x03,0xfe,0xff,0xff,0xff,0xff,0xff,0xff,0xff,0xff,
 0xff,0xff,0xff,0xff,0xff,0xff,0xff,0xff,0xff,0xff,0xff,0xff,0xff,0xff,0xff,
 0xff,0xff,0xff,0xff,0xff,0xff,0xff,0xff,0xff,0xff,0xff,0xff,0xff,0xff,0xff,
 0xff,0xff,0xff,0xff,0xff,0xff,0xff,0xff,0xff,0xff,0xff,0xff,0x03,0xff,0xff,
 0xff,0xff,0xff,0xff,0xff,0xff,0xff,0xff,0xff,0xff,0xff,0xff,0xff,0xff,0xff,
 0xff,0xff,0xff,0xff,0xff,0xff,0xff,0xff,0xff,0xff,0xff,0xff,0xff,0xff,0xff,
 0xff,0xff,0xff,0xff,0xff,0xff,0xff,0xff,0xff,0xff,0xff,0xff,0xff,0xff,0xff,
 0xff,0xff,0xff,0xff,0x03};
