/* XPM */
static char * mini_ddd_xpm[] = {
/* $Id$
 * Minature DDD Logo.  Copyright (C) 1997, 1998 TU Braunschweig, Germany.
 * For details on DDD, see `http://www.cs.tu-bs.de/softech/ddd/'.
 * width height ncolors chars_per_pixel */
"  14    14     6       1",
/* Colors */
"       c None      m None  g None   g4 None   s Background ",
".	c black     m black g black  g4 black  s Legs       ",
",	c grey50    m black g grey50 g4 grey50 s Stripe     ",
"X	c grey90    m white g grey75 g4 grey75 s Soil       ",
"o      c blue      m black g grey25 g4 grey25 s Handle1    ",
"*	c white     m white g white  g4 white  s Light2     ",
/* Pixels */
"    oooooo    ",
"  oo**XX..oo  ",
" o**XX..XXX.o ",
" o**X....X.Xo ",
"o**.,,,,,,.XXo",
"o*XXX....XXXXo",
"o*X.,,,,,,.XXo",
"o..X......X..o",
"oXXX.,,,,.XXXo",
"oXX........XXo",
" o.XX.,,.XX.oo",
" o.XXX..XXX.oo",
"  oo XXXXooooo",
"    oooooooooo"};
