/* XPM */
static char * breakat_xx_xpm[] = {
"29 29 4 1",
" 	c none   m none   s Background",
".	c grey50 m black",
"X	c white  m white",
"o	c grey50 m black",
"        .................    ",
"        .XXXXXXXXXXXXXXX.o   ",
"      .......XX........X.o   ",
"     .........XXXXXXXXXX.o   ",
"    ...........XX......X.o   ",
"   .............XXXXXXXX.o   ",
"  ...............XX.X.XX.o   ",
"  .XXXXXXXXX.XXX.X.XXX.X.o   ",
"  .X...X.X.X.X.X.X.XXX.X.o   ",
"  .XXX.X.X.X.X.X.X.XXX.X.o   ",
"  ...X.X.X.X.XXX.XX.X.XX.o   ",
"  .XXX.X.XXX.X...XXXXXXX.o   ",
"  ...............X.....X.o   ",
"   .............XXXXXXXX.o   ",
"    ...........XX......X.o   ",
"     .........XXXXXXXXXX.o   ",
"      .......XX........X.o   ",
"        .XXXXXXXXXXXXXXX.o   ",
"        .................o   ",
"         ooooooooooooooooo   ",
"                             ",
"                             ",
"   ...                 .     ",
"   .  . . .  ..  ...   .  .  ",
"   ...  ..  .  .    .  . .   ",
"   .  . .   .... ....  ..    ",
"   .  . .   .    .  .  . .   ",
"   ...  .    ...  .. . .  .  ",
"                             "};
