/* XPM */
static char * breakat_xx_xpm[] = {
"29 25 5 1",
" 	c none   m none   s Background",
"X	c grey50 m black",
"_	c grey75 m white",
"o	c grey50 m black",
"# 	c grey25 m black",
"                             ",
"           #######           ",
"          #########          ",
"         ###########         ",
"        #############        ",
"       ###############       ",
"       #_________#___#       ",
"       #_###_#_#_#_#_#       ",
"       #___#_#_#_#_#_#       ",
"       ###_#_#_#_#___#       ",
"       #___#_#___#_###       ",
"       ###############       ",
"        #############        ",
"         ###########         ",
"          #########          ",
"           #######           ",
"                             ",
"                             ",
"   XXX                 X     ",
"   X  X X X  XX  XXX   X  X  ",
"   XXX  XX  X  X    X  X X   ",
"   X  X X   XXXX XXXX  XX    ",
"   X  X X   X    X  X  X X   ",
"   XXX  X    XXX  XX X X  X  ",
"                             "};
