/* XPM */
static char * breakat_xx_xpm[] = {
"29 29 5 1",
" 	c none   m none   s Background",
"X	c grey50 m black",
"_	c grey75 m white",
"o	c grey50 m black",
"# 	c grey25 m black",
"        XXXXXXXXXXXXXXXXX    ",
"        X_______________Xo   ",
"      #######__XXXXXXXX_Xo   ",
"     #########__________Xo   ",
"    ###########__XXXXXX_Xo   ",
"   #############________Xo   ",
"  ###############__X_X__Xo   ",
"  #_________#___#_X___X_Xo   ",
"  #_###_#_#_#_#_#_X___X_Xo   ",
"  #___#_#_#_#_#_#_X___X_Xo   ",
"  ###_#_#_#_#___#__X_X__Xo   ",
"  #___#_#___#_###_______Xo   ",
"  ###############_XXXXX_Xo   ",
"   #############________Xo   ",
"    ###########__XXXXXX_Xo   ",
"     #########__________Xo   ",
"      #######__XXXXXXXX_Xo   ",
"        X_______________Xo   ",
"        XXXXXXXXXXXXXXXXXo   ",
"         ooooooooooooooooo   ",
"                             ",
"                             ",
"   XXX                 X     ",
"   X  X X X  XX  XXX   X  X  ",
"   XXX  XX  X  X    X  X X   ",
"   X  X X   XXXX XXXX  XX    ",
"   X  X X   X    X  X  X X   ",
"   XXX  X    XXX  XX X X  X  ",
"                             "};
