#define breakat_xx_width 29
#define breakat_xx_height 29
static char breakat_xx_bits[] = {
 0x00,0xaa,0x4a,0x01,0x00,0x01,0x00,0x01,0x80,0x14,0x55,0x02,0x40,0x2b,0x00,
 0x01,0xb0,0x54,0x54,0x02,0x48,0x55,0x00,0x01,0xa8,0xaa,0x21,0x02,0x04,0x10,
 0x04,0x01,0x50,0x01,0x41,0x02,0x04,0x54,0x04,0x01,0x48,0x01,0x21,0x02,0x04,
 0x90,0x00,0x01,0x68,0x55,0x29,0x02,0x50,0x55,0x00,0x01,0x50,0x55,0x2a,0x01,
 0x40,0x15,0x00,0x02,0x40,0x15,0x55,0x01,0x00,0x01,0x00,0x02,0x00,0xaa,0xaa,
 0x02,0x00,0x54,0x55,0x01,0x00,0x00,0x00,0x00,0x00,0x00,0x00,0x00,0x28,0x00,
 0x80,0x00,0x00,0x24,0x0a,0x00,0x28,0x81,0x80,0x02,0x08,0x51,0x94,0x00,0x40,
 0x00,0x02,0x02,0x10,0xa1,0x88,0x00,0x00,0x00,0x00,0x00};
