/* XPM */
static char * clearat_xpm[] = {
"29 29 4 1",
" 	c #BFBFBFBFBFBF",
".	c #656565656565",
"X	c #FFFFFFFFFFFF",
"o	c #000000000000",
"      ..  XXXXXXXXX  ..      ",
"     .oo.XXXXXXXXXXX.oo.     ",
"     .ooo.XoooooooX.ooo.     ",
"      .ooo.ooooooo.ooo.      ",
"      X.ooo.ooooo.ooo.X      ",
"     XXX.ooo.ooo.ooo.XXX     ",
"     XXoo.ooo.o.ooo.ooXX     ",
"     XXoXX.ooo.ooo.XXoXX     ",
"     XXoXoo.ooooo.XoXoXX     ",
"     XXoXXXo.ooo.oXoXoXX     ",
"     XXoooX.ooooo.XXXoXX     ",
"     XXoXX.ooo.ooo.oooXX     ",
"     XXoo.ooo.o.ooo.ooXX     ",
"     XXX.ooo.ooo.ooo.XXX     ",
"      X.ooo.ooooo.ooo.X      ",
"      .ooo.ooooooo.ooo.      ",
"     .ooo.XoooooooX.ooo.     ",
"     .oo.XXXXXXXXXXX.oo.     ",
"      ..  XXXXXXXXX  ..      ",
"                             ",
"                             ",
"                             ",
"     ooo o                   ",
"    o    o  oo  ooo   o o    ",
"    o    o o  o    o  oo     ",
"    o    o oooo oooo  o      ",
"    o    o o    o  o  o      ",
"     ooo o  ooo  oo o o      ",
"                             "};
