#define clearat_xx_width 29
#define clearat_xx_height 29
static char clearat_xx_bits[] = {
 0x00,0x55,0x55,0x01,0x00,0x00,0x00,0x00,0x48,0x95,0x54,0x03,0xa8,0x2a,0x01,
 0x00,0xa8,0xaa,0x28,0x03,0x50,0x55,0x00,0x00,0x54,0x55,0x21,0x03,0x80,0x14,
 0x44,0x00,0x54,0x15,0x01,0x03,0x40,0x45,0x44,0x00,0x14,0x15,0x21,0x03,0x40,
 0x89,0x00,0x00,0x54,0xb5,0x54,0x01,0xa8,0xaa,0x00,0x02,0x50,0x55,0x28,0x01,
 0x54,0x55,0x01,0x02,0x88,0x8a,0x54,0x01,0x00,0x01,0x00,0x02,0x00,0xaa,0xaa,
 0x02,0x00,0x54,0x55,0x01,0x00,0x00,0x00,0x00,0x00,0x00,0x00,0x00,0x40,0x02,
 0x00,0x00,0x10,0x20,0x42,0x00,0x00,0x0a,0x88,0x00,0x10,0x50,0x05,0x00,0x00,
 0x02,0x48,0x00,0xa0,0x50,0x02,0x00,0x00,0x00,0x00,0x00};
