/* XPM */
static char * cluster_xpm[] = {
"29 25 7 1",
" 	c none   g none   m none  s Background",
".      c white  g white  m white",
":	c grey75 g grey75 m white",
"o	c grey50 g grey50 m black",
"@	c grey25 g grey25 m black",
"#	c blue4  g black  m black",
"X	c black  g black  m black",
"                             ",
"                             ",
"             ##              ",
"             ##              ",
"      XXXXXX ## XXXXXX       ",
"      X......##......Xo      ",
"      X.....####.....Xo      ",
"       ...#..##..#...        ",
"   #########....#########    ",
"   #########....#########    ",
"       ...#..##..#...        ",
"      X.....####.....Xo      ",
"      X......##......Xo      ",
"      XXXXXX ## XXXXXXo      ",
"       ooooo ## ooooooo      ",
"             ##              ",
"                             ",
"                             ",
" XXX X            X          ",
"X    X X  X  XXX XXX  XX  X X",
"X    X X  X X     X  X  X XX ",
"X    X X  X  XX   X  XXXX X  ",
"X    X X  X    X  X  X    X  ",
" XXX X  XX  XXX   X   XXX X  ",
"                             "};
