/* XPM */
static char * deref_xpm[] = {
"29 25 9 1",
" 	c none   m none  s Background",
"_	c white  m white",
"-	c white  m white",
".      c white  m white",
":	c grey75 m white",
"o	c grey50 m black",
"@	c grey25 m black",
"+	c black  m black",
"X	c black  m black",
"                _ __ X_      ",
"              _ __X__X__X    ",
"             _ ____X_X_X-    ",
"              _____-XXX--    ",
"             _     X-X_X     ",
"             :@@@@: -X-_X    ",
"             @:.@@+: X___    ",
"            @:.:@@X+ -_-     ",
"         XX +@@@XX@X _-__    ",
"        +.@@..XXXX@X -- _    ",
"        @@:..:X+X+X@ _ _     ",
"       @:..:@@X++X@o_ _ _    ",
"     @@..:@@@X+@ooo  :o::    ",
"    @:.:@@@X+@     :@oooo    ",
"    XX@@@X+@    :@@@@@@o:    ",
"    @XX@X@oo :o@@@oo:        ",
"    :+X+ooooooo:             ",
"                             ",
"    XXX  X                   ",
"    X  X    XXX XXX    X     ",
"    X  X X X    X  X X X X   ",
"    X  X X  XX  X  X  XXX    ",
"    X  X X    X X  X X X X   ",
"    XXX  X XXX  XXX    X     ",
"                X            "};
