#define deref_xx_width 29
#define deref_xx_height 29
static unsigned char deref_xx_bits[] = {
 0x00,0x00,0x00,0x00,0x00,0x00,0x00,0x00,0x00,0x00,0x00,0x00,0x00,0x54,0x55,
 0x05,0x00,0x02,0x00,0x04,0x00,0xf4,0x55,0x09,0x00,0x02,0x00,0x0a,0x00,0xb4,
 0xfe,0x05,0x00,0x82,0x00,0x04,0x80,0x28,0x04,0x09,0xaa,0xa2,0x54,0x04,0x40,
 0x8a,0x22,0x0a,0x00,0x30,0x92,0x04,0x00,0xaa,0x24,0x09,0x00,0x22,0x49,0x04,
 0x00,0x08,0x12,0x0a,0x00,0xa2,0x40,0x04,0x00,0x5a,0x5d,0x0b,0x00,0xa8,0x52,
 0x05,0x00,0x00,0x00,0x00,0x00,0x00,0x00,0x00,0x00,0x00,0x00,0x00,0x20,0x02,
 0x00,0x00,0x90,0x20,0x05,0x01,0x00,0x08,0x40,0x00,0x90,0x12,0x89,0x02,0x00,
 0x40,0x00,0x01,0x50,0x12,0x05,0x00,0x00,0x00,0x00,0x00};
