/* XPM */
static char * deref_xpm[] = {
"29 25 9 1",
" 	c none   m none  s Background",
"_	c white  m white",
"-	c white  m white",
".      c white  m white",
":	c grey75 m white",
"o	c grey50 m black",
"@	c grey25 m black",
"+	c black  m black",
"X	c black  m black",
"                ___ __       ",
"              _ ____X__ _    ",
"             _ ___X_X_X--    ",
"              ____-XXX-- _   ",
"             _    X-X_X _    ",
"             :@@@@:-X-__ _   ",
"             @:.@@+:-____    ",
"            @:.:@@X+ -_- _   ",
"         XX +@@@XX@X _-__    ",
"        +.@@..XXXX@X -- _    ",
"        @@:..:X+X+X@ _ _ _   ",
"       @:..:@@X++X@o_ _ _    ",
"     @@..:@@@X+@ooo  :o:o:   ",
"    @:.:@@@X+@     :@ooooo   ",
"    XX@@@X+@    :@@@@@@oo:   ",
"    @XX@X@oo :o@@@oo:        ",
"    :+X+ooooooo:             ",
"                             ",
"    XXX  X                   ",
"    X  X    XXX XXX    X     ",
"    X  X X X    X  X X X X   ",
"    X  X X  XX  X  X  XXX    ",
"    X  X X    X X  X X X X   ",
"    XXX  X XXX  XXX    X     ",
"                X            "};
