/* XPM */
static char * deref_xx_xpm[] = {
"29 29 4 1",
" 	c none   m none   s Background",
".	c grey50 m black",
"X	c grey75 m white",
"o	c grey50 m black",
"                             ",
"   .......................   ",
"   .XXXXXXXXXXXXXXXXXXXXX.o  ",
"   .X......XXXXXXXXXXXXXX.o  ",
"   .XXXXXXXXXXXXXXXXXXXXX.o  ",
"   .......................o  ",
"   .XXXXXXXXXXXXXXXXXXXXX.o  ",
"   .XXXXXXXXXXXXXXXXXXXXX.o  ",
"   .XXX.XXXXX.XX.XXXXXXXX.o  ",
"   .X.X.X.XX.XXXX.XXXXXXX.o  ",
"   .XX...XXX.XXXX.XXXXXXX.o  ",
"   .X.X.X.XX.XXXX.XXXXXXX.o  ",
"   .XXX.XXXXX.XX.XXXXXXXX.o  ",
"   .XXXXXXXXXXXXXXXXXXXXX.o  ",
"   .XXXXXXXXXXXXXXXXXXXXX.o  ",
"   .XXXXXXXXXXXXXXXXXXXXX.o  ",
"   .......................o  ",
"    ooooooooooooooooooooooo  ",
"                             ",
"                             ",
"                             ",
"                             ",
"    ...  .                   ",
"    .  .    ... ...     .    ",
"    .  . . .    .  .  . . .  ",
"    .  . .  ..  .  .   ...   ",
"    .  . .    . .  .  . . .  ",
"    ...  . ...  ...     .    ",
"                .            "};
