#define deref_width 29
#define deref_height 25
static unsigned char deref_bits[] = {
 0x00,0x00,0x00,0x00,0x00,0x00,0x10,0x00,0x00,0x00,0x40,0x00,0x00,0x00,0x18,
 0x00,0x00,0x00,0x40,0x00,0x00,0x80,0x12,0x00,0x00,0x20,0x05,0x00,0x00,0x00,
 0x02,0x00,0x00,0x52,0x0d,0x00,0x00,0x88,0x02,0x00,0x00,0x43,0x0d,0x00,0x00,
 0xa0,0x02,0x00,0x20,0xa8,0x06,0x01,0x00,0x2a,0xa0,0x00,0xb0,0x05,0x54,0x01,
 0xa0,0x8a,0x0a,0x00,0x40,0x55,0x00,0x00,0x00,0x00,0x00,0x00,0x50,0x02,0x00,
 0x00,0x00,0x50,0x82,0x00,0x90,0x00,0x09,0x02,0x00,0x22,0xc0,0x00,0x90,0x00,
 0x09,0x02,0x20,0x2a,0x82,0x00,0x00,0x00,0x01,0x00};
