/* XPM */
static char * disable_xpm[] = {
"29 25 6 1",
" 	c none    g none    m none   s Background",
"X	c black   g black   m black",
"_	c grey50  g grey50  m black",
"o	c grey50  g grey50  m black",
"# 	c grey50  g grey50  m black",
". 	c white   g white   m white",
"                             ",
"    X      #.#.#.#     X     ",
"     X    #.#.#.#.#   X      ",
"         #.#.#.#.#.#         ",
"        #.#.#.#.#.#.#        ",
"       #.............#       ",
"       ._________.___.       ",
"       #_..._._._._._#       ",
"    XX .___._._._._._. XX    ",
"       #.._._._._.___#       ",
"       .___._.___._.#.       ",
"       #.............#       ",
"        #.#.#.#.#.#.#        ",
"         #.#.#.#.#.#         ",
"     X    #.#.#.#.#   X      ",
"    X      #.#.#.#     X     ",
"                             ",
"                             ",
"XXX  X            X    X     ",
"X  X    XXX XXX   XXX  X  XX ",
"X  X X X       X  X  X X X  X",
"X  X X  XX  XXXX  X  X X XXXX",
"X  X X    X X  X  X  X X X   ",
"XXX  X XXX   XX X XXX  X  XXX",
"                             "};
