#define display_width 29
#define display_height 25
static unsigned char display_bits[] = {
 0x00,0x00,0x00,0x00,0x00,0x00,0x00,0x00,0x00,0x00,0x00,0x00,0x00,0x00,0x00,
 0x00,0x00,0x00,0x00,0x00,0x00,0x80,0x02,0x00,0x00,0x20,0x05,0x00,0x00,0x00,
 0x02,0x00,0x00,0x52,0x0d,0x00,0x00,0x48,0x05,0x00,0x00,0x83,0x0a,0x00,0x00,
 0x50,0x05,0x00,0x20,0xa8,0x02,0x01,0x00,0x15,0x60,0x01,0xb0,0x0a,0x9a,0x00,
 0x40,0x45,0x05,0x00,0xa0,0x2a,0x00,0x00,0x00,0x00,0x00,0x00,0x25,0x00,0x02,
 0x00,0x00,0x52,0x28,0x11,0x89,0x00,0x02,0x00,0x20,0x92,0x50,0x08,0x09,0x00,
 0x0a,0x04,0xa2,0x52,0xa0,0x00,0x00,0x10,0x00,0x01};
