#define display_xx_width 29
#define display_xx_height 29
static char display_xx_bits[] = {
 0x00,0x00,0x00,0x00,0xa8,0xaa,0xaa,0x02,0x00,0x00,0x00,0x04,0x48,0x05,0x00,
 0x02,0x00,0x00,0x00,0x04,0xb0,0xaa,0xaa,0x02,0x08,0x00,0x00,0x02,0x40,0x00,
 0x00,0x04,0x08,0x02,0x00,0x02,0x20,0x00,0x00,0x04,0x08,0x02,0x00,0x02,0x40,
 0x00,0x00,0x04,0x08,0x00,0x00,0x02,0x00,0x00,0x00,0x04,0x08,0x00,0x00,0x02,
 0x00,0x00,0x00,0x04,0xa8,0xaa,0xaa,0x02,0x50,0x55,0x55,0x05,0x00,0x00,0x00,
 0x00,0x00,0x00,0x00,0x00,0x00,0x00,0x00,0x00,0x00,0x00,0x00,0x00,0x02,0x00,
 0x02,0x00,0x09,0x52,0x28,0x10,0xa0,0x00,0x02,0x01,0x09,0x92,0x50,0x08,0x20,
 0x00,0x42,0x04,0x85,0x52,0x10,0x00,0x00,0x10,0x00,0x01};
