/* XPM */
static char * enable_xpm[] = {
"29 25 5 1",
" 	c none    g none    m none   s Background",
"X	c black   g black   m black",
"_	c white   g white   m white",
"o	c grey50  g grey50  m black",
"# 	c red4    g grey25  m black",
"                             ",
"    X      #######     X     ",
"     X    #########   X      ",
"         ###########         ",
"        #############        ",
"       ###############       ",
"       #_________#___#       ",
"       #_###_#_#_#_#_#       ",
"    XX #___#_#_#_#_#_# XX    ",
"       ###_#_#_#_#___#       ",
"       #___#_#___#_###       ",
"       ###############       ",
"        #############        ",
"         ###########         ",
"     X    #########   X      ",
"    X      #######     X     ",
"                             ",
"                             ",
" XXXX            X    X      ",
" X    X X  XXX   XXX  X  XX  ",
" XXX  XX X    X  X  X X X  X ",
" X    X  X XXXX  X  X X XXXX ",
" X    X  X X  X  X  X X X    ",
" XXXX X  X  XX X XXX  X  XXX ",
"                             "};
