#define findfwd_xx_width 29
#define findfwd_xx_height 25
static unsigned char findfwd_xx_bits[] = {
 0x00,0x08,0x02,0x00,0x00,0x38,0x0a,0x00,0x00,0x24,0x05,0x00,0x00,0x48,0x14,
 0x00,0x00,0xb5,0x15,0x00,0x80,0x50,0x41,0x00,0x00,0x95,0x35,0x00,0x80,0x60,
 0x41,0x00,0x00,0x9e,0x2d,0x00,0x80,0x45,0x46,0x00,0x00,0xd8,0x29,0x00,0x80,
 0x52,0x42,0x00,0x00,0x15,0x3a,0x00,0x80,0x0c,0x52,0x00,0x00,0x15,0x54,0x00,
 0x00,0x0a,0x28,0x00,0x00,0x00,0x00,0x00,0x00,0x00,0x00,0x00,0x50,0x01,0x04,
 0x00,0x08,0x10,0x02,0x00,0x10,0x84,0x20,0x00,0x08,0x21,0x04,0x02,0x00,0x84,
 0x20,0x01,0x08,0x21,0x05,0x00,0x00,0x00,0x00,0x00};
