#define findfwd_xx_width 29
#define findfwd_xx_height 29
static char findfwd_xx_bits[] = {
 0x80,0xaa,0x2a,0x00,0x40,0x00,0x80,0x00,0x00,0xa8,0x4a,0x00,0x40,0x00,0x80,
 0x00,0x00,0x80,0x58,0x00,0x40,0x10,0x80,0x00,0x00,0x00,0x49,0x00,0x40,0x10,
 0x80,0x00,0x00,0x80,0x54,0x00,0x40,0x00,0x80,0x00,0x00,0xa0,0x48,0x00,0x40,
 0x40,0x80,0x00,0x00,0xa0,0x48,0x00,0x40,0x50,0x81,0x00,0x00,0x50,0x49,0x00,
 0x40,0x40,0x80,0x00,0x00,0x48,0x54,0x00,0x40,0x00,0x80,0x00,0x80,0xaa,0xaa,
 0x00,0x00,0x55,0x55,0x00,0x00,0x00,0x00,0x00,0x00,0x00,0x00,0x00,0x50,0x01,
 0x04,0x00,0x08,0x04,0x02,0x00,0x10,0x28,0x04,0x01,0x08,0x81,0x40,0x00,0x00,
 0x24,0x04,0x00,0x08,0x01,0x02,0x00,0x00,0x00,0x00,0x00};
