#define findbwd_xx_width 29
#define findbwd_xx_height 29
static char findbwd_xx_bits[] = {
 0x80,0xaa,0x2a,0x00,0x40,0x00,0x80,0x00,0x00,0x40,0x54,0x00,0x40,0x40,0x80,
 0x00,0x00,0x50,0x49,0x00,0x40,0x50,0x81,0x00,0x00,0xa0,0x50,0x00,0x40,0x40,
 0x80,0x00,0x00,0xa8,0x94,0x00,0x40,0x00,0x40,0x00,0x00,0x80,0x88,0x00,0x40,
 0x10,0x40,0x00,0x00,0x00,0x49,0x00,0x40,0x10,0x80,0x00,0x00,0x80,0x54,0x00,
 0x40,0x00,0x80,0x00,0x00,0x50,0x55,0x00,0x40,0x00,0x80,0x00,0x80,0xaa,0xaa,
 0x00,0x00,0x55,0x55,0x00,0x00,0x00,0x00,0x00,0x00,0x00,0x00,0x00,0x28,0x01,
 0x00,0x00,0x00,0x10,0x05,0x00,0x28,0x85,0x04,0x02,0x08,0x20,0x20,0x00,0x00,
 0x85,0x04,0x02,0x08,0x20,0x01,0x00,0x00,0x00,0x00,0x00};
