#define findbwd_xx_width 29
#define findbwd_xx_height 29
static unsigned char findbwd_xx_bits[] = {
 0x40,0x55,0x55,0x00,0x00,0x00,0x40,0x00,0x40,0x00,0x8a,0x00,0x00,0xa0,0x40,
 0x00,0x40,0x50,0x91,0x00,0x00,0xa8,0x40,0x00,0x40,0x40,0x88,0x00,0x00,0xa0,
 0x40,0x00,0x40,0xa0,0x94,0x00,0x00,0x00,0x40,0x00,0x40,0x80,0x88,0x00,0x00,
 0x10,0x40,0x00,0x40,0x00,0x49,0x00,0x00,0x10,0x80,0x00,0x40,0x80,0x54,0x00,
 0x00,0x00,0x80,0x00,0x40,0x50,0x55,0x00,0x00,0x00,0x80,0x00,0x40,0x55,0x55,
 0x00,0x80,0xaa,0xaa,0x00,0x00,0x00,0x00,0x00,0x00,0x00,0x00,0x00,0x28,0x01,
 0x04,0x00,0x00,0x10,0x02,0x00,0x28,0x84,0x00,0x02,0x00,0x25,0x24,0x00,0x08,
 0x80,0x40,0x02,0x00,0x25,0x05,0x00,0x00,0x00,0x00,0x00};
