/* XPM */
static char * findbwd_xpm[] = {
"29 29 4 1",
" 	c none   m none   s Background",
".	c black  m black",
"X	c white  m white",
"o	c grey50 m black",
"      .................      ",
"      .XXXXXXXXXXXXXXX.o     ",
"      .XXXX.XX.XX....X.o     ",
"      .XXXXXX...XXXXXX.o     ",
"      .XXXXX.....XX..X.o     ",
"      .XXXX.......XXXX.o     ",
"      .XXXXXX...XXX..X.o     ",
"      .XXXXXX...XXXXXX.o     ",
"      .XXXX.X...XX...X.o     ",
"      .XXXXXXXXXXXXXXX.o     ",
"      .XXXXXX.X.XX...X.o     ",
"      .XXXXX.XXX.XXXXX.o     ",
"      .XXXXX.XXX.X...X.o     ",
"      .XXXXX.XXX.XXXXX.o     ",
"      .XXXXXX.X.XX...X.o     ",
"      .XXXXXXXXXXXXXXX.o     ",
"      .XXXX..........X.o     ",
"      .XXXXXXXXXXXXXXX.o     ",
"      .................o     ",
"       ooooooooooooooooo     ",
"                             ",
"                             ",
"   .... .         .          ",
"   .      . .   ...          ",
"   ...  . .. . .  .   o  o   ",
"   .    . .  . .  .  o  o    ",
"   .    . .  . .  .   o  o   ",
"   .    . .  .  ...          ",
"                             "};
