#define findbwd_xx_width 29
#define findbwd_xx_height 29
static unsigned char findbwd_xx_bits[] = {
 0x40,0x55,0x55,0x00,0x40,0x00,0x40,0x00,0x00,0x55,0x9d,0x00,0xd4,0x50,0x41,
 0x00,0xa0,0x92,0x54,0x00,0xac,0x50,0x83,0x00,0x50,0x12,0x59,0x00,0x84,0x2e,
 0x81,0x00,0x68,0x32,0x5d,0x00,0xb4,0x4c,0x81,0x00,0x80,0x15,0x59,0x00,0xa4,
 0x48,0x82,0x00,0x84,0x8e,0x58,0x00,0xb8,0xb5,0xa2,0x00,0x00,0x26,0x4a,0x00,
 0xe0,0x59,0x91,0x00,0x40,0x55,0x6d,0x00,0x40,0x55,0x95,0x00,0x80,0x20,0x00,
 0x00,0x00,0x00,0x00,0x00,0x00,0x00,0x00,0x00,0x00,0x00,0x00,0x00,0x50,0x00,
 0x00,0x00,0x08,0x04,0x05,0x00,0x10,0x29,0x44,0x00,0x00,0x80,0x00,0x01,0x08,
 0x25,0x04,0x00,0x00,0x00,0x02,0x00,0x00,0x00,0x00,0x00};
