#define findfwd_xx_width 29
#define findfwd_xx_height 29
static unsigned char findfwd_xx_bits[] = {
 0x40,0x55,0x55,0x00,0x00,0x00,0x40,0x00,0x40,0xa8,0x8a,0x00,0x00,0x00,0x40,
 0x00,0x40,0x20,0x94,0x00,0x00,0x00,0x41,0x00,0x40,0x10,0x88,0x00,0x00,0x00,
 0x41,0x00,0x40,0x20,0x94,0x00,0x00,0x00,0x40,0x00,0x40,0x40,0x88,0x00,0x00,
 0xa0,0x40,0x00,0x40,0xa0,0x48,0x00,0x00,0x50,0x81,0x00,0x40,0x50,0x49,0x00,
 0x00,0x40,0x80,0x00,0x40,0x08,0x4a,0x00,0x00,0x00,0x80,0x00,0x40,0x55,0xb5,
 0x00,0x00,0x55,0x55,0x00,0x00,0x00,0x00,0x00,0x00,0x00,0x00,0x00,0x28,0x01,
 0x04,0x00,0x00,0x10,0x02,0x00,0x28,0x84,0x20,0x00,0x08,0x25,0x04,0x02,0x00,
 0x80,0x20,0x01,0x08,0x25,0x05,0x00,0x00,0x00,0x00,0x00};
