/* XPM */
static char * findbwd_xx_xpm[] = {
"29 25 6 1",
" 	c none   m none   s Background",
"#	c grey25 m black",
"X	c grey50 m black",
"_	c grey75 m white",
"o	c grey50 m black",
".	c grey75 m white",
"       XXXXXo    XXXXXo      ",
"       X_.#Xo    X_.#Xo      ",
"       XXXXXo    XXXXXo      ",
"       X_..Xo    X_..Xo      ",
"       X_..Xo.###X_..Xo      ",
"       X_.#Xo.XX.X#..Xo      ",
"       X.#XXX_.#XXX#.Xo      ",
"       X___.#XXX#._..Xo      ",
"       X__..#_.X#._..Xo      ",
"       #.__.#.#X#.__.oo      ",
"        #XXXX#X#XXXXoo       ",
"          .._.#X..ooo        ",
"          #XX#__#XXo         ",
"          _#X#XX_#Xo         ",
"           #Xo   #Xo         ",
"           oo    oo          ",
"                             ",
"                             ",
"   XXXX X         X          ",
"   X      X X   XXX          ",
"   XXX  X XX X X  X   X  X   ",
"   X    X X  X X  X  X  X    ",
"   X    X X  X X  X   X  X   ",
"   X    X X  X  XXX          ",
"                             "};
