#define findfwd_xx_width 29
#define findfwd_xx_height 25
static unsigned char findfwd_xx_bits[] = {
 0x00,0x08,0x02,0x00,0x00,0x38,0x0e,0x00,0x00,0x24,0x01,0x00,0x00,0x90,0x1c,
 0x00,0x00,0x75,0x25,0x00,0x80,0x92,0x21,0x00,0x00,0x98,0x25,0x00,0x80,0x52,
 0x49,0x00,0x00,0x8a,0x2a,0x00,0x80,0x55,0x45,0x00,0x00,0xd8,0x55,0x00,0x80,
 0x52,0x22,0x00,0x00,0x0d,0x2a,0x00,0x80,0x14,0x52,0x00,0x00,0x15,0x2c,0x00,
 0x00,0x0a,0x50,0x00,0x00,0x00,0x00,0x00,0x00,0x00,0x00,0x00,0x28,0x01,0x04,
 0x00,0x00,0x10,0x02,0x00,0x28,0x84,0x24,0x00,0x00,0x25,0x00,0x02,0x08,0x80,
 0x04,0x01,0x00,0x25,0x02,0x00,0x00,0x00,0x00,0x00};
