/* XPM */
static char * findbwd_xx_xpm[] = {
"29 29 6 1",
" 	c none   m none   s Background",
"#	c grey25 m black",
"X	c grey50 m black",
"_	c grey75 m white",
"o	c grey50 m black",
".	c grey75 m white",
"      XXXXXXXXXXXXXXXXX      ",
"      X_______________Xo     ",
"      X____________XX_Xo     ",
"  XXXXXo____XXXXX.____Xo     ",
"  X_.#Xo____X_.#X._XX_Xo     ",
"  XXXXXo____XXXXX.____Xo     ",
"  X_..Xo____X_..X._XX_Xo     ",
"  X_..Xo.###X_..X.____Xo     ",
"  X_.#Xo.XX.X#..X._XX_Xo     ",
"  X.#XXX_.#XXX#.X.____Xo     ",
"  X___.#XXX#._..X._XX_Xo     ",
"  X__..#_.X#._..X.____Xo     ",
"  #.__.#.#X#.__.o._XX_Xo     ",
"   #XXXX#X#XXXXo._____Xo     ",
"     .._.#X..oo._XXXX_Xo     ",
"     #XX#__#XX._______Xo     ",
"     _#X#XX_#XoXXXXXXXXo     ",
"      #Xoooo#Xoooooooooo     ",
"      oo    oo               ",
"                             ",
"                             ",
"                             ",
"   XXXX X         X          ",
"   X      X X   XXX          ",
"   XXX  X XX X X  X   X  X   ",
"   X    X X  X X  X  X  X    ",
"   X    X X  X X  X   X  X   ",
"   X    X X  X  XXX          ",
"                             "};
