#define hide_xx_width 29
#define hide_xx_height 25
static unsigned char hide_xx_bits[] = {
 0x00,0x54,0x00,0x00,0x80,0x02,0x01,0x00,0x80,0x54,0x02,0x00,0x40,0x01,0x02,
 0x00,0x10,0x54,0x05,0x00,0x50,0x55,0x08,0x00,0x20,0x02,0x05,0x00,0xa0,0x50,
 0x0a,0x00,0x40,0x8a,0x02,0x00,0x40,0x41,0x05,0x00,0x00,0x5d,0x05,0x00,0x00,
 0x50,0x15,0x00,0x00,0x00,0x2a,0x00,0x00,0x00,0x2a,0x00,0x00,0x00,0x54,0x00,
 0x00,0x00,0x50,0x01,0x00,0x00,0x40,0x00,0x00,0x00,0x00,0x00,0x00,0x00,0x00,
 0x00,0x40,0x84,0x22,0x00,0x80,0x12,0x02,0x00,0x40,0x44,0x68,0x00,0x00,0x10,
 0x02,0x00,0x40,0x04,0x21,0x00,0x00,0x00,0x00,0x00};
