/* XPM */
static char * hide_xpm[] = {
"29 25 5 1",
" 	c none   g none   m none   s Background",
"X	c black  g black  m black",
"_	c white  g white  m white",
"o	c grey50 g grey50 m white",
"O	c blue   g black  m black",
"         XXXXXX              ",
"       XXX____XXX            ",
"      XX________XX           ",
"      XX________XX           ",
"     XX__________XX          ",
"     XX_OOOOOOO__XX          ",
"     XX__________XX          ",
"     XX_________XXX          ",
"      XX_______XXXX          ",
"      XXX_____XXXoX          ",
"        XXXXXXXXXooX         ",
"            OOOXXXooX        ",
"                XXXooX       ",
"                 XXXooX      ",
"                  XXXooX     ",
"                    XXoXX    ",
"                     XXX     ",
"                             ",
"      X   X X    X           ",
"      X   X    XXX  XX       ",
"      XXXXX X X  X X  X      ",
"      X   X X X  X XXXX      ",
"      X   X X X  X X         ",
"      X   X X  XXX  XXX      ",
"                             "};
