/* XPM */
static char * hide_xx_xpm[] = {
"29 29 5 1",
" 	c none   m none   s Background",
".	c grey50 m black",
"X	c grey75 m white",
"o	c grey50 m black",
"O	c grey75 m white",
"                             ",
"   .......................   ",
"   .XXXXXXXXXXXXXXXXXXXXX.o  ",
"   .X......XX.....XXXXXXX.o  ",
"   .XXXXXXXX.XXXXX.XXXXXX.o  ",
"   .......o.XXXXXXX.o.....o  ",
"   .XXXXXX.XXXXXXXXX.XXXX.o  ",
"   .XXXXXX.XXXXXXXXX.OXXX.o  ",
"   .XXXXXX.XO.....OX.OXXX.o  ",
"   .XXXXXX.XXXXXXXXX.OXXX.o  ",
"   .XXXXXX.XXXXXXXXX.OXXX.o  ",
"   .XXXXXXX.XXXXXXX.OXXXX.o  ",
"   .XXXXXXXX.XXXXX..OXXXX.o  ",
"   .XXXXXXXXX.......XXXXX.o  ",
"   .XXXXXXXXXXXX.....XXXX.o  ",
"   .......................o  ",
"    oooooooooooooooo...oooo  ",
"                    o...     ",
"                     o.o     ",
"                      o      ",
"                             ",
"                             ",
"      .   . .    .           ",
"      .   .    ...  ..       ",
"      ..... . .  . .  .      ",
"      .   . . .  . ....      ",
"      .   . . .  . .         ",
"      .   . .  ...  ...      ",
"                             "};
