/* XPM */
static char * hide_xx_xpm[] = {
"29 29 5 1",
" 	c none   m none   s Background",
".	c grey50 m black",
"X	c white  m white",
"o	c grey50 m black",
"O	c grey50 m black",
"                             ",
"   .......................   ",
"   .XXXXXXXXXXXXXXXXXXXXX.o  ",
"   .X......XXXXXXXXXXXXXX.o  ",
"   .XXXXXXXXXXXXXXXXXXXXX.o  ",
"   .......................o  ",
"   .XXXXXXXXXXXXXXXXXXXXX.o  ",
"   .XXXXXXXXX.....XXXXXXX.o  ",
"   .XXXXXXXX.XXXXX.XXXXXX.o  ",
"   .XXXXXXX.XXXXXXX.XXXXX.o  ",
"   .XXXXXXX.XXXXXXX.XXXXX.o  ",
"   .XXXXXXX.X.....X.XXXXX.o  ",
"   .XXXXXXX.XXXXXXX.XXXXX.o  ",
"   .XXXXXXX.XXXXXXX.XXXXX.o  ",
"   .XXXXXXXX.XXXXX..XXXXX.o  ",
"   .XXXXXXXXX.......XXXXX.o  ",
"   .XXXXXXXXXXXXXO...XXXX.o  ",
"   ...............O.......o  ",
"    OOOOOOOOOOOOOOOO...OOOO  ",
"                    O...     ",
"                     O.O     ",
"                      O      ",
"      .   . .    .           ",
"      .   .    ...  ..       ",
"      ..... . .  . .  .      ",
"      .   . . .  . ....      ",
"      .   . . .  . .         ",
"      .   . .  ...  ...      ",
"                             "};
