#define hide_xx_width 29
#define hide_xx_height 29
static unsigned char hide_xx_bits[] = {
 0x00,0x00,0x00,0x00,0x50,0x55,0x55,0x01,0x08,0x00,0x00,0x02,0xa0,0x02,0x00,
 0x04,0x08,0x00,0x00,0x02,0x40,0x55,0x55,0x05,0x08,0x00,0x00,0x04,0x00,0x40,
 0x01,0x02,0x08,0x10,0x04,0x04,0x00,0x00,0x00,0x02,0x08,0x08,0x08,0x04,0x00,
 0xa0,0x02,0x02,0x08,0x08,0x08,0x04,0x00,0x00,0x00,0x02,0x08,0x10,0x08,0x04,
 0x00,0x40,0x05,0x02,0x08,0x00,0x0a,0x04,0x50,0x55,0xb5,0x02,0xa0,0xaa,0x4a,
 0x05,0x00,0x00,0xb0,0x00,0x00,0x00,0x40,0x00,0x00,0x00,0x40,0x00,0x40,0x10,
 0x00,0x00,0x00,0x84,0x12,0x00,0x40,0x01,0x40,0x00,0x00,0x54,0x2a,0x00,0x40,
 0x00,0x08,0x00,0x00,0x94,0x22,0x00,0x00,0x00,0x00,0x00};
