#define hide_xx_width 29
#define hide_xx_height 29
static char hide_xx_bits[] = {
 0x00,0x00,0x00,0x00,0x50,0x55,0x55,0x01,0x08,0x00,0x00,0x02,0x40,0x05,0x00,
 0x04,0x08,0x00,0x00,0x02,0x50,0x55,0x55,0x05,0x08,0x00,0x00,0x04,0x00,0xa0,
 0x02,0x02,0x08,0x00,0x00,0x04,0x00,0x08,0x08,0x02,0x08,0x00,0x00,0x04,0x00,
 0x48,0x09,0x02,0x08,0x00,0x00,0x04,0x00,0x08,0x08,0x02,0x08,0x00,0x04,0x04,
 0x00,0xa0,0x0a,0x02,0x08,0x00,0x14,0x04,0xa0,0xaa,0x4a,0x03,0x50,0x55,0xb5,
 0x04,0x00,0x00,0x90,0x00,0x00,0x00,0xa0,0x00,0x00,0x00,0x00,0x00,0x00,0x04,
 0x02,0x00,0x40,0x00,0x21,0x00,0x80,0x56,0x08,0x00,0x40,0x00,0x52,0x00,0x00,
 0x54,0x08,0x00,0x40,0x80,0x22,0x00,0x00,0x00,0x00,0x00};
