#define hide_xx_width 29
#define hide_xx_height 29
static unsigned char hide_xx_bits[] = {
 0x00,0x00,0x00,0x00,0x50,0x55,0x55,0x01,0x08,0x00,0x80,0x02,0xa8,0xef,0x2b,
 0x04,0x40,0x10,0x44,0x05,0xb0,0x0a,0xb1,0x02,0x08,0x24,0x14,0x02,0x48,0x85,
 0x82,0x04,0x00,0x54,0x19,0x05,0x50,0x05,0x52,0x02,0x08,0x54,0x10,0x05,0x48,
 0x09,0x4a,0x02,0x20,0x50,0x09,0x02,0x08,0xa5,0x4a,0x05,0x50,0x10,0x15,0x02,
 0xa8,0xd6,0xaa,0x05,0xa0,0x2a,0x55,0x02,0x00,0x00,0xa0,0x00,0x00,0x00,0xa0,
 0x00,0x00,0x00,0x00,0x00,0x00,0x00,0x00,0x00,0x00,0x00,0x00,0x00,0x40,0x10,
 0x02,0x00,0x00,0x04,0x21,0x00,0x40,0x45,0x0a,0x00,0x00,0x10,0x50,0x00,0x40,
 0x44,0x02,0x00,0x00,0x10,0x51,0x00,0x00,0x00,0x00,0x00};
