#define hide_xx_width 29
#define hide_xx_height 25
static unsigned char hide_xx_bits[] = {
 0x00,0x32,0x00,0x00,0x00,0x89,0x00,0x00,0x40,0x24,0x01,0x00,0x80,0x81,0x02,
 0x00,0x20,0x14,0x02,0x00,0x40,0x6b,0x05,0x00,0x20,0x00,0x02,0x00,0x40,0x55,
 0x05,0x00,0x40,0x80,0x02,0x00,0x80,0x55,0x05,0x00,0x00,0xaa,0x0a,0x00,0x00,
 0xa0,0x0a,0x00,0x00,0x00,0x15,0x00,0x00,0x00,0x6a,0x00,0x00,0x00,0x28,0x00,
 0x00,0x00,0xa0,0x01,0x00,0x00,0xa0,0x00,0x00,0x00,0x00,0x00,0x40,0x04,0x00,
 0x00,0x00,0x80,0x12,0x00,0x40,0x15,0x42,0x00,0x00,0x40,0x28,0x00,0x40,0x14,
 0x02,0x00,0x00,0x00,0x21,0x00,0x00,0x00,0x00,0x00};
