/* XPM */
static char * lookup_xx_xpm[] = {
"29 29 4 1",
" 	c none   m none   s Background",
"X	c grey50 m black",
"_	c grey75 m white",
"o	c grey50 m black",
"        XXXXXXXXXXXXXXXXX    ",
"        X_______________Xo   ",
"        X____XXXXXXXXXX_Xo   ",
"        X_______________Xo   ",
"        X_X__XXXXXXXXXX_Xo   ",
"         _XX____________Xo   ",
"         _XXX____X_X__X_Xo   ",
"  XXXXXXXXXXXX__X___X___Xo   ",
"  XXXXXXXXXXXXX_X___X_X_Xo   ",
"  XXXXXXXXXXXX__X___X___Xo   ",
"         _XXX____X_X__X_Xo   ",
"        X_XX____________Xo   ",
"        X_X__XXXXXXXXXX_Xo   ",
"        X_______________Xo   ",
"        X____XXXXXXXXXX_Xo   ",
"        X_______________Xo   ",
"        X____XXXXXXXXXX_Xo   ",
"        X_______________Xo   ",
"        XXXXXXXXXXXXXXXXXo   ",
"         ooooooooooooooooo   ",
"                             ",
"                             ",
"X              X             ",
"X     XX   XX  X  X X  X XXX ",
"X    X  X X  X X X  X  X X  X",
"X    X  X X  X XX   X  X X  X",
"X    X  X X  X X X  X  X X  X",
"XXXX  XX   XX  X  X  XXX XXX ",
"                         X   "};
