/* XPM */
static char * lookup_xx_xpm[] = {
"29 25 5 1",
" 	c none   m none   s Background",
"X	c grey50 m black",
".	c grey50 m black",
"_	c grey75 m white",
"o	c grey50 m black",
"                             ",
"                             ",
"                             ",
"          .    XXo           ",
"         ... . XXXX          ",
"          .... __XXX         ",
"           ... Xo_XXo        ",
"          .... _Xo_XX        ",
"              XX_X_XX        ",
"         XX_X XX_X_XX        ",
"         XX_oX__Xo_XX        ",
"         oXX_oXXo_XXo        ",
"          XXX____XXX         ",
"           XXXXXXXX          ",
"            oXXXXo           ",
"                             ",
"                             ",
"                             ",
"X              X             ",
"X     XX   XX  X  X X  X XXX ",
"X    X  X X  X X X  X  X X  X",
"X    X  X X  X XX   X  X X  X",
"X    X  X X  X X X  X  X X  X",
"XXXX  XX   XX  X  X  XXX XXX ",
"                         X   "};
