#define lookup_xx_width 29
#define lookup_xx_height 25
static unsigned char lookup_xx_bits[] = {
 0x00,0x00,0x00,0x00,0x00,0x00,0x00,0x00,0x00,0x00,0x00,0x00,0x00,0x84,0x02,
 0x00,0x00,0x08,0x05,0x00,0x00,0xa8,0x04,0x00,0x00,0x28,0x15,0x00,0x00,0x14,
 0x09,0x00,0x00,0x40,0x0a,0x00,0x00,0x84,0x12,0x00,0x00,0x5a,0x0a,0x00,0x00,
 0x44,0x15,0x00,0x00,0x14,0x0a,0x00,0x00,0xe8,0x02,0x00,0x00,0x20,0x01,0x00,
 0x00,0x00,0x00,0x00,0x00,0x00,0x00,0x00,0x00,0x00,0x00,0x00,0x01,0x80,0x00,
 0x00,0x80,0x10,0x10,0x0a,0x21,0x84,0x82,0x00,0x00,0xa1,0x10,0x12,0x21,0x04,
 0x82,0x00,0x84,0x90,0x40,0x0a,0x00,0x00,0x00,0x00};
