/* XPM */
static char * lookup_xx_xpm[] = {
"29 29 4 1",
" 	c none   m none   s Background",
"X	c grey50 m black",
"_	c grey75 m white",
"o	c grey50 m black",
"      XXXXXXXXXXXXXXXXX      ",
"      X_______________Xo     ",
"      X____XXXXXXXXXX_Xo     ",
"      X_______________Xo     ",
"      X____XXXXXXXXXX_Xo     ",
"      X_X_____________Xo     ",
"       _XX_____X_X__X_Xo     ",
"       _XXX___X___X___Xo     ",
"  XXXXXXXXXX__X___X_X_Xo     ",
"  XXXXXXXXXXX_X___X___Xo     ",
"  XXXXXXXXXX__X___X_X_Xo     ",
"       _XXX___X___X___Xo     ",
"      X_XX_____X_X__X_Xo     ",
"      X_X_____________Xo     ",
"      X____XXXXXXXXXX_Xo     ",
"      X_______________Xo     ",
"      X____XXXXXXXXXX_Xo     ",
"      X_______________Xo     ",
"      XXXXXXXXXXXXXXXXXo     ",
"       ooooooooooooooooo     ",
"                             ",
"                             ",
"X              X             ",
"X     XX   XX  X  X X  X XXX ",
"X    X  X X  X X X  X  X X  X",
"X    X  X X  X XX   X  X X  X",
"X    X  X X  X X X  X  X X  X",
"XXXX  XX   XX  X  X  XXX XXX ",
"                         X   "};
