#define lookup_xx_width 29
#define lookup_xx_height 29
static char lookup_xx_bits[] = {
 0x40,0x55,0x55,0x00,0x00,0x00,0x40,0x00,0x40,0xa8,0x8a,0x00,0x00,0x00,0x40,
 0x00,0x40,0x50,0x95,0x00,0x00,0x00,0x40,0x00,0x00,0x03,0x91,0x00,0x60,0x21,
 0x40,0x00,0x40,0x05,0x92,0x00,0x40,0x25,0x40,0x00,0x00,0x41,0x89,0x00,0x40,
 0x00,0x40,0x00,0x00,0x28,0x95,0x00,0x40,0x00,0x40,0x00,0x00,0x50,0x95,0x00,
 0x40,0x00,0x40,0x00,0x00,0xa8,0x8a,0x00,0x40,0x00,0x40,0x00,0x80,0xaa,0xaa,
 0x00,0x00,0x55,0x55,0x00,0x00,0x00,0x00,0x00,0x00,0x00,0x00,0x00,0x01,0x80,
 0x00,0x00,0x80,0x10,0x10,0x0a,0x21,0x84,0x80,0x00,0x00,0x21,0x11,0x12,0x21,
 0x84,0x80,0x00,0x84,0x10,0x44,0x0a,0x00,0x00,0x00,0x00};
