#define lookup_xx_width 29
#define lookup_xx_height 25
static unsigned char lookup_xx_bits[] = {
 0x00,0x00,0x00,0x00,0x00,0x00,0x00,0x00,0x00,0x00,0x00,0x00,0x00,0x84,0x02,
 0x00,0x00,0x08,0x05,0x00,0x00,0xa8,0x04,0x00,0x00,0x28,0x15,0x00,0x00,0x14,
 0x0a,0x00,0x00,0x40,0x09,0x00,0x00,0x92,0x12,0x00,0x00,0x24,0x09,0x00,0x00,
 0x4a,0x15,0x00,0x00,0x14,0x0a,0x00,0x00,0xd0,0x05,0x00,0x00,0x50,0x02,0x00,
 0x00,0x00,0x00,0x00,0x00,0x00,0x00,0x00,0x00,0x00,0x00,0x00,0x01,0x00,0x00,
 0x00,0x40,0x88,0x04,0x0a,0x01,0x21,0x90,0x00,0x20,0x04,0x01,0x12,0x01,0xa1,
 0x90,0x00,0x44,0x10,0x44,0x0a,0x00,0x00,0x00,0x00};
