#define lookup_xx_width 29
#define lookup_xx_height 25
static unsigned char lookup_xx_bits[] = {
 0x00,0x00,0x00,0x00,0x00,0x00,0x00,0x00,0x00,0x00,0x00,0x00,0x00,0x04,0x01,
 0x00,0x00,0x88,0x02,0x00,0x00,0x28,0x0c,0x00,0x00,0xa8,0x09,0x00,0x00,0x14,
 0x12,0x00,0x00,0x40,0x15,0x00,0x00,0x94,0x0a,0x00,0x00,0x12,0x09,0x00,0x00,
 0xca,0x14,0x00,0x00,0x28,0x0a,0x00,0x00,0xa8,0x02,0x00,0x00,0x50,0x01,0x00,
 0x00,0x00,0x00,0x00,0x00,0x00,0x00,0x00,0x00,0x00,0x00,0x00,0x01,0x80,0x00,
 0x00,0x40,0x08,0x10,0x0a,0x01,0xa1,0x82,0x00,0x20,0x04,0x10,0x12,0x01,0xa1,
 0x82,0x00,0x44,0x08,0x40,0x0a,0x00,0x00,0x00,0x00};
