#define print_xx_width 29
#define print_xx_height 25
static unsigned char print_xx_bits[] = {
 0x00,0xc0,0x01,0x00,0x00,0xf0,0x02,0x00,0x00,0x48,0x07,0x00,0x00,0xb4,0x05,
 0x00,0x00,0x2c,0x07,0x00,0x00,0x08,0x0d,0x00,0x00,0x80,0x02,0x00,0x00,0x80,
 0x03,0x00,0x00,0x60,0x00,0x00,0x00,0xe0,0x03,0x00,0x00,0x40,0x01,0x00,0x00,
 0x80,0x00,0x00,0x00,0xa0,0x01,0x00,0x00,0xc0,0x01,0x00,0x00,0x40,0x01,0x00,
 0x00,0x80,0x00,0x00,0x00,0x00,0x00,0x00,0x00,0x00,0x00,0x00,0x40,0x00,0x40,
 0x00,0x20,0x11,0x25,0x00,0x00,0x44,0x40,0x00,0xa0,0x04,0x09,0x00,0x00,0x40,
 0x40,0x00,0x20,0x04,0x09,0x00,0x00,0x00,0x00,0x00};
