#define print_width 29
#define print_height 29
static unsigned char print_bits[] = {
 0x00,0x00,0x00,0x00,0x00,0x00,0x00,0x00,0x00,0x00,0x00,0x00,0x00,0x00,0x00,
 0x00,0x00,0x00,0x00,0x00,0xf8,0xff,0xff,0x03,0x08,0x00,0x00,0x06,0x48,0x01,
 0x00,0x06,0x28,0x3a,0x00,0x06,0x28,0x02,0x00,0x06,0x28,0x3a,0x00,0x06,0x48,
 0x81,0x4a,0x06,0x08,0x00,0xa0,0x06,0x08,0x00,0x00,0x06,0xf8,0xff,0xff,0x07,
 0xf0,0xff,0xff,0x07,0x00,0x00,0x00,0x00,0x00,0x00,0x00,0x00,0x00,0x00,0x00,
 0x00,0x00,0x00,0x00,0x00,0x00,0x00,0x00,0x00,0x00,0x00,0x00,0x00,0xe0,0x40,
 0x40,0x00,0x20,0x15,0xe5,0x00,0x20,0x4d,0x4b,0x00,0xe0,0x44,0x49,0x00,0x20,
 0x44,0x49,0x00,0x20,0x44,0x49,0x00,0x00,0x00,0x00,0x00};
