#define print_xx_width 29
#define print_xx_height 29
static unsigned char print_xx_bits[] = {
 0x00,0x00,0x00,0x00,0x00,0x00,0x00,0x00,0x00,0x00,0x00,0x00,0x00,0x00,0x00,
 0x00,0x00,0x00,0x00,0x00,0xa8,0xaa,0xaa,0x02,0x00,0x00,0x00,0x04,0x08,0x01,
 0x00,0x02,0x20,0x28,0x00,0x04,0x08,0x02,0x00,0x02,0x20,0x10,0x00,0x04,0x08,
 0x81,0x08,0x02,0x00,0x00,0xa0,0x04,0x08,0x00,0x00,0x02,0x50,0x55,0x25,0x05,
 0xa0,0xaa,0xda,0x02,0x00,0x00,0x00,0x00,0x00,0x00,0x00,0x00,0x00,0x00,0x00,
 0x00,0x00,0x00,0x00,0x00,0x00,0x00,0x00,0x00,0x00,0x00,0x00,0x00,0xa0,0x00,
 0x00,0x00,0x00,0x10,0xa1,0x00,0x20,0x45,0x0a,0x00,0x40,0x04,0x40,0x00,0x20,
 0x40,0x09,0x00,0x00,0x04,0x40,0x00,0x00,0x00,0x00,0x00};
