#define print_xx_width 29
#define print_xx_height 29
static char print_xx_bits[] = {
 0x00,0x00,0x00,0x00,0x00,0x00,0x00,0x00,0x00,0x00,0x00,0x00,0x00,0x00,0x00,
 0x00,0x00,0x00,0x00,0x00,0x50,0x55,0x55,0x01,0x08,0x00,0x00,0x02,0x40,0x00,
 0x00,0x04,0x08,0x12,0x00,0x02,0x20,0x00,0x00,0x04,0x08,0x2a,0x00,0x02,0x40,
 0x00,0x42,0x04,0x08,0x00,0x00,0x02,0x00,0x00,0x00,0x04,0xa8,0xaa,0xda,0x02,
 0x50,0x55,0x55,0x05,0x00,0x00,0x00,0x00,0x00,0x00,0x00,0x00,0x00,0x00,0x00,
 0x00,0x00,0x00,0x00,0x00,0x00,0x00,0x00,0x00,0x00,0x00,0x00,0x00,0x40,0x40,
 0x00,0x00,0x20,0x05,0xc4,0x00,0x00,0x08,0x41,0x00,0xa0,0x44,0x09,0x00,0x00,
 0x00,0x40,0x00,0x20,0x44,0x09,0x00,0x00,0x00,0x00,0x00};
