#define print_xx_width 29
#define print_xx_height 29
static unsigned char print_xx_bits[] = {
 0x00,0x00,0x00,0x00,0x00,0x00,0x00,0x00,0x00,0x00,0x00,0x00,0x00,0x00,0x00,
 0x00,0x00,0x00,0x00,0x00,0xa8,0xaa,0xaa,0x02,0x00,0x00,0x00,0x02,0x58,0xab,
 0xaa,0x04,0x20,0x28,0x00,0x05,0xa8,0x06,0x55,0x02,0x00,0x3a,0x00,0x05,0x50,
 0x81,0x5a,0x02,0x08,0x48,0xa2,0x04,0xa8,0x82,0x08,0x02,0x50,0x5d,0x75,0x05,
 0xa0,0x52,0x95,0x02,0x00,0x00,0x00,0x00,0x00,0x00,0x00,0x00,0x00,0x00,0x00,
 0x00,0x00,0x00,0x00,0x00,0x00,0x00,0x00,0x00,0x00,0x00,0x00,0x00,0xa0,0x40,
 0x40,0x00,0x00,0x04,0x44,0x00,0x20,0x09,0x41,0x00,0x40,0x40,0x09,0x00,0x20,
 0x04,0x40,0x00,0x00,0x40,0x09,0x00,0x00,0x00,0x00,0x00};
