/* XPM */
static char * print_xpm[] = {
"29 29 4 1",
" 	c none   m none   s Background",
".	c black  m black",
"X	c white  m white",
"o	c grey50 m black",
"                             ",
"                             ",
"                             ",
"                             ",
"                             ",
"   .......................   ",
"   .XXXXXXXXXXXXXXXXXXXXX.o  ",
"   .XX.X.XXXXXXXXXXXXXXXX.o  ",
"   .X.XXX.X...XXXXXXXXXXX.o  ",
"   .X.XXX.XXXXXXXXXXXXXXX.o  ",
"   .X.XXX.X...XXXXXXXXXXX.o  ",
"   .XX.X.XXXXXX.X.X.XX.XX.o  ",
"   .XXXXXXXXXXXXXXXXX.X.X.o  ",
"   .XXXXXXXXXXXXXXXXXXXXX.o  ",
"   .......................o  ",
"    ooooooooooooooooooooooo  ",
"                             ",
"                             ",
"                             ",
"                             ",
"                             ",
"                             ",
"     ...      .       .      ",
"     .  . . .   . .  ...     ",
"     .  . ..  . .. .  .      ",
"     ...  .   . .  .  .      ",
"     .    .   . .  .  .      ",
"     .    .   . .  .  .      ",
"                             "};
