/* XPM */
static char * print_xx_xpm[] = {
"29 25 5 1",
" 	c none   m none  s Background",
"_ 	c grey75 m white",
"X	c grey50 m black",
"o	c grey50 m white",
".	c grey25 m black",
"              ...            ",
"            ......           ",
"           ._......          ",
"          ._..XX...X         ",
"          ...X  ...X         ",
"           XX   ...X         ",
"               ...X          ",
"              ...X           ",
"             ..XX            ",
"             ....X           ",
"             o..o            ",
"              oXX            ",
"             o_..            ",
"             ....o           ",
"              ..Xo           ",
"               Xo            ",
"                             ",
"                             ",
"     XXX      X       X      ",
"     X  X X X   X X  XXX     ",
"     X  X XX  X XX X  X      ",
"     XXX  X   X X  X  X      ",
"     X    X   X X  X  X      ",
"     X    X   X X  X  X      ",
"                             "};
