#define print_xx_width 29
#define print_xx_height 25
static unsigned char print_xx_bits[] = {
 0x00,0xc0,0x01,0x00,0x00,0xb0,0x02,0x00,0x00,0xe8,0x03,0x00,0x00,0x34,0x0e,
 0x00,0x00,0x14,0x0b,0x00,0x00,0x10,0x07,0x00,0x00,0x80,0x02,0x00,0x00,0xc0,
 0x03,0x00,0x00,0x20,0x01,0x00,0x00,0xe0,0x01,0x00,0x00,0x40,0x01,0x00,0x00,
 0x80,0x00,0x00,0x00,0xa0,0x01,0x00,0x00,0xc0,0x01,0x00,0x00,0x40,0x01,0x00,
 0x00,0x00,0x01,0x00,0x00,0x00,0x00,0x00,0x00,0x00,0x00,0x00,0x40,0x40,0x40,
 0x00,0x20,0x05,0x21,0x00,0x00,0x08,0x4a,0x00,0xa0,0x44,0x01,0x00,0x00,0x00,
 0x48,0x00,0x20,0x44,0x01,0x00,0x00,0x00,0x00,0x00};
