/* XPM */
static char * properties_xpm[] = {
"29 25 8 1",
" 	c none    g none    m none   s Background",
"X	c black   g black   m black",
"_	c white   g white   m white",
"+	c yellow4 g grey75  m white",
"@	c yellow  g grey75  m white",
"# 	c grey50  g grey50  m black",
". 	c grey50  g grey50  m black",
"o      c grey25  g grey25  m white",
"    .............X           ",
"    .ooooooooooo.X           ",
"    .oo......_oo.X           ",
"    .oo.XXXXo_oo.X           ",
"    .oo.X   .___XX X         ",
"    .oo.+@XX._o.XXX@X        ",
"    .oo.+__+._o.X+@_X        ",
"    .oo.X+_X._o.XX@+X        ",
"    .o+++@X_._o.X_X@XXX      ",
"    .o@_@__X._o.XX@__@_X     ",
"    .o++++@_XXXXX@_@+++X     ",
"    .o++X@_@X+@_XX_@X++X     ",
"    .oXX++@+++_@+++_+XX      ",
"    XXXX+@++++@_+++++X       ",
"        X+X+XX++XXX++X       ",
"         XX   X+X  XX        ",
"              XXX            ",
"                             ",
"XXX                          ",
"X  X X X  XX  XXX   XXX      ",
"X  X XX  X  X X  X X         ",
"XXX  X   X  X X  X  XX       ",
"X    X   X  X X  X    X      ",
"X    X    XX  XXX  XXX  X X X",
"              X              "};
