#define rotate_xx_width 29
#define rotate_xx_height 25
static unsigned char rotate_xx_bits[] = {
 0x00,0x00,0x00,0x00,0x00,0x00,0x00,0x00,0x00,0x50,0x01,0x00,0x00,0x54,0x01,
 0x00,0x00,0x14,0x04,0x00,0x00,0x0a,0x00,0x00,0x00,0x02,0x00,0x00,0x80,0x0a,
 0x0a,0x00,0x80,0x0a,0x0a,0x00,0x00,0x85,0x2a,0x00,0x00,0x00,0x0a,0x00,0x00,
 0x00,0x02,0x00,0x00,0x82,0x02,0x00,0x00,0xa8,0x02,0x00,0x00,0xa8,0x00,0x00,
 0x00,0x00,0x00,0x00,0x00,0x00,0x00,0x00,0x00,0x00,0x00,0x00,0x0a,0x00,0x20,
 0x00,0x00,0x31,0x11,0x02,0x52,0x10,0x04,0x08,0x04,0x82,0x22,0x05,0x12,0x10,
 0x04,0x01,0x00,0x11,0x41,0x0a,0x00,0x00,0x00,0x00};
