#define rotate_xx_width 29
#define rotate_xx_height 25
static unsigned char rotate_xx_bits[] = {
 0x00,0x00,0x00,0x00,0x00,0x00,0x00,0x00,0x00,0x50,0x01,0x00,0x00,0x54,0x01,
 0x00,0x00,0x14,0x02,0x00,0x00,0x04,0x00,0x00,0x00,0x03,0x04,0x00,0x80,0x14,
 0x04,0x00,0x80,0x0a,0x15,0x00,0x00,0x05,0x15,0x00,0x00,0x00,0x04,0x00,0x00,
 0x00,0x05,0x00,0x00,0x02,0x05,0x00,0x00,0x54,0x01,0x00,0x00,0xa8,0x00,0x00,
 0x00,0x00,0x00,0x00,0x00,0x00,0x00,0x00,0x00,0x00,0x00,0x00,0x0a,0x00,0x20,
 0x00,0x80,0xb0,0x12,0x04,0x12,0x02,0x20,0x01,0x44,0x10,0x05,0x0a,0x02,0x82,
 0x20,0x01,0x90,0x20,0x2a,0x04,0x00,0x00,0x00,0x00};
