#define rotate_xx_width 29
#define rotate_xx_height 29
static unsigned char rotate_xx_bits[] = {
 0x00,0x00,0x00,0x00,0x50,0x55,0x55,0x01,0x08,0x00,0x82,0x02,0xd0,0xaf,0x28,
 0x04,0x08,0x00,0x41,0x05,0x68,0xf5,0xba,0x02,0x00,0x02,0x04,0x02,0xa8,0x50,
 0x81,0x04,0x00,0x55,0x56,0x02,0x58,0x28,0x09,0x05,0x80,0x88,0x16,0x02,0x28,
 0xaa,0xa4,0x04,0x80,0x28,0x05,0x05,0x28,0xa2,0x52,0x02,0x40,0x54,0x01,0x05,
 0x18,0x01,0x54,0x02,0xd0,0xee,0xaa,0x02,0x50,0x29,0x55,0x05,0x00,0x00,0x00,
 0x00,0x00,0x00,0x00,0x00,0x00,0x00,0x00,0x00,0x00,0x00,0x00,0x00,0x04,0x10,
 0x20,0x00,0x12,0x11,0x11,0x02,0x40,0x00,0x04,0x09,0x0a,0x92,0x22,0x04,0x50,
 0x10,0x04,0x01,0x02,0x11,0x61,0x04,0x00,0x00,0x00,0x00};
