/* XPM */
static char * rotate_xx_xpm[] = {
"29 25 7 1",
" 	c none   m none   s Background",
"#	c grey50 m black",
"X	c grey50 m black",
"_	c grey75 m white",
"o	c grey50 m black",
"O	c grey50 m white",
".	c grey75 m white",
"                             ",
"                             ",
"           OO###O            ",
"          O#######           ",
"         O##O    O#          ",
"         ##O                 ",
"        ###       #          ",
"      #######    ###         ",
"       #####    #####        ",
"        ###    #######       ",
"         #       ###         ",
"                O##          ",
"         #O    O##O          ",
"          #######O           ",
"           O###OO            ",
"                             ",
"                             ",
"                             ",
" XXX        X        X       ",
" X  X  XX  XXX XXX  XXX  XX  ",
" X  X X  X  X     X  X  X  X ",
" XXX  X  X  X  XXXX  X  XXXX ",
" X  X X  X  X  X  X  X  X    ",
" X  X  XX   XX  XX X XX  XXX ",
"                             "};
