#define set_xx_width 29
#define set_xx_height 25
static unsigned char set_xx_bits[] = {
 0x00,0x08,0x28,0x00,0x00,0x04,0x44,0x00,0x00,0x58,0x5a,0x00,0x00,0x20,0xa5,
 0x01,0x00,0x50,0x5a,0x00,0x00,0x00,0xa5,0x00,0x00,0x88,0x5a,0x00,0x00,0x2a,
 0x12,0x00,0x00,0xc0,0x08,0x00,0x00,0xa8,0x12,0x00,0x00,0x12,0x24,0x00,0x00,
 0xa5,0x4a,0x00,0x00,0xa8,0x10,0x00,0x00,0x84,0x0a,0x00,0x00,0x10,0x20,0x00,
 0x00,0xd6,0x1e,0x00,0x00,0x00,0x01,0x00,0x00,0x00,0x00,0x00,0x00,0x04,0x00,
 0x00,0x00,0x81,0x14,0x00,0x00,0x24,0x08,0x00,0x00,0x48,0x01,0x00,0x00,0x20,
 0x08,0x00,0x00,0x85,0x08,0x00,0x00,0x00,0x00,0x00};
