#define set_xx_width 29
#define set_xx_height 25
static unsigned char set_xx_bits[] = {
 0x00,0x00,0x10,0x00,0x00,0x18,0xaa,0x00,0x00,0x50,0xa4,0x00,0x00,0x50,0x5a,
 0x00,0x00,0x28,0x55,0x01,0x00,0x00,0xaa,0x00,0x00,0x48,0x55,0x00,0x00,0x24,
 0x2a,0x00,0x00,0xc4,0x10,0x00,0x00,0x24,0x06,0x00,0x00,0x52,0x51,0x00,0x00,
 0x52,0x24,0x00,0x00,0x84,0x12,0x00,0x00,0xa4,0x04,0x00,0x00,0x10,0x11,0x00,
 0x00,0x56,0x2c,0x00,0x00,0x40,0x03,0x00,0x00,0x00,0x00,0x00,0x00,0x04,0x00,
 0x00,0x00,0x41,0x14,0x00,0x00,0x04,0x01,0x00,0x00,0xa0,0x08,0x00,0x00,0x08,
 0x00,0x00,0x00,0xc2,0x10,0x00,0x00,0x00,0x00,0x00};
