#define set_xx_width 29
#define set_xx_height 29
static unsigned char set_xx_bits[] = {
 0x00,0x00,0x00,0x00,0xa8,0xaa,0xaa,0x02,0x00,0x00,0x00,0x04,0x48,0x05,0x00,
 0x02,0x00,0x00,0x00,0x04,0xb0,0xaa,0xaa,0x02,0x08,0x00,0x00,0x02,0x00,0x00,
 0x00,0x04,0x20,0x20,0x00,0x02,0xd4,0x04,0x00,0x04,0x28,0x41,0x00,0x02,0x54,
 0x04,0x00,0x04,0x20,0x40,0x00,0x02,0x20,0x08,0x00,0x04,0x08,0x00,0x00,0x02,
 0x00,0x00,0x00,0x04,0xa8,0xaa,0xaa,0x02,0x50,0x55,0x55,0x05,0x00,0x00,0x00,
 0x00,0x00,0x00,0x00,0x00,0x00,0x00,0x00,0x00,0x00,0x00,0x00,0x00,0x00,0x04,
 0x08,0x00,0x00,0x41,0x04,0x00,0x00,0x04,0x01,0x00,0x00,0xa0,0x08,0x00,0x00,
 0x08,0x00,0x00,0x00,0x42,0x19,0x00,0x00,0x00,0x00,0x00};
