#define set_xx_width 29
#define set_xx_height 25
static unsigned char set_xx_bits[] = {
 0x00,0x02,0x04,0x00,0x00,0x82,0x2a,0x00,0x00,0x0c,0x15,0x00,0x00,0x50,0x55,
 0x00,0x00,0x96,0x2a,0x00,0x00,0x80,0x2a,0x00,0x00,0x62,0x15,0x00,0x80,0x8a,
 0x0a,0x00,0x00,0x30,0x04,0x00,0x00,0x4a,0x01,0x00,0x40,0x15,0x09,0x00,0x80,
 0x10,0x15,0x00,0x00,0xa5,0x00,0x00,0x00,0x51,0x04,0x00,0x00,0x84,0x0a,0x00,
 0x80,0x35,0x05,0x00,0x00,0xa0,0x00,0x00,0x00,0x00,0x00,0x00,0x00,0x04,0x00,
 0x00,0x00,0x41,0x14,0x00,0x00,0x04,0x01,0x00,0x00,0xa0,0x08,0x00,0x00,0x08,
 0x00,0x00,0x00,0x42,0x11,0x00,0x00,0x00,0x00,0x00};
