#define set_xx_width 29
#define set_xx_height 29
static unsigned char set_xx_bits[] = {
 0x00,0x00,0x00,0x00,0x50,0x55,0x55,0x01,0x08,0x00,0x00,0x06,0xd0,0x57,0x55,
 0x01,0x08,0x00,0x00,0x06,0xd0,0xfa,0xff,0x01,0x08,0x02,0x00,0x06,0xa0,0x10,
 0x80,0x00,0x20,0xa5,0x2a,0x06,0xda,0x48,0x40,0x02,0x24,0x45,0x15,0x05,0xda,
 0x54,0x40,0x02,0x20,0x88,0x0a,0x02,0x88,0x22,0xa0,0x04,0x20,0x88,0x12,0x05,
 0x10,0x45,0x44,0x02,0x68,0xb5,0xaa,0x02,0x50,0x55,0x55,0x05,0x00,0x00,0x00,
 0x00,0x00,0x00,0x00,0x00,0x00,0x00,0x00,0x00,0x00,0x00,0x00,0x00,0x00,0x04,
 0x08,0x00,0x00,0x41,0x04,0x00,0x00,0x04,0x01,0x00,0x00,0xa0,0x08,0x00,0x00,
 0x08,0x00,0x00,0x00,0xc2,0x18,0x00,0x00,0x00,0x00,0x00};
