#define set_xx_width 29
#define set_xx_height 29
static char set_xx_bits[] = {
 0x00,0x00,0x00,0x00,0x50,0x55,0x55,0x01,0x08,0x00,0x00,0x02,0xa0,0x02,0x00,
 0x04,0x08,0x00,0x00,0x02,0x40,0x55,0x55,0x05,0x08,0x00,0x00,0x04,0x20,0x00,
 0x00,0x02,0x40,0x08,0x00,0x04,0x54,0x40,0x00,0x02,0xa8,0x04,0x00,0x04,0xa8,
 0x40,0x00,0x02,0x20,0x04,0x00,0x04,0x08,0x20,0x00,0x02,0x00,0x00,0x00,0x04,
 0x08,0x00,0x00,0x02,0xb0,0xaa,0xaa,0x02,0x40,0x55,0x55,0x05,0x00,0x00,0x00,
 0x00,0x00,0x00,0x00,0x00,0x00,0x00,0x00,0x00,0x00,0x00,0x00,0x00,0x00,0x0a,
 0x08,0x00,0x00,0x40,0x04,0x00,0x00,0x02,0x01,0x00,0x00,0xa8,0x08,0x00,0x00,
 0x00,0x00,0x00,0x00,0xc5,0x18,0x00,0x00,0x00,0x00,0x00};
