/* XPM */
static char * set_xpm[] = {
"29 29 4 1",
" 	c #BFBFBFBFBFBF",
".	c #000000000000",
"X	c #FFFFFFFFFFFF",
"o	c #656565656565",
"                             ",
"   .......................   ",
"   .XXXXXXXXXXXXXXXXXXXXX.o  ",
"   .X......XXXXXXXXXXXXXX.o  ",
"   .XXXXXXXXXXXXXXXXXXXXX.o  ",
"   .......................o  ",
"   .XXXXXXXXXXXXXXXXXXXXX.o  ",
"   .X.XXXXXXXXXXXXXXXXXXX.o  ",
"    X..XXXX.X.XXXXXXXXXXX.o  ",
"  ......XX.XXX.XXXXXXXXXX.o  ",
"  .......X.XXX.XXXXXXXXXX.o  ",
"  ......XX.XXX.XXXXXXXXXX.o  ",
"    X..XXX.XXX.XXXXXXXXXX.o  ",
"   .X.XXXXX.X.XXXXXXXXXXX.o  ",
"   .XXXXXXXXXXXXXXXXXXXXX.o  ",
"   .XXXXXXXXXXXXXXXXXXXXX.o  ",
"   .......................o  ",
"    ooooooooooooooooooooooo  ",
"                             ",
"                             ",
"                             ",
"                             ",
"         ...       .         ",
"        .     ..  ...        ",
"         ..  .  .  .         ",
"           . ....  .         ",
"           . .     .         ",
"        ...   ...  .         ",
"                             "};
