/* XPM */
static char * show_xpm[] = {
"29 29 4 1",
" 	c #BFBFBFBFBFBF",
".	c #000000000000",
"X	c #FFFFFFFFFFFF",
"o	c #656565656565",
"                   ......... ",
"                   .XXXXXXX.o",
"                   .X...XXX.o",
"                   .XXXXXXX.o",
"                   .........o",
"                   .XXXXXXX.o",
"                   .XXXXXXX.o",
".........          .XXXXXXX.o",
".XXXXXXX.o    .    .XXXXXXX.o",
".X...XXX.o    ..   .XXXXXXX.o",
".XXXXXXX.o ......  .XXXXXXX.o",
".........o ....... .XXXXXXX.o",
".XXXXXXX.o ......  .XXXXXXX.o",
".XXXXXXX.o    ..   .XXXXXXX.o",
".........o    .    .XXXXXXX.o",
" ooooooooo         .XXXXXXX.o",
"                   .XXXXXXX.o",
"                   .XXXXXXX.o",
"                   .XXXXXXX.o",
"                   .........o",
"                    ooooooooo",
"                             ",
"     ... .                   ",
"    .    . .   ..  .   .     ",
"     ..  .. . .  . . . .     ",
"       . .  . .  . . . .     ",
"       . .  . .  . . . .     ",
"    ...  .  .  ..   . .      ",
"                             "};
