/* XPM */
static char * show_xx_xpm[] = {
"29 29 5 1",
" 	c none   m none   s Background",
".	c grey50 m black",
"X	c grey75 m white",
"o	c grey50 m black",
"O	c grey75 m white",
"                             ",
"   .......................   ",
"   .XXXXXXXXXXXXXXXXXXXXX.o  ",
"   .X......XX.....XXXXXXX.o  ",
"   .XXXXXXXX.XXXXX.XXXXXX.o  ",
"   .......o.XXX.XXX.o.....o  ",
"   .XXXXXX.XXXX.XXXX.XXXX.o  ",
"   .XXXXXX.XXXX.XXXX.OXXX.o  ",
"   .XXXXXX.X.......X.OXXX.o  ",
"   .XXXXXX.XXXX.XXXX.OXXX.o  ",
"   .XXXXXX.XXXX.XXXX.OXXX.o  ",
"   .XXXXXXX.XXX.XXX.OXXXX.o  ",
"   .XXXXXXXX.XXXXX..OXXXX.o  ",
"   .XXXXXXXXX.......XXXXX.o  ",
"   .XXXXXXXXXXXX.....XXXX.o  ",
"   .......................o  ",
"    oooooooooooooooo...oooo  ",
"                    o...     ",
"                     o.o     ",
"                      o      ",
"                             ",
"                             ",
"     ... .                   ",
"    .    . .   ..  .   .     ",
"     ..  .. . .  . . . .     ",
"       . .  . .  . . . .     ",
"       . .  . .  . . . .     ",
"    ...  .  .  ..   . .      ",
"                             "};
