#define show_xx_width 29
#define show_xx_height 29
static unsigned char show_xx_bits[] = {
 0x00,0x00,0x00,0x00,0xa8,0xaa,0xaa,0x02,0x00,0x00,0x00,0x04,0x48,0x05,0x00,
 0x02,0x00,0x00,0x00,0x04,0x68,0x55,0x55,0x03,0x08,0x00,0x00,0x04,0x00,0xa0,
 0x02,0x02,0x08,0x00,0x00,0x04,0x00,0x88,0x08,0x02,0x08,0x00,0x00,0x04,0x00,
 0x48,0x09,0x02,0x08,0x80,0x00,0x04,0x00,0x08,0x08,0x02,0x08,0x00,0x04,0x04,
 0x00,0xc0,0x0a,0x02,0x08,0x00,0x14,0x04,0x50,0xb5,0x4a,0x03,0xa0,0x4a,0xb5,
 0x04,0x00,0x00,0xa0,0x00,0x00,0x00,0x40,0x00,0x00,0x00,0x40,0x00,0xa0,0x00,
 0x00,0x00,0x00,0x0a,0x09,0x00,0x20,0x44,0xa0,0x00,0x80,0x10,0x0a,0x00,0x00,
 0x42,0xa0,0x00,0x50,0x10,0x11,0x00,0x00,0x00,0x00,0x00};
