#define show_xx_width 29
#define show_xx_height 25
static unsigned char show_xx_bits[] = {
 0x00,0x54,0x00,0x00,0x80,0x42,0x01,0x00,0x80,0x08,0x01,0x00,0x40,0x54,0x04,
 0x00,0x30,0x09,0x05,0x00,0x20,0xd5,0x08,0x00,0x20,0x08,0x0a,0x00,0x90,0xaa,
 0x04,0x00,0x20,0x88,0x02,0x00,0x80,0x43,0x05,0x00,0x00,0xac,0x0a,0x00,0x00,
 0xa0,0x0a,0x00,0x00,0x00,0x15,0x00,0x00,0x00,0x6a,0x00,0x00,0x00,0x28,0x00,
 0x00,0x00,0xa0,0x01,0x00,0x00,0xa0,0x00,0x00,0x00,0x00,0x00,0xa0,0x02,0x00,
 0x00,0x00,0x08,0x01,0x00,0x20,0x42,0xa8,0x00,0x80,0x10,0x02,0x00,0x00,0x42,
 0x28,0x00,0x50,0x10,0x41,0x00,0x00,0x00,0x00,0x00};
