/* XPM */
static char * undisplay_xx_xpm[] = {
"29 29 4 1",
" 	c none   m none   s Background",
".	c grey50 m black",
"X	c grey50 m black",
"o	c grey75 m white",
"       .                ..   ",
"   XXX...XXXXXXXXXXXXXX...X  ",
"   Xooo..oooooooooooo...oXX  ",
"   XoXX...Xoooooooo...oooXX  ",
"   Xoooo...ooooooo...ooooXX  ",
"   XXXXXX...XXXXX...XXXXXXX  ",
"   Xoooooo...ooo...ooooooXX  ",
"   XooXoXoo......ooooooooXX  ",
"   XoXoooXoo.....ooooooooXX  ",
"   XoXoooXooo...oooooooooXX  ",
"   XoXoooXoo.....ooooooooXX  ",
"   XooXoXoo...o...oooooooXX  ",
"   Xoooooo...ooo...ooooooXX  ",
"   Xooooo...ooooo...oooooXX  ",
"   Xooooo...oooooo...ooooXX  ",
"   Xoooo...ooooooooo...ooXX  ",
"   XXXXX...XXXXXXXXXX...oXX  ",
"    XXXXX.XXXXXXXXXXXXX.XXX  ",
"                             ",
"                             ",
"                             ",
"                             ",
"  ...       .       .        ",
"  .  .  ..  .  ..  ...  ..   ",
"  .  . .  . . .  .  .  .  .  ",
"  .  . .... . ....  .  ....  ",
"  .  . .    . .     .  .     ",
"  ...   ... .  ...  ..  ...  ",
"                             "};
