/* XPM */
static char * undisplay_xx_xpm[] = {
"29 25 7 1",
" 	c none   m none  s Background",
".      c grey75 m white",
":	c grey75 m white",
"o	c grey50 m black",
"@	c grey25 m black",
"+	c grey50 m black",
"X	c grey50 m black",
"                             ",
"                             ",
"                             ",
"                             ",
"                             ",
"             :@@@@:          ",
"             @:.@@+:         ",
"            @:.:@@X+         ",
"         XX +@@@XX@X         ",
"        +.@@..XXXX@X         ",
"        @@:..:X+X+X@         ",
"       @:..:@@X++X@o         ",
"     @@..:@@@X+@ooo  :o:o:   ",
"    @:.:@@@X+@     :@ooooo   ",
"    XX@@@X+@    :@@@@@@oo:   ",
"    @XX@X@oo :o@@@oo:        ",
"    :+X+ooooooo:             ",
"                             ",
" X  X         X X            ",
" X  X X X   XXX    XXX XXX   ",
" X  X XX X X  X X X    X  X  ",
" X  X X  X X  X X  XX  X  X  ",
" X  X X  X X  X X    X X  X  ",
"  XX  X  X  XXX X XXX  XXX   ",
"                       X     "};
