#define undisplay_xx_width 29
#define undisplay_xx_height 29
static unsigned char undisplay_xx_bits[] = {
 0x20,0x00,0x40,0x00,0x50,0x55,0x55,0x01,0x88,0x00,0x20,0x02,0x40,0x05,0x28,
 0x04,0x08,0x05,0x08,0x02,0xa8,0x52,0x55,0x05,0x00,0x14,0x05,0x02,0x08,0x11,
 0x01,0x04,0x20,0x50,0x01,0x02,0x08,0xa2,0x00,0x04,0x20,0xa0,0x00,0x02,0x08,
 0x91,0x02,0x04,0x00,0x0c,0x02,0x02,0x08,0x04,0x0a,0x04,0x00,0x05,0x08,0x02,
 0x08,0x01,0x28,0x04,0xd0,0xaa,0xaa,0x02,0x50,0x55,0x55,0x05,0x20,0x00,0x80,
 0x00,0x00,0x00,0x00,0x00,0x00,0x00,0x00,0x00,0x00,0x00,0x00,0x00,0x08,0x10,
 0x10,0x00,0x24,0x82,0x08,0x01,0x80,0x10,0x02,0x04,0x24,0x45,0x91,0x02,0x80,
 0x10,0x80,0x00,0x14,0x85,0x22,0x05,0x00,0x00,0x00,0x00};
