/* XPM */
static char * undisplay_xpm[] = {
"29 29 4 1",
" 	c #BFBFBFBFBFBF",
".	c #656565656565",
"X	c #000000000000",
"o	c #FFFFFFFFFFFF",
"                             ",
"      ..              ..     ",
"   XX.XX.XXXXXXXXXXXXXXX.X   ",
"   Xo.XXX.oooooooooo.XXX.X.  ",
"   XoX.XXX.oooooooo.XXX.oX.  ",
"   Xooo.XXX.oooooo.XXX.ooX.  ",
"   XXXXX.XXX.XXXX.XXX.XXXX.  ",
"   Xooooo.XXX.oo.XXX.ooooX.  ",
"   Xoooooo.XXX..XXX.oooooX.  ",
"   Xooooooo.XXX.XX.ooooooX.  ",
"   Xoooooooo.XXXX.oooooooX.  ",
"   Xoooooooo.XXX..oooooooX.  ",
"   Xooooooo.XXX.XX.ooooooX.  ",
"   Xoooooo.XXX..XXX.oooooX.  ",
"   Xooooo.XXX.oo.XXX.ooooX.  ",
"   Xoooo.XXX.oooo.XXX.oooX.  ",
"   Xooo.XXX.oooooo.XXX.ooX.  ",
"   XXXXXXX.XXXXXXXXXXXX.XX.  ",
"    ..XXX............XXX...  ",
"     .XX.            .XX.    ",
"      ..              ..     ",
"                             ",
"   XXX       X      X        ",
"   X  X  XX  X  XX XXX XX    ",
"   X  X X  X X X  X X X  X   ",
"   X  X XXXX X XXXX X XXXX   ",
"   X  X X    X X    X X      ",
"   XXX   XXX X  XXX X  XXX   ",
"                             "};
