/* XPM */
static char * undisplay_xx_xpm[] = {
"29 29 4 1",
" 	c none   m none   s Background",
".	c grey50 m black",
"X	c grey50 m black",
"o	c white  m white",
"     ..               ..     ",
"   XX...XXXXXXXXXXXXX...XX   ",
"   Xoo...ooooooooooo...ooXX  ",
"   XoXX...Xoooooooo...oooXX  ",
"   Xoooo...ooooooo...ooooXX  ",
"   XXXXXX...XXXXX...XXXXXXX  ",
"   Xoooooo...ooo...ooooooXX  ",
"   XooXoXoo...o...oooooooXX  ",
"   XoXoooXoo.....ooooooooXX  ",
"   XoXoooXooo...oooooooooXX  ",
"   XoXoooXoo.....ooooooooXX  ",
"   XooXoXoo...o...oooooooXX  ",
"   Xoooooo...ooo...ooooooXX  ",
"   Xooooo...ooooo...oooooXX  ",
"   Xoooo...ooooooo...ooooXX  ",
"   Xooo...ooooooooo...oooXX  ",
"   XXX...XXXXXXXXXXX...XXXX  ",
"    X...XXXXXXXXXXXXX...XXX  ",
"     ..               ..     ",
"                             ",
"                             ",
"                             ",
"  ...       .       .        ",
"  .  .  ..  .  ..  ...  ..   ",
"  .  . .  . . .  .  .  .  .  ",
"  .  . .... . ....  .  ....  ",
"  .  . .    . .     .  .     ",
"  ...   ... .  ...  ..  ...  ",
"                             "};
