#define undisplay_width 29
#define undisplay_height 25
static unsigned char undisplay_bits[] = {
 0x00,0x00,0x00,0x00,0x00,0x00,0x00,0x00,0x00,0x00,0x00,0x00,0x00,0x00,0x00,
 0x00,0x00,0x00,0x00,0x00,0x00,0x80,0x02,0x00,0x00,0x20,0x05,0x00,0x00,0x00,
 0x02,0x00,0x00,0x52,0x0d,0x00,0x00,0x48,0x05,0x00,0x00,0x83,0x0a,0x00,0x00,
 0x50,0x05,0x00,0x20,0xa8,0x02,0x01,0x00,0x15,0x60,0x01,0x50,0x05,0x9a,0x00,
 0xa0,0x4a,0x05,0x00,0xa0,0x2a,0x00,0x00,0x00,0x00,0x00,0x00,0x12,0x40,0x00,
 0x00,0x00,0x21,0xa8,0x02,0x52,0x48,0x01,0x00,0x00,0x02,0x88,0x04,0x52,0x48,
 0x21,0x00,0x04,0x22,0x88,0x02,0x00,0x00,0x00,0x00};
