/* XPM */
static char * undisplay_xx_xpm[] = {
"29 25 7 1",
" 	c none   m none  s Background",
".      c grey75 m white",
":	c grey75 m white",
"o	c grey50 m black",
"@	c grey25 m black",
"+	c grey50 m black",
"X	c grey50 m black",
"                             ",
"                             ",
"        XX         XX        ",
"       oXX         XXo       ",
"       XXXo ooooo oXXX       ",
"          XXX...XXX          ",
"         X.:::::::.X         ",
"         X:oXo:oXo:X         ",
"         X:XXX:XXX:X         ",
"         Xo..:X:..oX         ",
"          Xo::.::oX          ",
"           X:::::X           ",
"         oXXX:X:XXXo         ",
"      XoXX  XX:XX  XXoX      ",
"       XX           XX       ",
"        X           X        ",
"                             ",
"                             ",
" X  X         X X            ",
" X  X X X   XXX    XXX XXX   ",
" X  X XX X X  X X X    X  X  ",
" X  X X  X X  X X  XX  X  X  ",
" X  X X  X X  X X    X X  X  ",
"  XX  X  X  XXX X XXX  XXX   ",
"                       X     "};
