/* XPM */
static char * unwatch_xx_xpm[] = {
"29 29 6 1",
" 	c none   m none   s Background",
"X	c grey50 m black",
"_	c grey75 m white",
"# 	c grey50 m black",
"o	c grey50 m black",
". 	c grey75 m white",
"        ooooooooooooooooo    ",
"        o_______________oo   ",
" XX     o___XXX_ooooooo_oo   ",
"  XX    o__XXX__________oo   ",
"  XXX#  o#XXX__oooooooo_oo   ",
" #.XXX# #XXX.#__________oo   ",
"#.__XXX#XXX__.#_ooooooo_oo   ",
"#____XXXXX____#_________oo   ",
"#_____XXX_____#_o_ o_o__oo   ",
"#___.XXXXX_.._#___o___o_oo   ",
"#.__XXX#XXX...#_o_o___o_oo   ",
" #.XXX#_#XXX.#____o___o_oo   ",
"  XXX#..o#XXX__oo__o o__oo   ",
"  XX... o__XXX__________oo   ",
" XX     o____XX_ooooooo_oo   ",
"        o_______________oo   ",
"        o____oooooooooo_oo   ",
"        o_______________oo   ",
"        oooooooooooooooooo   ",
"         ooooooooooooooooo   ",
"                             ",
"                             ",
"X X                X     X   ",
"X X X X  X   X XX XXX XX X X ",
"X X XX X X X X   X X X   XX X",
"X X X  X X X X XXX X X   X  X",
"X X X  X X X X X X X X   X  X",
" X  X  X  X X  XX XXX XX X  X",
"                             "};
