#define unwatch_xx_width 29
#define unwatch_xx_height 29
static unsigned char unwatch_xx_bits[] = {
 0x00,0x00,0x00,0x00,0x00,0x00,0x00,0x00,0x40,0x00,0x40,0x00,0x40,0x09,0xa2,
 0x00,0x00,0x29,0x54,0x00,0x00,0x15,0x15,0x00,0x00,0x4a,0x14,0x00,0x00,0xaa,
 0x15,0x00,0x80,0xa8,0x22,0x00,0x00,0xa2,0x4a,0x00,0x80,0x58,0x51,0x00,0x80,
 0xa6,0x2a,0x00,0x00,0x54,0x25,0x00,0x00,0x51,0x45,0x00,0x80,0x0c,0x2a,0x00,
 0x00,0x15,0x54,0x00,0x80,0x0a,0x2a,0x00,0x00,0x15,0x54,0x00,0x40,0x15,0xa8,
 0x00,0x80,0x00,0x40,0x00,0x00,0x00,0x00,0x00,0x00,0x00,0x00,0x00,0x01,0x00,
 0x08,0x00,0x44,0x80,0x44,0x0a,0x11,0x2a,0x22,0x04,0x94,0x00,0x09,0x10,0x81,
 0x2a,0x22,0x02,0x10,0x80,0x94,0x10,0x00,0x00,0x00,0x00};
