/* XPM */
static char * unwatch_xx_xpm[] = {
"29 29 6 1",
" 	c none   m none   s Background",
".	c grey50 m black",
"X	c grey50 m black",
"o	c grey75 m white",
"O	c grey50 m black",
"+	c grey75 m white",
"                             ",
"                             ",
"      ..              ..     ",
"      ...  XX    XX  ...     ",
"       ...oXXX  oXXO...      ",
"        ...XXX  XXX...       ",
"         ...o+XX++...        ",
"        XX...XXXX...OO       ",
"       X+oo...XX...o+OO      ",
"       Xoo++......o++XO      ",
"       Xooo+X....+o++XO      ",
"       X+XXXX....XXX+XO      ",
"       Xo+XX......X++XO      ",
"       Xo++...XX...++XO      ",
"       Xo+...    ...+XO      ",
"       XX...O    X...XO      ",
"       X...XO    Xo...O      ",
"       ...XXO    XXX...      ",
"      ...OOOO     OOO...     ",
"      ..              ..     ",
"                             ",
"                             ",
". .                .     .   ",
". . . .  .   . .. ... .. . . ",
". . .. . . . .   . . .   .. .",
". . .  . . . . ... . .   .  .",
". . .  . . . . . . . .   .  .",
" .  .  .  . .  .. ... .. .  .",
"                             "};
