#define unwatch_xx_width 29
#define unwatch_xx_height 29
static char unwatch_xx_bits[] = {
 0x00,0x00,0x00,0x00,0x00,0x00,0x00,0x00,0x80,0x00,0x40,0x00,0x80,0x10,0xa4,
 0x00,0x80,0x2a,0x4a,0x00,0x00,0x15,0x2a,0x00,0x00,0x44,0x15,0x00,0x00,0xaa,
 0x0a,0x00,0x80,0xa8,0x22,0x00,0x00,0x50,0x51,0x00,0x80,0x50,0x21,0x00,0x80,
 0x54,0x4d,0x00,0x00,0xaa,0x52,0x00,0x80,0x50,0x25,0x00,0x00,0x16,0x2a,0x00,
 0x80,0x09,0x54,0x00,0x00,0x16,0x52,0x00,0x80,0x0a,0x2a,0x00,0x80,0x0a,0xa8,
 0x00,0x80,0x00,0x40,0x00,0x00,0x00,0x00,0x00,0x00,0x00,0x00,0x00,0x01,0x00,
 0x00,0x00,0x54,0x82,0x54,0x0a,0x01,0x28,0x02,0x04,0x94,0x02,0x29,0x10,0x01,
 0xa8,0x20,0x02,0x90,0x04,0x8c,0x10,0x00,0x00,0x00,0x00};
