#define unwatch_xx_width 29
#define unwatch_xx_height 29
static unsigned char unwatch_xx_bits[] = {
 0x00,0x00,0x00,0x00,0x00,0x00,0x00,0x00,0x80,0x00,0x40,0x00,0x80,0x10,0xa2,
 0x00,0x80,0x0a,0x54,0x00,0x00,0x32,0x15,0x00,0x00,0x8a,0x14,0x00,0x00,0x55,
 0x15,0x00,0x00,0xa8,0x22,0x00,0x80,0x50,0x49,0x00,0x00,0x50,0x21,0x00,0x80,
 0x56,0x55,0x00,0x00,0xa8,0x2a,0x00,0x80,0x54,0x45,0x00,0x00,0x14,0x2a,0x00,
 0x00,0x0b,0x54,0x00,0x80,0x0a,0x52,0x00,0x00,0x15,0x28,0x00,0x40,0x15,0x54,
 0x00,0x80,0x00,0x80,0x00,0x00,0x00,0x00,0x00,0x00,0x00,0x00,0x00,0x01,0x00,
 0x08,0x02,0x44,0x20,0x89,0x00,0x11,0x02,0x28,0x12,0x94,0x28,0x03,0x02,0x81,
 0x82,0x28,0x10,0x10,0x10,0x49,0x02,0x00,0x00,0x00,0x00};
