#define watch_xx_width 29
#define watch_xx_height 25
static unsigned char watch_xx_bits[] = {
 0x00,0x00,0x00,0x00,0x00,0x00,0x00,0x00,0x00,0x00,0x00,0x00,0x00,0x05,0x05,
 0x00,0x00,0x48,0x08,0x00,0x80,0x22,0x02,0x00,0x40,0xa8,0x28,0x00,0x40,0x22,
 0x12,0x00,0x00,0x25,0x2a,0x00,0x40,0x28,0x15,0x00,0x80,0x52,0x28,0x00,0x00,
 0x2a,0x0b,0x00,0x00,0x0a,0x05,0x00,0x00,0x00,0x00,0x00,0x00,0x00,0x00,0x00,
 0x00,0x00,0x00,0x00,0x00,0x00,0x00,0x00,0x00,0x00,0x00,0x00,0x04,0x40,0x40,
 0x00,0x40,0x22,0x14,0x00,0x04,0x48,0x40,0x02,0x40,0x05,0x42,0x00,0x14,0x41,
 0x00,0x02,0x20,0x54,0x48,0x00,0x00,0x00,0x00,0x00};
