#define watch_xx_width 29
#define watch_xx_height 29
static char watch_xx_bits[] = {
 0x00,0x00,0x00,0x00,0x00,0x00,0x00,0x00,0x00,0x00,0x00,0x00,0x00,0x08,0x02,
 0x00,0x00,0x38,0x06,0x00,0x00,0x08,0x09,0x00,0x00,0x60,0x0a,0x00,0x00,0xaf,
 0x2a,0x00,0x80,0xd0,0x21,0x00,0x00,0x10,0x49,0x00,0x80,0xd0,0x20,0x00,0x00,
 0x96,0x5b,0x00,0x80,0x94,0x24,0x00,0x00,0x50,0x43,0x00,0x80,0x0c,0x28,0x00,
 0x80,0x12,0x56,0x00,0x00,0x0c,0x50,0x00,0x80,0x15,0x2a,0x00,0x00,0x0a,0x54,
 0x00,0x00,0x00,0x00,0x00,0x00,0x00,0x00,0x00,0x00,0x00,0x00,0x00,0x00,0x40,
 0x00,0x00,0x44,0x25,0x48,0x01,0x00,0x40,0x82,0x00,0x54,0x0a,0x00,0x02,0x00,
 0x41,0x42,0x00,0x28,0x54,0x14,0x02,0x00,0x00,0x00,0x00};
