#define watch_width 29
#define watch_height 29
static unsigned char watch_bits[] = {
 0x00,0x00,0x00,0x00,0x00,0x00,0x00,0x00,0x00,0x00,0x00,0x00,0x00,0x18,0x06,
 0x00,0x00,0x28,0x0a,0x00,0x00,0x38,0x0e,0x00,0x00,0xc0,0x18,0x00,0x00,0x5f,
 0x2f,0x00,0x80,0xd0,0x61,0x00,0x00,0x80,0x20,0x00,0x80,0xb0,0x61,0x00,0x80,
 0x1a,0x4b,0x00,0x80,0xcc,0x66,0x00,0x00,0xd8,0x21,0x00,0x80,0x10,0x62,0x00,
 0x80,0x1d,0x5a,0x00,0x80,0x14,0x32,0x00,0x80,0x1d,0x6c,0x00,0x00,0x17,0x3c,
 0x00,0x00,0x00,0x00,0x00,0x00,0x00,0x00,0x00,0x00,0x00,0x00,0x00,0x44,0x40,
 0x40,0x00,0x04,0xa5,0x54,0x01,0x44,0x48,0x82,0x02,0x50,0x47,0x40,0x02,0x44,
 0x08,0x42,0x00,0x28,0xd6,0x1c,0x02,0x00,0x00,0x00,0x00};
