#define watch_xx_width 29
#define watch_xx_height 29
static unsigned char watch_xx_bits[] = {
 0x00,0x00,0x00,0x00,0x00,0x00,0x00,0x00,0x00,0x00,0x00,0x00,0x00,0x18,0x02,
 0x00,0x00,0x28,0x06,0x00,0x00,0x28,0x0b,0x00,0x00,0x40,0x14,0x00,0x00,0xbd,
 0x15,0x00,0x80,0x50,0x21,0x00,0x80,0x94,0x49,0x00,0x00,0xb1,0x52,0x00,0x80,
 0x8e,0x2d,0x00,0x00,0x54,0x22,0x00,0x00,0xd1,0x4b,0x00,0x80,0x14,0x50,0x00,
 0x80,0x0a,0x2c,0x00,0x00,0x14,0x52,0x00,0x80,0x0b,0x28,0x00,0x00,0x0a,0x54,
 0x00,0x00,0x00,0x00,0x00,0x00,0x00,0x00,0x00,0x00,0x00,0x00,0x00,0x00,0x40,
 0x40,0x00,0x44,0x45,0x14,0x00,0x00,0x00,0x40,0x02,0x54,0x4a,0x42,0x00,0x00,
 0x09,0x00,0x02,0x28,0xc2,0x48,0x00,0x00,0x00,0x00,0x00};
