/* XPM */
static char * watch_xx_xpm[] = {
"29 29 6 1",
" 	c none   m none   s Background",
"X	c grey50 m black",
"_	c grey75 m white",
"# 	c grey25 m black",
"o	c grey50 m black",
". 	c grey75 m white",
"        XXXXXXXXXXXXXXXXX    ",
"        X_______________Xo   ",
"        X____XXXXXXXXXX_Xo   ",
"        X_______________Xo   ",
"  ####  X####__XXXXXXXX_Xo   ",
" #.__.# #.__.#__________Xo   ",
"#.____.#.____.#_XXXXXXX_Xo   ",
"#______#______#_________Xo   ",
"#______#______#_X_ X_X__Xo   ",
"#___XX_#___XX_#___X___X_Xo   ",
"#.__XX_#.__XX.#_X_X___X_Xo   ",
" #.___#_#.__.#____X___X_Xo   ",
"  ####..X####__XX__X X__Xo   ",
"  ..... X_______________Xo   ",
"        X____XXXXXXXXXX_Xo   ",
"        X_______________Xo   ",
"        X____XXXXXXXXXX_Xo   ",
"        X_______________Xo   ",
"        XXXXXXXXXXXXXXXXXo   ",
"         ooooooooooooooooo   ",
"                             ",
"                             ",
"  X   X       X       X      ",
"  X   X XXX  XXX  XXX X X    ",
"  X   X    X  X  X    XX X   ",
"  X X X XXXX  X  X    X  X   ",
"  X X X X  X  X  X    X  X   ",
"   X X   XX X XX  XXX X  X   ",
"                             "};
