#define watch_xx_width 29
#define watch_xx_height 29
static unsigned char watch_xx_bits[] = {
 0x00,0x00,0x00,0x00,0x00,0x00,0x00,0x00,0x00,0x00,0x00,0x00,0x00,0x08,0x02,
 0x00,0x00,0x38,0x06,0x00,0x00,0x08,0x09,0x00,0x00,0x60,0x0a,0x00,0x00,0xaf,
 0x2a,0x00,0x80,0xd0,0x21,0x00,0x00,0x10,0x41,0x00,0x80,0xd0,0x29,0x00,0x00,
 0x96,0x4a,0x00,0x80,0x54,0x26,0x00,0x00,0xc8,0x51,0x00,0x80,0x08,0x22,0x00,
 0x80,0x16,0x54,0x00,0x00,0x14,0x52,0x00,0x80,0x0a,0x28,0x00,0x00,0x15,0x54,
 0x00,0x00,0x00,0x00,0x00,0x00,0x00,0x00,0x00,0x00,0x00,0x00,0x00,0x00,0x00,
 0x40,0x00,0x44,0xc5,0x14,0x00,0x00,0x00,0x40,0x02,0x54,0x4a,0x42,0x00,0x00,
 0x09,0x00,0x02,0x28,0x82,0x48,0x00,0x00,0x00,0x00,0x00};
