/* XPM */
static char * watch_xpm[] = {
"29 29 4 1",
" 	c #BFBFBFBFBFBF",
".	c #656565656565",
"X	c #000000000000",
"o	c #FFFFFFFFFFFF",
"                             ",
"                             ",
"                             ",
"           .X    .X          ",
"          o.X.  o.X.         ",
"          .XX.  .XX.         ",
"            o .X  ...        ",
"        .XXXX.X.XXXX..       ",
"       . oo . .X. oo ..      ",
"       Xoo  .o X. o  X.      ",
"       Xooo .XXX. o  X.      ",
"       X .XXXo .XXX. X.      ",
"       Xo .X. XX X.  X.      ",
"       Xo  X. ...Xo  X.      ",
"       Xo  X.    Xo  X.      ",
"       XXXXX.    XXXXX.      ",
"       Xo .X.    Xo .X.      ",
"       XXXXX.    XXXXX.      ",
"        .....     .....      ",
"                             ",
"                             ",
"                             ",
"  X   X       X       X      ",
"  X   X XXX  XXX  XXX X X    ",
"  X   X    X  X  X    XX X   ",
"  X X X XXXX  X  X    X  X   ",
"  X X X X  X  X  X    X  X   ",
"   X X   XX X X   XXX X  X   ",
"                             "};
