/* XPM */
static char * watch_xpm[] = {
"29 25 6 1",
" 	c none   m none   s Background",
"X	c black  m black",
"_	c white  m white",
"# 	c black  m black",
"o	c grey50 m black",
". 	c grey75 m white",
"                             ",
"                             ",
"                             ",
"        ####   ####          ",
"       #.__.# #.__.#         ",
"      #.____.#.____.#        ",
"      #______#______#o       ",
"      #______#______#o       ",
"      #___XX_#___XX_#o       ",
"      #.__XX_#.__XX.#o       ",
"       #.___#o#.__.#oo       ",
"        ####oo ####oo        ",
"         oooo   oooo         ",
"                             ",
"                             ",
"                             ",
"                             ",
"                             ",
"  X   X       X       X      ",
"  X   X XXX  XXX  XXX X X    ",
"  X   X    X  X  X    XX X   ",
"  X X X XXXX  X  X    X  X   ",
"  X X X X  X  X  X    X  X   ",
"   X X   XX X XX  XXX X  X   ",
"                             "};
