#define watch_width 29
#define watch_height 29
static unsigned char watch_bits[] = {
 0x00,0x00,0x00,0x00,0x00,0x00,0x00,0x00,0x00,0x00,0x00,0x00,0x00,0x18,0x06,
 0x00,0x00,0x28,0x0a,0x00,0x00,0x38,0x0e,0x00,0x00,0xc0,0x14,0x00,0x00,0xbf,
 0x3d,0x00,0x80,0xc0,0x40,0x00,0x00,0x90,0x61,0x00,0x80,0xd0,0x20,0x00,0x80,
 0x96,0x6f,0x00,0x80,0x58,0x42,0x00,0x00,0x98,0x63,0x00,0x80,0x08,0x20,0x00,
 0x80,0x1b,0x7e,0x00,0x80,0x0c,0x62,0x00,0x80,0x1a,0x5a,0x00,0x00,0x1f,0x3c,
 0x00,0x00,0x00,0x00,0x00,0x00,0x00,0x00,0x00,0x00,0x00,0x00,0x00,0x44,0x40,
 0x40,0x00,0x04,0xa3,0x54,0x01,0x44,0x48,0x82,0x02,0x50,0x46,0x40,0x02,0x44,
 0x09,0x42,0x00,0x28,0xd4,0x1c,0x02,0x00,0x00,0x00,0x00};
