/* XPM */
static char * watch_xpm[] = {
"29 29 6 1",
" 	c none   m none   s Background",
".	c grey25 m black",
"X	c black  m black",
"o	c white  m white",
"O	c grey50 m black",
"+	c grey75 m white",
"                             ",
"                             ",
"                             ",
"           .X    .X          ",
"          o.X.  o.XO         ",
"          .XX.  .XXO         ",
"          ++o+.X++OOO        ",
"        .XXXX.X.XXXXOO       ",
"       .+oo+.+.X.+oo+OO      ",
"       Xoo++.o+X.+o++XO      ",
"       Xooo+.XXX.+o++XO      ",
"       X+.XXXo+.XXX.+XO      ",
"       Xo+.XO+XX+X.++XO      ",
"       Xo++XO+...Xo++XO      ",
"       Xo++XO    Xo++XO      ",
"       XXXXXO    XXXXXO      ",
"       Xo+.XO    Xo+.XO      ",
"       XXXXXO    XXXXXO      ",
"        OOOOO     OOOOO      ",
"                             ",
"                             ",
"                             ",
"  X   X       X       X      ",
"  X   X XXX  XXX  XXX X X    ",
"  X   X    X  X  X    XX X   ",
"  X X X XXXX  X  X    X  X   ",
"  X X X X  X  X  X    X  X   ",
"   X X   XX X XX  XXX X  X   ",
"                             "};
