#define watch_xx_width 29
#define watch_xx_height 29
static unsigned char watch_xx_bits[] = {
 0x00,0x55,0x29,0x01,0x00,0x01,0x04,0x01,0x00,0xea,0x7a,0x02,0x00,0x01,0x01,
 0x01,0xf0,0x7c,0x56,0x01,0x08,0x85,0x20,0x02,0x04,0x12,0x4d,0x01,0xa4,0x46,
 0x43,0x02,0x14,0x12,0x55,0x01,0xc4,0x42,0x45,0x02,0x44,0x2a,0x29,0x01,0x18,
 0xc5,0x00,0x02,0xf0,0x3d,0x77,0x01,0x00,0x40,0x00,0x02,0x00,0xa9,0x5d,0x01,
 0x00,0x02,0x80,0x02,0x00,0x69,0x37,0x01,0x00,0x02,0x80,0x02,0x00,0xfa,0x5d,
 0x01,0x00,0x0a,0xa5,0x02,0x00,0x00,0x00,0x00,0x00,0x00,0x00,0x00,0x00,0x40,
 0x40,0x00,0x44,0x45,0x14,0x00,0x00,0x40,0x40,0x02,0x54,0x0a,0x42,0x00,0x00,
 0x49,0x00,0x02,0x28,0x42,0x48,0x00,0x00,0x00,0x00,0x00};
