#define arrow_width 14
#define arrow_height 15
static unsigned char arrow_bits[] = {
   0x60, 0x00, 0xf0, 0x00, 0xf8, 0x01, 0xf0, 0x03, 0xe0, 0x07, 0xff, 0x0f,
   0xff, 0x1f, 0xff, 0x3f, 0xff, 0x1f, 0xff, 0x0f, 0xe0, 0x07, 0xf0, 0x03,
   0xf8, 0x01, 0xf0, 0x00, 0x60, 0x00};
