#define cond_width 15
#define cond_height 15
static unsigned char cond_bits[] = {
   0xf0, 0x07, 0xf8, 0x0f, 0xfc, 0x1f, 0x02, 0x24, 0x5d, 0x55, 0x51, 0x55,
   0x57, 0x45, 0x51, 0x74, 0xff, 0x7f, 0x1f, 0x7e, 0xff, 0x7e, 0x3e, 0x3f,
   0xfc, 0x1f, 0x38, 0x0f, 0xf0, 0x07};
