#define drag_temp_width 15
#define drag_temp_height 15
static unsigned char drag_temp_bits[] = {
   0xf0, 0x07, 0x08, 0x08, 0x04, 0x10, 0xfe, 0x3b, 0xa3, 0x6a, 0xaf, 0x6a,
   0xa9, 0x7a, 0xaf, 0x4b, 0x01, 0x40, 0x21, 0x42, 0x41, 0x41, 0x82, 0x20,
   0x44, 0x11, 0x28, 0x0a, 0xf0, 0x07};
