#define drag_cond_width 15
#define drag_cond_height 15
static unsigned char drag_cond_bits[] = {
   0xf0, 0x07, 0x08, 0x08, 0x04, 0x10, 0xfe, 0x3b, 0xa3, 0x6a, 0xaf, 0x6a,
   0xa9, 0x7a, 0xaf, 0x4b, 0x01, 0x40, 0xe1, 0x41, 0x01, 0x41, 0xc2, 0x20,
   0x04, 0x10, 0xc8, 0x08, 0xf0, 0x07};
