#define grey_temp_width 15
#define grey_temp_height 15
static unsigned char grey_temp_bits[] = {
   0x50, 0x05, 0xa8, 0x0a, 0x04, 0x10, 0xfe, 0x3b, 0xa3, 0x6a, 0xae, 0x2a,
   0xa9, 0x7a, 0xae, 0x0b, 0x01, 0x40, 0x2a, 0x2a, 0x45, 0x51, 0x8a, 0x28,
   0x44, 0x11, 0x28, 0x0a, 0x50, 0x05};
