#define grey_cond_width 15
#define grey_cond_height 15
static unsigned char grey_cond_bits[] = {
   0x50, 0x05, 0xa8, 0x0a, 0x04, 0x10, 0xfe, 0x3b, 0xa3, 0x6a, 0xae, 0x2a,
   0xa9, 0x7a, 0xae, 0x0b, 0x01, 0x40, 0xea, 0x29, 0x05, 0x55, 0xca, 0x28,
   0x14, 0x14, 0xc8, 0x0a, 0x50, 0x05};
