#define past_arrow_width 14
#define past_arrow_height 15
static unsigned char past_arrow_bits[] = {
   0x40, 0x00, 0x90, 0x00, 0x08, 0x00, 0x10, 0x02, 0x00, 0x04, 0x6d, 0x00,
   0x01, 0x10, 0x00, 0x20, 0x01, 0x10, 0x6d, 0x00, 0x00, 0x04, 0x10, 0x02,
   0x08, 0x00, 0x90, 0x00, 0x40, 0x00};
