#define temp_arrow_width 14
#define temp_arrow_height 15
static unsigned char temp_arrow_bits[] = {
   0x60, 0x00, 0x90, 0x00, 0x08, 0x01, 0x10, 0x02, 0x20, 0x04, 0x7f, 0x08,
   0x01, 0x10, 0x01, 0x20, 0x01, 0x10, 0x7f, 0x08, 0x20, 0x04, 0x10, 0x02,
   0x08, 0x01, 0x90, 0x00, 0x60, 0x00};
