#define temp_width 15
#define temp_height 15
static unsigned char temp_bits[] = {
   0xf0, 0x07, 0xf8, 0x0f, 0xfc, 0x1f, 0x02, 0x24, 0x5d, 0x55, 0x51, 0x55,
   0x57, 0x45, 0x51, 0x74, 0xff, 0x7f, 0xdf, 0x7d, 0xbf, 0x7e, 0x7e, 0x3f,
   0xbc, 0x1e, 0xd8, 0x0d, 0xf0, 0x07};
