#define time16_width 16
#define time16_height 16
#define time16_x_hot 7
#define time16_y_hot 7
static unsigned char time16_bits[] = {
   0x00, 0x00, 0xf8, 0x1f, 0x08, 0x10, 0x08, 0x10, 0x10, 0x08, 0xe0, 0x07,
   0xc0, 0x03, 0x80, 0x01, 0x80, 0x01, 0x40, 0x02, 0x20, 0x04, 0x10, 0x08,
   0x88, 0x11, 0xe8, 0x17, 0xf8, 0x1f, 0x00, 0x00};
